G75*
G70*
%OFA0B0*%
%FSLAX24Y24*%
%IPPOS*%
%LPD*%
%AMOC8*
5,1,8,0,0,1.08239X$1,22.5*
%
%ADD10C,0.0100*%
%ADD11C,0.0600*%
%ADD12R,0.0591X0.0512*%
%ADD13OC8,0.0630*%
%ADD14R,0.0600X0.0600*%
%ADD15OC8,0.0600*%
%ADD16R,0.1000X0.0500*%
%ADD17R,0.0220X0.0500*%
%ADD18R,0.0500X0.0220*%
%ADD19R,0.0800X0.0260*%
%ADD20R,0.0512X0.0591*%
%ADD21R,0.0551X0.0394*%
%ADD22R,0.0315X0.0394*%
%ADD23C,0.0800*%
%ADD24R,0.0630X0.0906*%
%ADD25R,0.0512X0.0512*%
%ADD26R,0.0787X0.0552*%
%ADD27R,0.2000X0.0720*%
%ADD28R,0.0260X0.0800*%
%ADD29R,0.0552X0.0787*%
%ADD30OC8,0.0520*%
%ADD31R,0.0709X0.0669*%
%ADD32R,0.0669X0.0709*%
%ADD33C,0.0160*%
%ADD34C,0.0320*%
%ADD35C,0.0120*%
D10*
X001167Y000456D02*
X001167Y020131D01*
X020842Y020131D01*
X020842Y020156D01*
X020842Y020131D02*
X020842Y000456D01*
X001167Y000456D01*
X002148Y001545D02*
X001822Y001871D01*
X001822Y002606D01*
X002491Y002606D02*
X002517Y002606D01*
X002667Y002456D01*
X002667Y003456D01*
X002607Y003516D01*
X002097Y003516D01*
X002667Y003456D02*
X002667Y004556D01*
X003667Y005556D01*
X003688Y005577D01*
X004005Y005262D02*
X003945Y005202D01*
X004005Y005262D02*
X005083Y005262D01*
X005083Y004947D02*
X004308Y004947D01*
X003148Y003788D01*
X003148Y001545D01*
X002667Y000956D02*
X002917Y000706D01*
X009511Y000706D01*
X010355Y001550D01*
X009847Y001696D02*
X009847Y001356D01*
X009447Y000956D01*
X007737Y000956D01*
X007148Y001545D01*
X008355Y001550D02*
X008361Y001550D01*
X008867Y002056D01*
X008867Y003656D01*
X008501Y004022D01*
X009367Y003476D02*
X009867Y002956D01*
X009867Y002036D01*
X009381Y001550D01*
X009355Y001550D01*
X009847Y001696D02*
X010355Y002205D01*
X010355Y002550D01*
X009355Y002550D02*
X009353Y002550D01*
X009367Y003476D02*
X009367Y007016D01*
X008727Y007656D01*
X007875Y007656D01*
X011967Y005996D02*
X012557Y005996D01*
X012567Y006006D01*
X014208Y004947D02*
X012967Y003706D01*
X012967Y001568D01*
X011967Y001568D02*
X011682Y001852D01*
X011682Y002606D01*
X014208Y004947D02*
X014983Y004947D01*
X014977Y005256D02*
X014983Y005262D01*
X015570Y004045D02*
X015570Y006852D01*
X015067Y007356D01*
X015067Y009696D01*
X017807Y007456D02*
X018707Y007456D01*
X019187Y006976D01*
X019187Y003416D01*
X019647Y002956D01*
X019647Y002116D01*
X019135Y001605D01*
X019135Y001596D01*
X019647Y001416D02*
X019187Y000956D01*
X017578Y000956D01*
X016967Y001568D01*
X019647Y001416D02*
X019647Y001796D01*
X020135Y002285D01*
X020135Y002596D01*
X002667Y002456D02*
X002667Y000956D01*
D11*
X003148Y001245D02*
X003148Y001845D01*
X002148Y001845D02*
X002148Y001245D01*
X004148Y001245D02*
X004148Y001845D01*
X005148Y001845D02*
X005148Y001245D01*
X006148Y001245D02*
X006148Y001845D01*
X007148Y001845D02*
X007148Y001245D01*
X011967Y001268D02*
X011967Y001868D01*
X012967Y001868D02*
X012967Y001268D01*
X013967Y001268D02*
X013967Y001868D01*
X014967Y001868D02*
X014967Y001268D01*
X015967Y001268D02*
X015967Y001868D01*
X016967Y001868D02*
X016967Y001268D01*
D12*
X013317Y006021D03*
X013317Y006691D03*
X019167Y015691D03*
X019167Y016361D03*
X008117Y018841D03*
X008117Y019511D03*
X003401Y006729D03*
X003401Y006060D03*
D13*
X001676Y014828D03*
X011567Y014806D03*
D14*
X008355Y001550D03*
X018135Y001596D03*
D15*
X018135Y002596D03*
X019135Y002596D03*
X019135Y001596D03*
X020135Y001596D03*
X020135Y002596D03*
X010355Y002550D03*
X009355Y002550D03*
X009355Y001550D03*
X010355Y001550D03*
X008355Y002550D03*
D16*
X009247Y010127D03*
X009247Y010915D03*
X009247Y011702D03*
X009247Y012490D03*
X009247Y013277D03*
X009247Y014064D03*
X009247Y014852D03*
X013017Y014818D03*
X013017Y014031D03*
X013017Y013244D03*
X013017Y012456D03*
X013017Y011669D03*
X013017Y010881D03*
X013017Y010094D03*
X019316Y010094D03*
X019316Y010881D03*
X019316Y011669D03*
X019316Y012456D03*
X019316Y013244D03*
X019316Y014031D03*
X019316Y014818D03*
X002948Y014852D03*
X002948Y014064D03*
X002948Y013277D03*
X002948Y012490D03*
X002948Y011702D03*
X002948Y010915D03*
X002948Y010127D03*
D17*
X005670Y007425D03*
X005985Y007425D03*
X006300Y007425D03*
X006615Y007425D03*
X006930Y007425D03*
X007245Y007425D03*
X007560Y007425D03*
X007875Y007425D03*
X007875Y004045D03*
X007560Y004045D03*
X007245Y004045D03*
X006930Y004045D03*
X006615Y004045D03*
X006300Y004045D03*
X005985Y004045D03*
X005670Y004045D03*
X015570Y004045D03*
X015885Y004045D03*
X016200Y004045D03*
X016515Y004045D03*
X016830Y004045D03*
X017145Y004045D03*
X017460Y004045D03*
X017775Y004045D03*
X017775Y007425D03*
X017460Y007425D03*
X017145Y007425D03*
X016830Y007425D03*
X016515Y007425D03*
X016200Y007425D03*
X015885Y007425D03*
X015570Y007425D03*
D18*
X014983Y006837D03*
X014983Y006522D03*
X014983Y006207D03*
X014983Y005892D03*
X014983Y005577D03*
X014983Y005262D03*
X014983Y004947D03*
X014983Y004632D03*
X018363Y004632D03*
X018363Y004947D03*
X018363Y005262D03*
X018363Y005577D03*
X018363Y005892D03*
X018363Y006207D03*
X018363Y006522D03*
X018363Y006837D03*
X008463Y006837D03*
X008463Y006522D03*
X008463Y006207D03*
X008463Y005892D03*
X008463Y005577D03*
X008463Y005262D03*
X008463Y004947D03*
X008463Y004632D03*
X005083Y004632D03*
X005083Y004947D03*
X005083Y005262D03*
X005083Y005577D03*
X005083Y005892D03*
X005083Y006207D03*
X005083Y006522D03*
X005083Y006837D03*
D19*
X005717Y015796D03*
X005717Y016296D03*
X005717Y016796D03*
X005717Y017296D03*
X008137Y017296D03*
X008137Y016796D03*
X008137Y016296D03*
X008137Y015796D03*
D20*
X004811Y015796D03*
X004142Y015796D03*
X002551Y008976D03*
X001882Y008976D03*
X006752Y008286D03*
X007421Y008286D03*
X011832Y008936D03*
X012501Y008936D03*
X016632Y008406D03*
X017301Y008406D03*
X017221Y003066D03*
X016552Y003066D03*
X012351Y002606D03*
X011682Y002606D03*
X007321Y003066D03*
X006652Y003066D03*
X002491Y002606D03*
X001822Y002606D03*
X016972Y015706D03*
X017641Y015706D03*
D21*
X014200Y009320D03*
X014200Y008572D03*
X013334Y008946D03*
X004260Y008572D03*
X004260Y009320D03*
X003394Y008946D03*
D22*
X004257Y006870D03*
X004257Y006082D03*
X014117Y006112D03*
X014117Y006900D03*
D23*
X012117Y007006D03*
X010267Y007006D03*
X002267Y007006D03*
X002267Y015856D03*
X010267Y015856D03*
X012117Y015856D03*
X020117Y015856D03*
X020117Y007006D03*
D24*
X011967Y005996D03*
X011967Y003516D03*
X002097Y003516D03*
X002097Y005996D03*
D25*
X004967Y018393D03*
X004967Y019299D03*
X017084Y018786D03*
X017989Y018786D03*
D26*
X007242Y018846D03*
D27*
X009747Y019476D03*
X009747Y018136D03*
X012277Y019516D03*
X014657Y019506D03*
D28*
X018947Y019576D03*
X019447Y019576D03*
X019947Y019576D03*
X020447Y019576D03*
X020447Y017156D03*
X019947Y017156D03*
X019447Y017156D03*
X018947Y017156D03*
D29*
X017537Y016511D03*
D30*
X015727Y018396D03*
X016887Y019566D03*
X017887Y019566D03*
X012727Y018396D03*
D31*
X013100Y017226D03*
X013090Y015936D03*
X014704Y015936D03*
X014714Y017226D03*
D32*
X015867Y017263D03*
X015867Y015649D03*
X011757Y016819D03*
X011757Y018433D03*
D33*
X009747Y018136D02*
X009647Y018036D01*
X009647Y017576D01*
X008867Y016796D01*
X008137Y016796D01*
X006867Y015406D02*
X009817Y015406D01*
X010267Y015856D01*
X011567Y014806D02*
X011579Y014818D01*
X013017Y014818D01*
X013017Y013244D02*
X011679Y013244D01*
X011667Y013256D01*
X013017Y010881D02*
X013842Y010881D01*
X015567Y008906D02*
X017467Y008906D01*
X017467Y008606D01*
X017301Y008441D01*
X017301Y008406D01*
X017460Y008247D01*
X017460Y007425D01*
X017460Y006730D01*
X017145Y006415D01*
X017145Y004045D01*
X017145Y002990D01*
X017221Y003066D01*
X017691Y002596D01*
X018135Y002596D01*
X017427Y002436D02*
X017427Y002861D01*
X017221Y003066D01*
X016830Y003520D02*
X016830Y004045D01*
X016515Y004045D02*
X016515Y004505D01*
X016717Y004706D01*
X017017Y004706D01*
X016515Y005205D02*
X016200Y004890D01*
X016200Y004045D01*
X016200Y003522D01*
X016317Y003406D01*
X016552Y003171D01*
X016552Y003066D01*
X016552Y001982D01*
X016967Y001568D01*
X016717Y003406D02*
X016317Y003406D01*
X016717Y003406D02*
X016830Y003520D01*
X016515Y005205D02*
X016515Y005806D01*
X016465Y005756D01*
X015967Y005756D01*
X016515Y005806D02*
X016515Y007425D01*
X016515Y008289D01*
X016632Y008406D01*
X017467Y008906D02*
X019717Y008906D01*
X017967Y008056D02*
X017967Y007616D01*
X017807Y007456D01*
X017775Y007425D01*
X013667Y008106D02*
X013317Y008106D01*
X009657Y008926D02*
X007417Y008926D01*
X007421Y008921D01*
X007421Y008286D01*
X007560Y008147D01*
X007560Y007425D01*
X007567Y007418D01*
X007567Y006686D01*
X007245Y006365D01*
X007245Y004706D01*
X006867Y004706D01*
X006615Y004455D01*
X006615Y004045D01*
X006300Y004045D02*
X006300Y003622D01*
X006467Y003456D01*
X006767Y003156D01*
X006652Y003066D02*
X006652Y002252D01*
X007148Y001756D01*
X007148Y001545D01*
X007227Y002496D02*
X007227Y002971D01*
X007321Y003066D01*
X007837Y002550D01*
X008355Y002550D01*
X007321Y003066D02*
X007267Y003011D01*
X007321Y003066D02*
X007245Y003142D01*
X007245Y004045D01*
X007245Y004706D01*
X006930Y004045D02*
X006930Y003670D01*
X006717Y003456D01*
X006467Y003456D01*
X006300Y004045D02*
X006300Y004840D01*
X006615Y005155D01*
X006615Y005806D01*
X006565Y005856D01*
X006267Y005856D01*
X006615Y005806D02*
X006615Y007425D01*
X006615Y008149D01*
X006752Y008286D01*
X006457Y008926D02*
X005727Y008196D01*
X006457Y008926D02*
X007417Y008926D01*
X008462Y006206D02*
X008463Y006207D01*
X004337Y007706D02*
X004307Y007676D01*
X002817Y007856D02*
X001882Y008791D01*
X001882Y008976D01*
X001882Y009571D01*
X002438Y010127D01*
X002948Y010127D01*
X002732Y007941D02*
X002817Y007856D01*
X001537Y006976D02*
X001537Y006556D01*
X002097Y005996D01*
X001807Y013256D02*
X001828Y013277D01*
X002948Y013277D01*
X002948Y014064D02*
X003908Y014064D01*
X003992Y013981D01*
X002948Y014852D02*
X001700Y014852D01*
X001676Y014828D01*
X003487Y017016D02*
X003767Y017296D01*
X005717Y017296D01*
X005717Y015796D02*
X004811Y015796D01*
X004772Y015796D01*
X005717Y015796D02*
X006477Y015796D01*
X006867Y015406D01*
D34*
X003487Y017016D03*
X001807Y013256D03*
X003763Y011702D03*
X003775Y010915D03*
X003427Y008196D03*
X002817Y007856D03*
X004337Y007706D03*
X005727Y008196D03*
X007167Y006756D03*
X007947Y006206D03*
X009030Y006269D03*
X008966Y006835D03*
X008167Y008056D03*
X009657Y008926D03*
X009247Y009437D03*
X012617Y007956D03*
X013667Y008106D03*
X014117Y007556D03*
X015567Y008906D03*
X013842Y010881D03*
X013804Y011669D03*
X011667Y013256D03*
X014427Y014796D03*
X014967Y015156D03*
X017067Y018216D03*
X018507Y016836D03*
X019707Y018576D03*
X014667Y018456D03*
X019316Y009506D03*
X019717Y008906D03*
X017967Y008056D03*
X018857Y006837D03*
X018857Y006356D03*
X017817Y006206D03*
X017017Y006806D03*
X015967Y005756D03*
X014443Y004632D03*
X013767Y005136D03*
X012567Y006006D03*
X009663Y004232D03*
X007227Y002496D03*
X004877Y004212D03*
X003945Y005202D03*
X006267Y005856D03*
X001537Y006976D03*
X017427Y002436D03*
X019527Y004652D03*
D35*
X019527Y007536D01*
X020167Y008176D01*
X020167Y010596D01*
X019881Y010881D01*
X019316Y010881D01*
X019316Y010094D02*
X019316Y009506D01*
X017145Y007425D02*
X017145Y006935D01*
X017017Y006806D01*
X017447Y006336D02*
X017947Y006836D01*
X018362Y006836D01*
X018363Y006837D01*
X018857Y006837D01*
X018691Y006522D02*
X018857Y006356D01*
X018867Y006346D01*
X018867Y002876D01*
X019135Y002608D01*
X019135Y002596D01*
X018647Y002096D02*
X018647Y003756D01*
X018398Y004005D01*
X018327Y004076D01*
X017447Y004956D01*
X017447Y006336D01*
X017818Y006207D02*
X017817Y006206D01*
X017818Y006207D02*
X018363Y006207D01*
X018363Y006522D02*
X018691Y006522D01*
X014983Y005577D02*
X014167Y005577D01*
X014117Y005627D01*
X014117Y006112D01*
X014167Y005577D02*
X013438Y005577D01*
X013412Y005551D01*
X013317Y005646D01*
X013317Y006021D01*
X013412Y005551D02*
X012351Y004491D01*
X012351Y003456D01*
X012291Y003516D01*
X011967Y003516D01*
X012351Y003456D02*
X012351Y002606D01*
X012467Y002491D01*
X012467Y000956D01*
X012717Y000706D01*
X019245Y000706D01*
X020135Y001596D01*
X018647Y002096D02*
X018147Y001596D01*
X018135Y001596D01*
X014983Y004632D02*
X014443Y004632D01*
X014977Y005256D02*
X013887Y005256D01*
X013767Y005136D01*
X013317Y006691D02*
X013317Y008106D01*
X013317Y008929D01*
X013334Y008946D01*
X013324Y008936D01*
X012501Y008936D01*
X011832Y008936D02*
X011832Y009541D01*
X011817Y009556D01*
X012354Y010094D01*
X013017Y010094D01*
X011832Y008936D02*
X011832Y008741D01*
X012617Y007956D01*
X014117Y007556D02*
X014117Y006900D01*
X014117Y007556D02*
X014117Y008489D01*
X014200Y008572D01*
X014200Y009320D02*
X014267Y009387D01*
X014267Y013206D01*
X013442Y014031D01*
X013017Y014031D01*
X014427Y014796D02*
X013287Y015936D01*
X013090Y015936D01*
X012207Y016819D01*
X011757Y016819D01*
X013100Y017226D02*
X013100Y018023D01*
X012727Y018396D01*
X012277Y018846D01*
X012277Y019516D01*
X011757Y018433D02*
X011794Y018396D01*
X012727Y018396D01*
X014657Y018466D02*
X014667Y018456D01*
X014657Y018466D02*
X014657Y019176D01*
X015397Y018436D01*
X015727Y018436D01*
X014657Y019176D02*
X014657Y019506D01*
X014714Y017226D02*
X015830Y017226D01*
X015867Y017263D01*
X016972Y016158D01*
X016972Y015706D01*
X017641Y015706D02*
X017641Y016406D01*
X017537Y016511D01*
X017989Y016964D01*
X017989Y018786D01*
X018057Y019566D02*
X017887Y019566D01*
X018057Y019566D02*
X018807Y018816D01*
X019287Y018816D01*
X019447Y018976D01*
X019447Y019576D01*
X019947Y019576D02*
X019947Y018816D01*
X019707Y018576D01*
X019447Y017156D02*
X019447Y016641D01*
X019167Y016361D01*
X018811Y016361D01*
X018387Y015936D01*
X018387Y013016D01*
X015067Y009696D01*
X013804Y011669D02*
X013017Y011669D01*
X010287Y010696D02*
X010287Y008196D01*
X009667Y007576D01*
X009667Y004428D01*
X009663Y004232D01*
X008501Y004022D02*
X007507Y005016D01*
X007507Y006236D01*
X008106Y006835D01*
X008966Y006835D01*
X009044Y006837D01*
X008463Y006837D01*
X008463Y006522D02*
X008479Y006506D01*
X008793Y006506D01*
X009030Y006269D01*
X009127Y006173D01*
X009127Y002776D01*
X009353Y002550D01*
X008462Y006206D02*
X007947Y006206D01*
X007245Y006835D02*
X007167Y006756D01*
X007245Y006835D02*
X007245Y007425D01*
X007875Y007425D02*
X007875Y007656D01*
X007875Y007765D01*
X008167Y008056D01*
X009247Y009437D02*
X009247Y010127D01*
X009247Y010915D02*
X010068Y010915D01*
X010287Y010696D01*
X005697Y008736D02*
X005317Y008356D01*
X005317Y007206D01*
X005670Y006852D01*
X005670Y004045D01*
X005083Y004632D02*
X005043Y004632D01*
X004877Y004466D01*
X004877Y004212D01*
X005083Y005577D02*
X004267Y005577D01*
X004257Y005587D01*
X004257Y006082D01*
X004267Y005577D02*
X003688Y005577D01*
X003667Y005556D02*
X003401Y005822D01*
X003401Y006060D01*
X003401Y006729D02*
X003401Y008196D01*
X003427Y008196D01*
X003401Y008196D02*
X003401Y008939D01*
X003394Y008946D01*
X002581Y008946D01*
X002551Y008976D01*
X004260Y009320D02*
X004260Y013713D01*
X003992Y013981D01*
X004142Y015401D02*
X005697Y013846D01*
X005697Y008736D01*
X004260Y008572D02*
X004260Y007756D01*
X004307Y007709D01*
X004307Y007676D01*
X004260Y007756D02*
X004260Y006873D01*
X004257Y006870D01*
X003775Y010915D02*
X002948Y010915D01*
X002948Y011702D02*
X003763Y011702D01*
X004142Y015401D02*
X004142Y015796D01*
X004142Y016381D01*
X004557Y016796D01*
X005717Y016796D01*
X005579Y018393D02*
X004967Y018393D01*
X005579Y018393D02*
X007667Y016306D01*
X008127Y016306D01*
X008137Y016296D01*
X008117Y018841D02*
X007246Y018841D01*
X007242Y018846D01*
X006789Y019299D01*
X004967Y019299D01*
X008117Y019511D02*
X009712Y019511D01*
X009747Y019476D01*
X014704Y015936D02*
X014991Y015649D01*
X015267Y015649D01*
X014967Y015349D01*
X014967Y015156D01*
X015267Y015649D02*
X015867Y015649D01*
X017067Y018216D02*
X017067Y018769D01*
X017084Y018786D01*
X018827Y017156D02*
X018507Y016836D01*
X018827Y017156D02*
X018947Y017156D01*
X019167Y015691D02*
X019952Y015691D01*
X020117Y015856D01*
X020447Y016186D01*
X020447Y017156D01*
M02*
