G75*
G70*
%OFA0B0*%
%FSLAX24Y24*%
%IPPOS*%
%LPD*%
%AMOC8*
5,1,8,0,0,1.08239X$1,22.5*
%
%ADD10C,0.0100*%
%ADD11C,0.0040*%
%ADD12C,0.0060*%
%ADD13C,0.0050*%
%ADD14C,0.0020*%
%ADD15R,0.0118X0.0827*%
%ADD16R,0.0827X0.0118*%
D10*
X001167Y000456D02*
X001167Y020131D01*
X020842Y020131D01*
X020842Y020156D01*
X020842Y020131D02*
X020842Y000456D01*
X001167Y000456D01*
X007855Y001050D02*
X007855Y003050D01*
X010855Y003050D01*
X010855Y001050D01*
X007855Y001050D01*
X011047Y000456D02*
X011047Y020126D01*
X011757Y017941D02*
X011383Y017370D01*
X012131Y017370D01*
X011757Y017941D01*
X013651Y017600D02*
X013651Y016852D01*
X014222Y017226D01*
X013651Y017600D01*
X013641Y016310D02*
X014212Y015936D01*
X013641Y015562D01*
X013641Y016310D01*
X015493Y016200D02*
X015867Y016771D01*
X016241Y016200D01*
X015493Y016200D01*
X017087Y019266D02*
X017587Y019566D01*
X017587Y019866D01*
X017687Y019866D01*
X017587Y019566D02*
X017587Y019266D01*
X017487Y019266D01*
X017587Y019566D02*
X017087Y019866D01*
X017635Y003096D02*
X017635Y001096D01*
X020635Y001096D01*
X020635Y003096D01*
X017635Y003096D01*
D11*
X017867Y003303D02*
X017867Y003436D01*
X018000Y003436D02*
X018000Y003303D01*
X017933Y003236D01*
X017867Y003303D01*
X018088Y003236D02*
X018088Y003436D01*
X018188Y003436D01*
X018221Y003403D01*
X018221Y003269D01*
X018188Y003236D01*
X018088Y003236D01*
X018309Y003236D02*
X018309Y003436D01*
X018409Y003436D01*
X018442Y003403D01*
X018442Y003269D01*
X018409Y003236D01*
X018309Y003236D01*
X018807Y003236D02*
X018807Y003436D01*
X018873Y003370D01*
X018940Y003436D01*
X018940Y003236D01*
X019028Y003269D02*
X019061Y003236D01*
X019128Y003236D01*
X019161Y003269D01*
X019161Y003403D01*
X019128Y003436D01*
X019061Y003436D01*
X019028Y003403D01*
X019028Y003269D01*
X019249Y003269D02*
X019282Y003236D01*
X019349Y003236D01*
X019382Y003269D01*
X019382Y003303D01*
X019349Y003336D01*
X019282Y003336D01*
X019249Y003370D01*
X019249Y003403D01*
X019282Y003436D01*
X019349Y003436D01*
X019382Y003403D01*
X019470Y003436D02*
X019536Y003436D01*
X019503Y003436D02*
X019503Y003236D01*
X019470Y003236D02*
X019536Y003236D01*
X019847Y003289D02*
X019847Y003423D01*
X019880Y003456D01*
X019947Y003456D01*
X019980Y003423D01*
X019980Y003356D02*
X019913Y003356D01*
X019980Y003356D02*
X019980Y003289D01*
X019947Y003256D01*
X019880Y003256D01*
X019847Y003289D01*
X020068Y003256D02*
X020068Y003456D01*
X020201Y003256D01*
X020201Y003456D01*
X020289Y003456D02*
X020289Y003256D01*
X020389Y003256D01*
X020422Y003289D01*
X020422Y003423D01*
X020389Y003456D01*
X020289Y003456D01*
X020309Y000896D02*
X020442Y000896D01*
X020375Y000896D02*
X020375Y000696D01*
X020221Y000729D02*
X020188Y000696D01*
X020121Y000696D01*
X020088Y000729D01*
X020121Y000796D02*
X020188Y000796D01*
X020221Y000763D01*
X020221Y000729D01*
X020121Y000796D02*
X020088Y000830D01*
X020088Y000863D01*
X020121Y000896D01*
X020188Y000896D01*
X020221Y000863D01*
X020000Y000863D02*
X020000Y000796D01*
X019967Y000763D01*
X019867Y000763D01*
X019933Y000763D02*
X020000Y000696D01*
X019867Y000696D02*
X019867Y000896D01*
X019967Y000896D01*
X020000Y000863D01*
X019402Y000916D02*
X019269Y000783D01*
X019302Y000816D02*
X019402Y000716D01*
X019269Y000716D02*
X019269Y000916D01*
X019181Y000883D02*
X019148Y000916D01*
X019081Y000916D01*
X019048Y000883D01*
X019048Y000749D01*
X019081Y000716D01*
X019148Y000716D01*
X019181Y000749D01*
X018960Y000749D02*
X018927Y000716D01*
X018860Y000716D01*
X018827Y000749D01*
X018860Y000816D02*
X018827Y000850D01*
X018827Y000883D01*
X018860Y000916D01*
X018927Y000916D01*
X018960Y000883D01*
X018927Y000816D02*
X018960Y000783D01*
X018960Y000749D01*
X018927Y000816D02*
X018860Y000816D01*
X018529Y000769D02*
X018529Y000903D01*
X018496Y000936D01*
X018429Y000936D01*
X018396Y000903D01*
X018396Y000769D01*
X018429Y000736D01*
X018496Y000736D01*
X018529Y000769D01*
X018308Y000769D02*
X018275Y000736D01*
X018208Y000736D01*
X018175Y000769D01*
X018208Y000836D02*
X018275Y000836D01*
X018308Y000803D01*
X018308Y000769D01*
X018208Y000836D02*
X018175Y000870D01*
X018175Y000903D01*
X018208Y000936D01*
X018275Y000936D01*
X018308Y000903D01*
X018094Y000936D02*
X018028Y000936D01*
X018061Y000936D02*
X018061Y000736D01*
X018028Y000736D02*
X018094Y000736D01*
X017940Y000736D02*
X017940Y000936D01*
X017873Y000870D01*
X017807Y000936D01*
X017807Y000736D01*
X017282Y000783D02*
X017249Y000816D01*
X017182Y000816D01*
X017149Y000783D01*
X017149Y000750D01*
X017182Y000716D01*
X017249Y000716D01*
X017282Y000683D01*
X017282Y000649D01*
X017249Y000616D01*
X017182Y000616D01*
X017149Y000649D01*
X016994Y000616D02*
X016994Y000816D01*
X016928Y000816D02*
X017061Y000816D01*
X016840Y000783D02*
X016840Y000716D01*
X016807Y000683D01*
X016707Y000683D01*
X016773Y000683D02*
X016840Y000616D01*
X016707Y000616D02*
X016707Y000816D01*
X016807Y000816D01*
X016840Y000783D01*
X016181Y000816D02*
X016048Y000616D01*
X016181Y000616D02*
X016048Y000816D01*
X015960Y000816D02*
X015827Y000816D01*
X015893Y000816D02*
X015893Y000616D01*
X015201Y000616D02*
X015068Y000816D01*
X014980Y000783D02*
X014980Y000716D01*
X014947Y000683D01*
X014847Y000683D01*
X014913Y000683D02*
X014980Y000616D01*
X015068Y000616D02*
X015201Y000816D01*
X014980Y000783D02*
X014947Y000816D01*
X014847Y000816D01*
X014847Y000616D01*
X014302Y000636D02*
X014235Y000703D01*
X014269Y000703D02*
X014169Y000703D01*
X014169Y000636D02*
X014169Y000836D01*
X014269Y000836D01*
X014302Y000803D01*
X014302Y000736D01*
X014269Y000703D01*
X014081Y000636D02*
X014081Y000836D01*
X013948Y000836D02*
X013948Y000636D01*
X014014Y000703D01*
X014081Y000636D01*
X013860Y000736D02*
X013827Y000703D01*
X013727Y000703D01*
X013727Y000636D02*
X013727Y000836D01*
X013827Y000836D01*
X013860Y000803D01*
X013860Y000736D01*
X013221Y000669D02*
X013188Y000636D01*
X013121Y000636D01*
X013088Y000669D01*
X013088Y000803D01*
X013121Y000836D01*
X013188Y000836D01*
X013221Y000803D01*
X013000Y000836D02*
X013000Y000636D01*
X012867Y000836D01*
X012867Y000636D01*
X012302Y000689D02*
X012302Y000823D01*
X012269Y000856D01*
X012169Y000856D01*
X012169Y000656D01*
X012269Y000656D01*
X012302Y000689D01*
X012081Y000656D02*
X012081Y000856D01*
X011948Y000856D02*
X012081Y000656D01*
X011948Y000656D02*
X011948Y000856D01*
X011860Y000823D02*
X011827Y000856D01*
X011760Y000856D01*
X011727Y000823D01*
X011727Y000689D01*
X011760Y000656D01*
X011827Y000656D01*
X011860Y000689D01*
X011860Y000756D01*
X011793Y000756D01*
X010642Y000896D02*
X010509Y000896D01*
X010575Y000896D02*
X010575Y000696D01*
X010421Y000729D02*
X010388Y000696D01*
X010321Y000696D01*
X010288Y000729D01*
X010321Y000796D02*
X010388Y000796D01*
X010421Y000763D01*
X010421Y000729D01*
X010321Y000796D02*
X010288Y000830D01*
X010288Y000863D01*
X010321Y000896D01*
X010388Y000896D01*
X010421Y000863D01*
X010200Y000863D02*
X010200Y000796D01*
X010167Y000763D01*
X010067Y000763D01*
X010133Y000763D02*
X010200Y000696D01*
X010067Y000696D02*
X010067Y000896D01*
X010167Y000896D01*
X010200Y000863D01*
X009662Y000876D02*
X009529Y000743D01*
X009562Y000776D02*
X009662Y000676D01*
X009529Y000676D02*
X009529Y000876D01*
X009441Y000843D02*
X009408Y000876D01*
X009341Y000876D01*
X009308Y000843D01*
X009308Y000709D01*
X009341Y000676D01*
X009408Y000676D01*
X009441Y000709D01*
X009220Y000709D02*
X009220Y000743D01*
X009187Y000776D01*
X009120Y000776D01*
X009087Y000810D01*
X009087Y000843D01*
X009120Y000876D01*
X009187Y000876D01*
X009220Y000843D01*
X009220Y000709D02*
X009187Y000676D01*
X009120Y000676D01*
X009087Y000709D01*
X008729Y000689D02*
X008729Y000823D01*
X008696Y000856D01*
X008629Y000856D01*
X008596Y000823D01*
X008596Y000689D01*
X008629Y000656D01*
X008696Y000656D01*
X008729Y000689D01*
X008508Y000689D02*
X008508Y000723D01*
X008475Y000756D01*
X008408Y000756D01*
X008375Y000790D01*
X008375Y000823D01*
X008408Y000856D01*
X008475Y000856D01*
X008508Y000823D01*
X008508Y000689D02*
X008475Y000656D01*
X008408Y000656D01*
X008375Y000689D01*
X008294Y000656D02*
X008228Y000656D01*
X008261Y000656D02*
X008261Y000856D01*
X008228Y000856D02*
X008294Y000856D01*
X008140Y000856D02*
X008140Y000656D01*
X008007Y000656D02*
X008007Y000856D01*
X008073Y000790D01*
X008140Y000856D01*
X007422Y000783D02*
X007389Y000816D01*
X007322Y000816D01*
X007289Y000783D01*
X007289Y000750D01*
X007322Y000716D01*
X007389Y000716D01*
X007422Y000683D01*
X007422Y000649D01*
X007389Y000616D01*
X007322Y000616D01*
X007289Y000649D01*
X007134Y000616D02*
X007134Y000816D01*
X007068Y000816D02*
X007201Y000816D01*
X006980Y000783D02*
X006980Y000716D01*
X006947Y000683D01*
X006847Y000683D01*
X006913Y000683D02*
X006980Y000616D01*
X006847Y000616D02*
X006847Y000816D01*
X006947Y000816D01*
X006980Y000783D01*
X006321Y000816D02*
X006188Y000616D01*
X006321Y000616D02*
X006188Y000816D01*
X006100Y000816D02*
X005967Y000816D01*
X006033Y000816D02*
X006033Y000616D01*
X005341Y000616D02*
X005208Y000816D01*
X005120Y000783D02*
X005120Y000716D01*
X005087Y000683D01*
X004987Y000683D01*
X005053Y000683D02*
X005120Y000616D01*
X005208Y000616D02*
X005341Y000816D01*
X005120Y000783D02*
X005087Y000816D01*
X004987Y000816D01*
X004987Y000616D01*
X004442Y000636D02*
X004375Y000703D01*
X004409Y000703D02*
X004309Y000703D01*
X004309Y000636D02*
X004309Y000836D01*
X004409Y000836D01*
X004442Y000803D01*
X004442Y000736D01*
X004409Y000703D01*
X004221Y000636D02*
X004221Y000836D01*
X004088Y000836D02*
X004088Y000636D01*
X004154Y000703D01*
X004221Y000636D01*
X004000Y000736D02*
X003967Y000703D01*
X003867Y000703D01*
X003867Y000636D02*
X003867Y000836D01*
X003967Y000836D01*
X004000Y000803D01*
X004000Y000736D01*
X003361Y000669D02*
X003328Y000636D01*
X003261Y000636D01*
X003228Y000669D01*
X003228Y000803D01*
X003261Y000836D01*
X003328Y000836D01*
X003361Y000803D01*
X003140Y000836D02*
X003140Y000636D01*
X003007Y000836D01*
X003007Y000636D01*
X002442Y000689D02*
X002442Y000823D01*
X002409Y000856D01*
X002309Y000856D01*
X002309Y000656D01*
X002409Y000656D01*
X002442Y000689D01*
X002221Y000656D02*
X002221Y000856D01*
X002088Y000856D02*
X002088Y000656D01*
X002000Y000689D02*
X002000Y000756D01*
X001933Y000756D01*
X001867Y000823D02*
X001867Y000689D01*
X001900Y000656D01*
X001967Y000656D01*
X002000Y000689D01*
X002000Y000823D02*
X001967Y000856D01*
X001900Y000856D01*
X001867Y000823D01*
X002088Y000856D02*
X002221Y000656D01*
X008047Y003283D02*
X008113Y003216D01*
X008180Y003283D01*
X008180Y003416D01*
X008268Y003416D02*
X008368Y003416D01*
X008401Y003383D01*
X008401Y003249D01*
X008368Y003216D01*
X008268Y003216D01*
X008268Y003416D01*
X008489Y003416D02*
X008489Y003216D01*
X008589Y003216D01*
X008622Y003249D01*
X008622Y003383D01*
X008589Y003416D01*
X008489Y003416D01*
X008047Y003416D02*
X008047Y003283D01*
X009007Y003236D02*
X009007Y003436D01*
X009073Y003370D01*
X009140Y003436D01*
X009140Y003236D01*
X009228Y003269D02*
X009261Y003236D01*
X009328Y003236D01*
X009361Y003269D01*
X009361Y003403D01*
X009328Y003436D01*
X009261Y003436D01*
X009228Y003403D01*
X009228Y003269D01*
X009449Y003269D02*
X009482Y003236D01*
X009549Y003236D01*
X009582Y003269D01*
X009582Y003303D01*
X009549Y003336D01*
X009482Y003336D01*
X009449Y003370D01*
X009449Y003403D01*
X009482Y003436D01*
X009549Y003436D01*
X009582Y003403D01*
X009670Y003436D02*
X009736Y003436D01*
X009703Y003436D02*
X009703Y003236D01*
X009670Y003236D02*
X009736Y003236D01*
X010107Y003269D02*
X010140Y003236D01*
X010207Y003236D01*
X010240Y003269D01*
X010240Y003336D01*
X010173Y003336D01*
X010107Y003403D02*
X010107Y003269D01*
X010107Y003403D02*
X010140Y003436D01*
X010207Y003436D01*
X010240Y003403D01*
X010328Y003436D02*
X010461Y003236D01*
X010461Y003436D01*
X010549Y003436D02*
X010549Y003236D01*
X010649Y003236D01*
X010682Y003269D01*
X010682Y003403D01*
X010649Y003436D01*
X010549Y003436D01*
X010328Y003436D02*
X010328Y003236D01*
X011193Y009736D02*
X011126Y009803D01*
X011327Y009803D01*
X011327Y009736D02*
X011327Y009870D01*
X011486Y009803D02*
X011553Y009736D01*
X011687Y009736D01*
X011587Y009736D02*
X011587Y009870D01*
X011553Y009870D02*
X011687Y009870D01*
X011687Y009957D02*
X011553Y009957D01*
X011620Y009957D02*
X011553Y010024D01*
X011553Y010057D01*
X011553Y010141D02*
X011553Y010241D01*
X011587Y010275D01*
X011687Y010275D01*
X011653Y010362D02*
X011587Y010362D01*
X011553Y010396D01*
X011553Y010462D01*
X011587Y010496D01*
X011620Y010496D01*
X011620Y010362D01*
X011653Y010362D02*
X011687Y010396D01*
X011687Y010462D01*
X011687Y010804D02*
X011486Y010804D01*
X011486Y010938D01*
X011553Y011025D02*
X011687Y011025D01*
X011620Y011025D02*
X011553Y011092D01*
X011553Y011125D01*
X011553Y011243D02*
X011553Y011309D01*
X011587Y011343D01*
X011687Y011343D01*
X011687Y011243D01*
X011653Y011209D01*
X011620Y011243D01*
X011620Y011343D01*
X011687Y011430D02*
X011553Y011430D01*
X011553Y011530D01*
X011587Y011564D01*
X011687Y011564D01*
X011687Y011651D02*
X011486Y011651D01*
X011553Y011751D02*
X011620Y011651D01*
X011687Y011751D01*
X011687Y012056D02*
X011486Y012056D01*
X011553Y012123D01*
X011486Y012190D01*
X011687Y012190D01*
X011653Y012277D02*
X011620Y012311D01*
X011620Y012411D01*
X011587Y012411D02*
X011687Y012411D01*
X011687Y012311D01*
X011653Y012277D01*
X011553Y012311D02*
X011553Y012378D01*
X011587Y012411D01*
X011553Y012498D02*
X011653Y012498D01*
X011687Y012532D01*
X011687Y012632D01*
X011553Y012632D01*
X011587Y012719D02*
X011553Y012753D01*
X011553Y012820D01*
X011587Y012853D01*
X011620Y012853D01*
X011620Y012719D01*
X011653Y012719D02*
X011587Y012719D01*
X011653Y012719D02*
X011687Y012753D01*
X011687Y012820D01*
X011687Y012940D02*
X011553Y012940D01*
X011620Y012940D02*
X011553Y013007D01*
X011553Y013041D01*
X011227Y011932D02*
X011227Y011799D01*
X011126Y011899D01*
X011327Y011899D01*
X011327Y011711D02*
X011327Y011578D01*
X011327Y011644D02*
X011126Y011644D01*
X011193Y011578D01*
X011160Y011490D02*
X011293Y011490D01*
X011327Y011457D01*
X011327Y011390D01*
X011293Y011357D01*
X011160Y011490D01*
X011126Y011457D01*
X011126Y011390D01*
X011160Y011357D01*
X011293Y011357D01*
X011327Y011269D02*
X011327Y011136D01*
X011193Y011269D01*
X011160Y011269D01*
X011126Y011236D01*
X011126Y011169D01*
X011160Y011136D01*
X011193Y010801D02*
X011327Y010801D01*
X011327Y010834D02*
X011327Y010767D01*
X011327Y010680D02*
X011227Y010680D01*
X011193Y010646D01*
X011193Y010546D01*
X011327Y010546D01*
X011327Y010459D02*
X011193Y010459D01*
X011193Y010325D02*
X011293Y010325D01*
X011327Y010359D01*
X011327Y010459D01*
X011360Y010245D02*
X011193Y010245D01*
X011126Y010245D02*
X011093Y010245D01*
X011360Y010245D02*
X011393Y010211D01*
X011393Y010178D01*
X011553Y010141D02*
X011687Y010141D01*
X011553Y009870D02*
X011486Y009803D01*
X011587Y010804D02*
X011587Y010871D01*
X011193Y010801D02*
X011193Y010767D01*
X011126Y010801D02*
X011093Y010801D01*
X002067Y016536D02*
X001933Y016536D01*
X001866Y016603D01*
X001933Y016670D01*
X002067Y016670D01*
X002067Y016757D02*
X001933Y016757D01*
X001933Y016824D02*
X001933Y016857D01*
X001933Y016824D02*
X002000Y016757D01*
X001967Y016670D02*
X001967Y016536D01*
X001707Y016536D02*
X001707Y016670D01*
X001707Y016603D02*
X001506Y016603D01*
X001573Y016536D01*
X001773Y016978D02*
X001773Y017011D01*
X001740Y017045D01*
X001573Y017045D01*
X001506Y017045D02*
X001473Y017045D01*
X001573Y017125D02*
X001673Y017125D01*
X001707Y017159D01*
X001707Y017259D01*
X001573Y017259D01*
X001573Y017346D02*
X001573Y017446D01*
X001607Y017480D01*
X001707Y017480D01*
X001707Y017567D02*
X001707Y017634D01*
X001707Y017601D02*
X001573Y017601D01*
X001573Y017567D01*
X001506Y017601D02*
X001473Y017601D01*
X001573Y017346D02*
X001707Y017346D01*
X001933Y017262D02*
X001967Y017296D01*
X002000Y017296D01*
X002000Y017162D01*
X002033Y017162D02*
X001967Y017162D01*
X001933Y017196D01*
X001933Y017262D01*
X002067Y017262D02*
X002067Y017196D01*
X002033Y017162D01*
X002067Y017075D02*
X001967Y017075D01*
X001933Y017041D01*
X001933Y016941D01*
X002067Y016941D01*
X002067Y017604D02*
X001866Y017604D01*
X001866Y017738D01*
X001933Y017825D02*
X002067Y017825D01*
X002000Y017825D02*
X001933Y017892D01*
X001933Y017925D01*
X001933Y018043D02*
X001933Y018109D01*
X001967Y018143D01*
X002067Y018143D01*
X002067Y018043D01*
X002033Y018009D01*
X002000Y018043D01*
X002000Y018143D01*
X002067Y018230D02*
X001933Y018230D01*
X001933Y018330D01*
X001967Y018364D01*
X002067Y018364D01*
X002067Y018451D02*
X001866Y018451D01*
X001933Y018551D02*
X002000Y018451D01*
X002067Y018551D01*
X002067Y018856D02*
X001866Y018856D01*
X001933Y018923D01*
X001866Y018990D01*
X002067Y018990D01*
X002033Y019077D02*
X002000Y019111D01*
X002000Y019211D01*
X001967Y019211D02*
X002067Y019211D01*
X002067Y019111D01*
X002033Y019077D01*
X001933Y019111D02*
X001933Y019178D01*
X001967Y019211D01*
X001933Y019298D02*
X002033Y019298D01*
X002067Y019332D01*
X002067Y019432D01*
X001933Y019432D01*
X001967Y019519D02*
X001933Y019553D01*
X001933Y019620D01*
X001967Y019653D01*
X002000Y019653D01*
X002000Y019519D01*
X002033Y019519D02*
X001967Y019519D01*
X002033Y019519D02*
X002067Y019553D01*
X002067Y019620D01*
X002067Y019740D02*
X001933Y019740D01*
X002000Y019740D02*
X001933Y019807D01*
X001933Y019841D01*
X001607Y018732D02*
X001607Y018599D01*
X001506Y018699D01*
X001707Y018699D01*
X001707Y018511D02*
X001707Y018378D01*
X001707Y018444D02*
X001506Y018444D01*
X001573Y018378D01*
X001540Y018290D02*
X001673Y018157D01*
X001707Y018190D01*
X001707Y018257D01*
X001673Y018290D01*
X001540Y018290D01*
X001506Y018257D01*
X001506Y018190D01*
X001540Y018157D01*
X001673Y018157D01*
X001707Y018069D02*
X001707Y017936D01*
X001573Y018069D01*
X001540Y018069D01*
X001506Y018036D01*
X001506Y017969D01*
X001540Y017936D01*
X001967Y017671D02*
X001967Y017604D01*
D12*
X003575Y014960D02*
X003461Y014846D01*
X003461Y014620D01*
X003461Y014790D02*
X003688Y014790D01*
X003688Y014846D02*
X003688Y014620D01*
X003830Y014620D02*
X003830Y014846D01*
X004000Y014846D01*
X004057Y014790D01*
X004057Y014620D01*
X004255Y014676D02*
X004255Y014903D01*
X004311Y014846D02*
X004198Y014846D01*
X004255Y014676D02*
X004311Y014620D01*
X004444Y014620D02*
X004500Y014620D01*
X004500Y014676D01*
X004444Y014676D01*
X004444Y014620D01*
X004430Y014210D02*
X004316Y014210D01*
X004259Y014153D01*
X004259Y013926D01*
X004316Y013870D01*
X004430Y013870D01*
X004486Y013926D01*
X004486Y014153D02*
X004430Y014210D01*
X004118Y014153D02*
X004061Y014210D01*
X003948Y014210D01*
X003891Y014153D01*
X003891Y013926D01*
X003948Y013870D01*
X004061Y013870D01*
X004118Y013926D01*
X003750Y013983D02*
X003750Y014210D01*
X003750Y013983D02*
X003636Y013870D01*
X003523Y013983D01*
X003523Y014210D01*
X003688Y014846D02*
X003575Y014960D01*
X003580Y013460D02*
X003523Y013403D01*
X003523Y013176D01*
X003580Y013120D01*
X003693Y013120D01*
X003750Y013176D01*
X003750Y013290D01*
X003636Y013290D01*
X003750Y013403D02*
X003693Y013460D01*
X003580Y013460D01*
X003891Y013460D02*
X003891Y013120D01*
X004118Y013120D02*
X003891Y013460D01*
X004118Y013460D02*
X004118Y013120D01*
X004259Y013120D02*
X004259Y013460D01*
X004430Y013460D01*
X004486Y013403D01*
X004486Y013176D01*
X004430Y013120D01*
X004259Y013120D01*
X006227Y015546D02*
X007627Y015546D01*
X007644Y015548D01*
X007661Y015552D01*
X007677Y015559D01*
X007691Y015569D01*
X007704Y015582D01*
X007714Y015596D01*
X007721Y015612D01*
X007725Y015629D01*
X007727Y015646D01*
X007727Y015996D02*
X007727Y016096D01*
X007727Y016496D02*
X007727Y016596D01*
X007727Y016996D02*
X007727Y017096D01*
X007727Y017446D02*
X007725Y017463D01*
X007721Y017480D01*
X007714Y017496D01*
X007704Y017510D01*
X007691Y017523D01*
X007677Y017533D01*
X007661Y017540D01*
X007644Y017544D01*
X007627Y017546D01*
X006227Y017546D01*
X006210Y017544D01*
X006193Y017540D01*
X006177Y017533D01*
X006163Y017523D01*
X006150Y017510D01*
X006140Y017496D01*
X006133Y017480D01*
X006129Y017463D01*
X006127Y017446D01*
X006127Y017096D02*
X006127Y016996D01*
X006127Y016596D02*
X006127Y016496D01*
X006127Y016096D02*
X006127Y015996D01*
X006127Y015646D02*
X006129Y015629D01*
X006133Y015612D01*
X006140Y015596D01*
X006150Y015582D01*
X006163Y015569D01*
X006177Y015559D01*
X006193Y015552D01*
X006210Y015548D01*
X006227Y015546D01*
X007177Y015846D02*
X007179Y015870D01*
X007185Y015894D01*
X007194Y015916D01*
X007207Y015936D01*
X007223Y015954D01*
X007242Y015969D01*
X007263Y015982D01*
X007285Y015990D01*
X007309Y015995D01*
X007333Y015996D01*
X007357Y015993D01*
X007380Y015986D01*
X007402Y015976D01*
X007422Y015962D01*
X007439Y015945D01*
X007454Y015926D01*
X007465Y015905D01*
X007473Y015882D01*
X007477Y015858D01*
X007477Y015834D01*
X007473Y015810D01*
X007465Y015787D01*
X007454Y015766D01*
X007439Y015747D01*
X007422Y015730D01*
X007402Y015716D01*
X007380Y015706D01*
X007357Y015699D01*
X007333Y015696D01*
X007309Y015697D01*
X007285Y015702D01*
X007263Y015710D01*
X007242Y015723D01*
X007223Y015738D01*
X007207Y015756D01*
X007194Y015776D01*
X007185Y015798D01*
X007179Y015822D01*
X007177Y015846D01*
X008647Y017676D02*
X010847Y017676D01*
X010847Y018596D01*
X008647Y018596D01*
X008647Y017676D01*
X008647Y019016D02*
X010847Y019016D01*
X010847Y019936D01*
X008647Y019936D01*
X008647Y019016D01*
X011177Y019056D02*
X013377Y019056D01*
X013377Y019976D01*
X011177Y019976D01*
X011177Y019056D01*
X013027Y018396D02*
X013227Y018396D01*
X013227Y017896D01*
X015227Y017896D01*
X015227Y018396D01*
X015227Y018896D01*
X013227Y018896D01*
X013227Y018396D01*
X013557Y019046D02*
X015757Y019046D01*
X015757Y019966D01*
X013557Y019966D01*
X013557Y019046D01*
X015227Y018396D02*
X015427Y018396D01*
X018697Y019066D02*
X018697Y017666D01*
X018699Y017649D01*
X018703Y017632D01*
X018710Y017616D01*
X018720Y017602D01*
X018733Y017589D01*
X018747Y017579D01*
X018763Y017572D01*
X018780Y017568D01*
X018797Y017566D01*
X019147Y017566D02*
X019247Y017566D01*
X019647Y017566D02*
X019747Y017566D01*
X020147Y017566D02*
X020247Y017566D01*
X020597Y017566D02*
X020614Y017568D01*
X020631Y017572D01*
X020647Y017579D01*
X020661Y017589D01*
X020674Y017602D01*
X020684Y017616D01*
X020691Y017632D01*
X020695Y017649D01*
X020697Y017666D01*
X020697Y019066D01*
X020695Y019083D01*
X020691Y019100D01*
X020684Y019116D01*
X020674Y019130D01*
X020661Y019143D01*
X020647Y019153D01*
X020631Y019160D01*
X020614Y019164D01*
X020597Y019166D01*
X020247Y019166D02*
X020147Y019166D01*
X019747Y019166D02*
X019647Y019166D01*
X019247Y019166D02*
X019147Y019166D01*
X018797Y019166D02*
X018780Y019164D01*
X018763Y019160D01*
X018747Y019153D01*
X018733Y019143D01*
X018720Y019130D01*
X018710Y019116D01*
X018703Y019100D01*
X018699Y019083D01*
X018697Y019066D01*
X020247Y018766D02*
X020249Y018790D01*
X020255Y018814D01*
X020264Y018836D01*
X020277Y018856D01*
X020293Y018874D01*
X020312Y018889D01*
X020333Y018902D01*
X020355Y018910D01*
X020379Y018915D01*
X020403Y018916D01*
X020427Y018913D01*
X020450Y018906D01*
X020472Y018896D01*
X020492Y018882D01*
X020509Y018865D01*
X020524Y018846D01*
X020535Y018825D01*
X020543Y018802D01*
X020547Y018778D01*
X020547Y018754D01*
X020543Y018730D01*
X020535Y018707D01*
X020524Y018686D01*
X020509Y018667D01*
X020492Y018650D01*
X020472Y018636D01*
X020450Y018626D01*
X020427Y018619D01*
X020403Y018616D01*
X020379Y018617D01*
X020355Y018622D01*
X020333Y018630D01*
X020312Y018643D01*
X020293Y018658D01*
X020277Y018676D01*
X020264Y018696D01*
X020255Y018718D01*
X020249Y018742D01*
X020247Y018766D01*
X020293Y015236D02*
X020407Y015236D01*
X020463Y015180D01*
X020463Y015010D01*
X020463Y015123D02*
X020577Y015236D01*
X020577Y015010D02*
X020236Y015010D01*
X020236Y015180D01*
X020293Y015236D01*
X020236Y014868D02*
X020236Y014641D01*
X020577Y014641D01*
X020577Y014868D01*
X020407Y014755D02*
X020407Y014641D01*
X020520Y014500D02*
X020293Y014500D01*
X020236Y014443D01*
X020236Y014273D01*
X020577Y014273D01*
X020577Y014443D01*
X020520Y014500D01*
X020577Y014132D02*
X020236Y014132D01*
X020236Y013905D02*
X020577Y014132D01*
X020577Y013905D02*
X020236Y013905D01*
X020236Y013763D02*
X020236Y013536D01*
X020577Y013536D01*
X020577Y013763D01*
X020407Y013650D02*
X020407Y013536D01*
X020293Y013395D02*
X020520Y013168D01*
X020577Y013168D01*
X020577Y013395D01*
X020293Y013395D02*
X020236Y013395D01*
X020236Y013168D01*
X020236Y012658D02*
X020577Y012658D01*
X020236Y012431D01*
X020577Y012431D01*
X020520Y012290D02*
X020293Y012290D01*
X020236Y012233D01*
X020236Y012120D01*
X020293Y012063D01*
X020520Y012063D01*
X020577Y012120D01*
X020577Y012233D01*
X020520Y012290D01*
X020520Y011922D02*
X020293Y011922D01*
X020236Y011865D01*
X020236Y011752D01*
X020293Y011695D01*
X020520Y011695D01*
X020577Y011752D01*
X020577Y011865D01*
X020520Y011922D01*
X020236Y011553D02*
X020236Y011326D01*
X020577Y011326D01*
X020577Y011185D02*
X020577Y010958D01*
X020236Y010958D01*
X020236Y011185D01*
X020407Y011072D02*
X020407Y010958D01*
X020577Y010817D02*
X020577Y010590D01*
X020236Y010590D01*
X020236Y010448D02*
X020236Y010222D01*
X020577Y010222D01*
X020577Y010448D01*
X020407Y010335D02*
X020407Y010222D01*
X020236Y010080D02*
X020236Y009853D01*
X020236Y009967D02*
X020577Y009967D01*
X020407Y009343D02*
X020407Y009117D01*
X020407Y008607D02*
X020407Y008380D01*
X020350Y008380D02*
X020236Y008493D01*
X020350Y008607D01*
X020577Y008607D01*
X020577Y008380D02*
X020350Y008380D01*
X020293Y008239D02*
X020236Y008182D01*
X020236Y008068D01*
X020293Y008012D01*
X020350Y008012D01*
X020407Y008068D01*
X020407Y008182D01*
X020463Y008239D01*
X020520Y008239D01*
X020577Y008182D01*
X020577Y008068D01*
X020520Y008012D01*
X020577Y007880D02*
X020577Y007766D01*
X020577Y007823D02*
X020236Y007823D01*
X020236Y007766D02*
X020236Y007880D01*
X018053Y007115D02*
X018053Y004355D01*
X015433Y004355D01*
X015293Y004494D01*
X015293Y007115D01*
X018053Y007115D01*
X015452Y004655D02*
X015454Y004678D01*
X015460Y004701D01*
X015469Y004722D01*
X015482Y004742D01*
X015498Y004759D01*
X015516Y004773D01*
X015536Y004784D01*
X015558Y004792D01*
X015581Y004796D01*
X015605Y004796D01*
X015628Y004792D01*
X015650Y004784D01*
X015670Y004773D01*
X015688Y004759D01*
X015704Y004742D01*
X015717Y004722D01*
X015726Y004701D01*
X015732Y004678D01*
X015734Y004655D01*
X015732Y004632D01*
X015726Y004609D01*
X015717Y004588D01*
X015704Y004568D01*
X015688Y004551D01*
X015670Y004537D01*
X015650Y004526D01*
X015628Y004518D01*
X015605Y004514D01*
X015581Y004514D01*
X015558Y004518D01*
X015536Y004526D01*
X015516Y004537D01*
X015498Y004551D01*
X015482Y004568D01*
X015469Y004588D01*
X015460Y004609D01*
X015454Y004632D01*
X015452Y004655D01*
X015217Y002068D02*
X014717Y002068D01*
X014467Y001818D01*
X014217Y002068D01*
X013717Y002068D01*
X013467Y001818D01*
X013217Y002068D01*
X012717Y002068D01*
X012467Y001818D01*
X012217Y002068D01*
X011717Y002068D01*
X011467Y001818D01*
X011467Y001318D01*
X011717Y001068D01*
X012217Y001068D01*
X012467Y001318D01*
X012717Y001068D01*
X013217Y001068D01*
X013467Y001318D01*
X013717Y001068D01*
X014217Y001068D01*
X014467Y001318D01*
X014717Y001068D01*
X015217Y001068D01*
X015467Y001318D01*
X015717Y001068D01*
X016217Y001068D01*
X016467Y001318D01*
X016717Y001068D01*
X017217Y001068D01*
X017467Y001318D01*
X017467Y001818D01*
X017217Y002068D01*
X016717Y002068D01*
X016467Y001818D01*
X016217Y002068D01*
X015717Y002068D01*
X015467Y001818D01*
X015217Y002068D01*
X010577Y007946D02*
X010577Y008060D01*
X010577Y008003D02*
X010236Y008003D01*
X010236Y007946D02*
X010236Y008060D01*
X010293Y008192D02*
X010350Y008192D01*
X010407Y008248D01*
X010407Y008362D01*
X010463Y008419D01*
X010520Y008419D01*
X010577Y008362D01*
X010577Y008248D01*
X010520Y008192D01*
X010293Y008192D02*
X010236Y008248D01*
X010236Y008362D01*
X010293Y008419D01*
X010350Y008560D02*
X010236Y008673D01*
X010350Y008787D01*
X010577Y008787D01*
X010407Y008787D02*
X010407Y008560D01*
X010350Y008560D02*
X010577Y008560D01*
X010407Y009297D02*
X010407Y009523D01*
X010236Y010033D02*
X010577Y010033D01*
X010577Y010203D01*
X010520Y010260D01*
X010293Y010260D01*
X010236Y010203D01*
X010236Y010033D01*
X010236Y010402D02*
X010577Y010402D01*
X010577Y010628D01*
X010520Y010770D02*
X010236Y010770D01*
X010236Y010628D02*
X010236Y010402D01*
X010407Y010402D02*
X010407Y010515D01*
X010520Y010770D02*
X010577Y010827D01*
X010577Y010940D01*
X010520Y010997D01*
X010236Y010997D01*
X010236Y011138D02*
X010236Y011308D01*
X010293Y011365D01*
X010407Y011365D01*
X010463Y011308D01*
X010463Y011138D01*
X010463Y011252D02*
X010577Y011365D01*
X010577Y011506D02*
X010236Y011506D01*
X010236Y011677D01*
X010293Y011733D01*
X010350Y011733D01*
X010407Y011677D01*
X010407Y011506D01*
X010577Y011506D02*
X010577Y011677D01*
X010520Y011733D01*
X010463Y011733D01*
X010407Y011677D01*
X010407Y011875D02*
X010407Y011988D01*
X010236Y011875D02*
X010577Y011875D01*
X010577Y012102D01*
X010577Y012243D02*
X010236Y012243D01*
X010236Y012102D02*
X010236Y011875D01*
X010577Y012243D02*
X010577Y012470D01*
X010577Y012980D02*
X010577Y013207D01*
X010577Y013348D02*
X010236Y013348D01*
X010236Y013575D01*
X010236Y013716D02*
X010577Y013943D01*
X010236Y013943D01*
X010236Y014085D02*
X010236Y014255D01*
X010293Y014312D01*
X010520Y014312D01*
X010577Y014255D01*
X010577Y014085D01*
X010236Y014085D01*
X010236Y014453D02*
X010577Y014453D01*
X010577Y014680D01*
X010577Y014821D02*
X010236Y014821D01*
X010236Y014991D01*
X010293Y015048D01*
X010407Y015048D01*
X010463Y014991D01*
X010463Y014821D01*
X010463Y014935D02*
X010577Y015048D01*
X010236Y014680D02*
X010236Y014453D01*
X010407Y014453D02*
X010407Y014566D01*
X010577Y013716D02*
X010236Y013716D01*
X010407Y013461D02*
X010407Y013348D01*
X010577Y013348D02*
X010577Y013575D01*
X010293Y013207D02*
X010520Y012980D01*
X010577Y012980D01*
X010236Y012980D02*
X010236Y013207D01*
X010293Y013207D01*
X010236Y011138D02*
X010577Y011138D01*
X013592Y013143D02*
X013648Y013086D01*
X013762Y013086D01*
X013819Y013143D01*
X013819Y013256D01*
X013705Y013256D01*
X013592Y013143D02*
X013592Y013370D01*
X013648Y013426D01*
X013762Y013426D01*
X013819Y013370D01*
X013960Y013426D02*
X013960Y013086D01*
X014187Y013086D02*
X013960Y013426D01*
X014187Y013426D02*
X014187Y013086D01*
X014328Y013086D02*
X014498Y013086D01*
X014555Y013143D01*
X014555Y013370D01*
X014498Y013426D01*
X014328Y013426D01*
X014328Y013086D01*
X014385Y013836D02*
X014498Y013836D01*
X014555Y013893D01*
X014385Y013836D02*
X014328Y013893D01*
X014328Y014120D01*
X014385Y014176D01*
X014498Y014176D01*
X014555Y014120D01*
X014187Y014120D02*
X014130Y014176D01*
X014017Y014176D01*
X013960Y014120D01*
X013960Y013893D01*
X014017Y013836D01*
X014130Y013836D01*
X014187Y013893D01*
X013819Y013950D02*
X013819Y014176D01*
X013819Y013950D02*
X013705Y013836D01*
X013592Y013950D01*
X013592Y014176D01*
X013530Y014586D02*
X013530Y014813D01*
X013644Y014926D01*
X013757Y014813D01*
X013757Y014586D01*
X013899Y014586D02*
X013899Y014813D01*
X014069Y014813D01*
X014126Y014756D01*
X014126Y014586D01*
X014324Y014643D02*
X014324Y014870D01*
X014380Y014813D02*
X014267Y014813D01*
X014324Y014643D02*
X014380Y014586D01*
X014513Y014586D02*
X014569Y014586D01*
X014569Y014643D01*
X014513Y014643D01*
X014513Y014586D01*
X013757Y014756D02*
X013530Y014756D01*
X020407Y011440D02*
X020407Y011326D01*
X008153Y007115D02*
X008153Y004355D01*
X005533Y004355D01*
X005393Y004494D01*
X005393Y007115D01*
X008153Y007115D01*
X005552Y004655D02*
X005554Y004678D01*
X005560Y004701D01*
X005569Y004722D01*
X005582Y004742D01*
X005598Y004759D01*
X005616Y004773D01*
X005636Y004784D01*
X005658Y004792D01*
X005681Y004796D01*
X005705Y004796D01*
X005728Y004792D01*
X005750Y004784D01*
X005770Y004773D01*
X005788Y004759D01*
X005804Y004742D01*
X005817Y004722D01*
X005826Y004701D01*
X005832Y004678D01*
X005834Y004655D01*
X005832Y004632D01*
X005826Y004609D01*
X005817Y004588D01*
X005804Y004568D01*
X005788Y004551D01*
X005770Y004537D01*
X005750Y004526D01*
X005728Y004518D01*
X005705Y004514D01*
X005681Y004514D01*
X005658Y004518D01*
X005636Y004526D01*
X005616Y004537D01*
X005598Y004551D01*
X005582Y004568D01*
X005569Y004588D01*
X005560Y004609D01*
X005554Y004632D01*
X005552Y004655D01*
X005398Y002045D02*
X004898Y002045D01*
X004648Y001795D01*
X004398Y002045D01*
X003898Y002045D01*
X003648Y001795D01*
X003398Y002045D01*
X002898Y002045D01*
X002648Y001795D01*
X002398Y002045D01*
X001898Y002045D01*
X001648Y001795D01*
X001648Y001295D01*
X001898Y001045D01*
X002398Y001045D01*
X002648Y001295D01*
X002898Y001045D01*
X003398Y001045D01*
X003648Y001295D01*
X003898Y001045D01*
X004398Y001045D01*
X004648Y001295D01*
X004898Y001045D01*
X005398Y001045D01*
X005648Y001295D01*
X005898Y001045D01*
X006398Y001045D01*
X006648Y001295D01*
X006898Y001045D01*
X007398Y001045D01*
X007648Y001295D01*
X007648Y001795D01*
X007398Y002045D01*
X006898Y002045D01*
X006648Y001795D01*
X006398Y002045D01*
X005898Y002045D01*
X005648Y001795D01*
X005398Y002045D01*
D13*
X002786Y003673D02*
X002786Y005839D01*
X002785Y005839D02*
X002784Y005856D01*
X002779Y005873D01*
X002772Y005888D01*
X002762Y005902D01*
X002750Y005914D01*
X002736Y005924D01*
X002721Y005931D01*
X002704Y005936D01*
X002687Y005937D01*
X002530Y005937D01*
X002392Y005347D02*
X001801Y005347D01*
X001801Y004166D01*
X002392Y004166D01*
X002392Y005347D01*
X001664Y005937D02*
X001506Y005937D01*
X001489Y005936D01*
X001472Y005931D01*
X001457Y005924D01*
X001443Y005914D01*
X001431Y005902D01*
X001421Y005888D01*
X001414Y005873D01*
X001409Y005856D01*
X001408Y005839D01*
X001408Y003713D01*
X001406Y003692D01*
X001408Y003671D01*
X001414Y003651D01*
X001423Y003632D01*
X001435Y003615D01*
X001450Y003600D01*
X001467Y003589D01*
X001486Y003580D01*
X001506Y003575D01*
X001664Y003575D01*
X002530Y003575D02*
X002687Y003575D01*
X002704Y003576D01*
X002721Y003581D01*
X002736Y003588D01*
X002750Y003598D01*
X002762Y003610D01*
X002772Y003624D01*
X002779Y003639D01*
X002784Y003656D01*
X002785Y003673D01*
X004001Y006141D02*
X004001Y006811D01*
X004513Y006811D01*
X004513Y006141D01*
X004001Y006141D01*
X004020Y006319D02*
X004020Y006358D01*
X004493Y006358D01*
X004493Y006319D02*
X004020Y006319D01*
X001117Y007006D02*
X001122Y007217D01*
X001138Y007427D01*
X001164Y007637D01*
X001200Y007845D01*
X001246Y008051D01*
X001302Y008254D01*
X001368Y008455D01*
X001444Y008652D01*
X001530Y008844D01*
X001625Y009033D01*
X001729Y009217D01*
X001842Y009395D01*
X001963Y009568D01*
X002093Y009734D01*
X002231Y009894D01*
X002376Y010047D01*
X002529Y010192D01*
X002689Y010330D01*
X002855Y010460D01*
X003028Y010581D01*
X003206Y010694D01*
X003390Y010798D01*
X003579Y010893D01*
X003771Y010979D01*
X003968Y011055D01*
X004169Y011121D01*
X004372Y011177D01*
X004578Y011223D01*
X004786Y011259D01*
X004996Y011285D01*
X005206Y011301D01*
X005417Y011306D01*
X005628Y011301D01*
X005838Y011285D01*
X006048Y011259D01*
X006256Y011223D01*
X006462Y011177D01*
X006665Y011121D01*
X006866Y011055D01*
X007063Y010979D01*
X007255Y010893D01*
X007444Y010798D01*
X007628Y010694D01*
X007806Y010581D01*
X007979Y010460D01*
X008145Y010330D01*
X008305Y010192D01*
X008458Y010047D01*
X008603Y009894D01*
X008741Y009734D01*
X008871Y009568D01*
X008992Y009395D01*
X009105Y009217D01*
X009209Y009033D01*
X009304Y008844D01*
X009390Y008652D01*
X009466Y008455D01*
X009532Y008254D01*
X009588Y008051D01*
X009634Y007845D01*
X009670Y007637D01*
X009696Y007427D01*
X009712Y007217D01*
X009717Y007006D01*
X009712Y006795D01*
X009696Y006585D01*
X009670Y006375D01*
X009634Y006167D01*
X009588Y005961D01*
X009532Y005758D01*
X009466Y005557D01*
X009390Y005360D01*
X009304Y005168D01*
X009209Y004979D01*
X009105Y004795D01*
X008992Y004617D01*
X008871Y004444D01*
X008741Y004278D01*
X008603Y004118D01*
X008458Y003965D01*
X008305Y003820D01*
X008145Y003682D01*
X007979Y003552D01*
X007806Y003431D01*
X007628Y003318D01*
X007444Y003214D01*
X007255Y003119D01*
X007063Y003033D01*
X006866Y002957D01*
X006665Y002891D01*
X006462Y002835D01*
X006256Y002789D01*
X006048Y002753D01*
X005838Y002727D01*
X005628Y002711D01*
X005417Y002706D01*
X005206Y002711D01*
X004996Y002727D01*
X004786Y002753D01*
X004578Y002789D01*
X004372Y002835D01*
X004169Y002891D01*
X003968Y002957D01*
X003771Y003033D01*
X003579Y003119D01*
X003390Y003214D01*
X003206Y003318D01*
X003028Y003431D01*
X002855Y003552D01*
X002689Y003682D01*
X002529Y003820D01*
X002376Y003965D01*
X002231Y004118D01*
X002093Y004278D01*
X001963Y004444D01*
X001842Y004617D01*
X001729Y004795D01*
X001625Y004979D01*
X001530Y005168D01*
X001444Y005360D01*
X001368Y005557D01*
X001302Y005758D01*
X001246Y005961D01*
X001200Y006167D01*
X001164Y006375D01*
X001138Y006585D01*
X001122Y006795D01*
X001117Y007006D01*
X003145Y009734D02*
X009051Y009734D01*
X008348Y010990D02*
X008348Y012990D01*
X008354Y013048D01*
X008357Y013106D01*
X008356Y013164D01*
X008350Y013222D01*
X008342Y013280D01*
X008329Y013337D01*
X008312Y013392D01*
X008292Y013447D01*
X008269Y013500D01*
X008242Y013552D01*
X008211Y013601D01*
X008177Y013649D01*
X008141Y013694D01*
X008101Y013737D01*
X008059Y013777D01*
X008014Y013814D01*
X007967Y013848D01*
X007918Y013879D01*
X007866Y013907D01*
X007813Y013931D01*
X007759Y013951D01*
X007703Y013968D01*
X007647Y013982D01*
X007589Y013991D01*
X007531Y013997D01*
X007473Y013999D01*
X007415Y013997D01*
X007357Y013991D01*
X007299Y013982D01*
X007243Y013968D01*
X007187Y013951D01*
X007133Y013931D01*
X007080Y013907D01*
X007028Y013879D01*
X006979Y013848D01*
X006932Y013814D01*
X006887Y013777D01*
X006845Y013737D01*
X006805Y013694D01*
X006769Y013649D01*
X006735Y013601D01*
X006704Y013552D01*
X006677Y013500D01*
X006654Y013447D01*
X006634Y013392D01*
X006617Y013337D01*
X006604Y013280D01*
X006596Y013222D01*
X006590Y013164D01*
X006589Y013106D01*
X006592Y013048D01*
X006598Y012990D01*
X006598Y010990D01*
X006600Y010932D01*
X006606Y010873D01*
X006616Y010816D01*
X006629Y010759D01*
X006646Y010703D01*
X006667Y010648D01*
X006692Y010595D01*
X006720Y010544D01*
X006752Y010495D01*
X006786Y010448D01*
X006824Y010403D01*
X006865Y010361D01*
X006908Y010322D01*
X006954Y010286D01*
X007002Y010252D01*
X007052Y010223D01*
X007105Y010196D01*
X007159Y010173D01*
X007214Y010154D01*
X007270Y010139D01*
X007327Y010127D01*
X007385Y010119D01*
X007444Y010115D01*
X007502Y010115D01*
X007561Y010119D01*
X007619Y010127D01*
X007676Y010139D01*
X007732Y010154D01*
X007787Y010173D01*
X007841Y010196D01*
X007894Y010223D01*
X007944Y010252D01*
X007992Y010286D01*
X008038Y010322D01*
X008081Y010361D01*
X008122Y010403D01*
X008160Y010448D01*
X008194Y010495D01*
X008226Y010544D01*
X008254Y010595D01*
X008279Y010648D01*
X008300Y010703D01*
X008317Y010759D01*
X008330Y010816D01*
X008340Y010873D01*
X008346Y010932D01*
X008348Y010990D01*
X009517Y008256D02*
X011017Y008256D01*
X011017Y005756D01*
X009517Y005756D01*
X011278Y005839D02*
X011278Y003713D01*
X011276Y003692D01*
X011278Y003671D01*
X011284Y003651D01*
X011293Y003632D01*
X011305Y003615D01*
X011320Y003600D01*
X011337Y003589D01*
X011356Y003580D01*
X011376Y003575D01*
X011534Y003575D01*
X011671Y004166D02*
X012262Y004166D01*
X012262Y005347D01*
X011671Y005347D01*
X011671Y004166D01*
X012400Y003575D02*
X012557Y003575D01*
X012574Y003576D01*
X012591Y003581D01*
X012606Y003588D01*
X012620Y003598D01*
X012632Y003610D01*
X012642Y003624D01*
X012649Y003639D01*
X012654Y003656D01*
X012655Y003673D01*
X012656Y003673D02*
X012656Y005839D01*
X012655Y005839D02*
X012654Y005856D01*
X012649Y005873D01*
X012642Y005888D01*
X012632Y005902D01*
X012620Y005914D01*
X012606Y005924D01*
X012591Y005931D01*
X012574Y005936D01*
X012557Y005937D01*
X012400Y005937D01*
X011534Y005937D02*
X011376Y005937D01*
X011359Y005936D01*
X011342Y005931D01*
X011327Y005924D01*
X011313Y005914D01*
X011301Y005902D01*
X011291Y005888D01*
X011284Y005873D01*
X011279Y005856D01*
X011278Y005839D01*
X013861Y006171D02*
X013861Y006841D01*
X014373Y006841D01*
X014373Y006171D01*
X013861Y006171D01*
X013880Y006349D02*
X013880Y006388D01*
X014353Y006388D01*
X014353Y006349D02*
X013880Y006349D01*
X010967Y007006D02*
X010972Y007217D01*
X010988Y007427D01*
X011014Y007637D01*
X011050Y007845D01*
X011096Y008051D01*
X011152Y008254D01*
X011218Y008455D01*
X011294Y008652D01*
X011380Y008844D01*
X011475Y009033D01*
X011579Y009217D01*
X011692Y009395D01*
X011813Y009568D01*
X011943Y009734D01*
X012081Y009894D01*
X012226Y010047D01*
X012379Y010192D01*
X012539Y010330D01*
X012705Y010460D01*
X012878Y010581D01*
X013056Y010694D01*
X013240Y010798D01*
X013429Y010893D01*
X013621Y010979D01*
X013818Y011055D01*
X014019Y011121D01*
X014222Y011177D01*
X014428Y011223D01*
X014636Y011259D01*
X014846Y011285D01*
X015056Y011301D01*
X015267Y011306D01*
X015478Y011301D01*
X015688Y011285D01*
X015898Y011259D01*
X016106Y011223D01*
X016312Y011177D01*
X016515Y011121D01*
X016716Y011055D01*
X016913Y010979D01*
X017105Y010893D01*
X017294Y010798D01*
X017478Y010694D01*
X017656Y010581D01*
X017829Y010460D01*
X017995Y010330D01*
X018155Y010192D01*
X018308Y010047D01*
X018453Y009894D01*
X018591Y009734D01*
X018721Y009568D01*
X018842Y009395D01*
X018955Y009217D01*
X019059Y009033D01*
X019154Y008844D01*
X019240Y008652D01*
X019316Y008455D01*
X019382Y008254D01*
X019438Y008051D01*
X019484Y007845D01*
X019520Y007637D01*
X019546Y007427D01*
X019562Y007217D01*
X019567Y007006D01*
X019562Y006795D01*
X019546Y006585D01*
X019520Y006375D01*
X019484Y006167D01*
X019438Y005961D01*
X019382Y005758D01*
X019316Y005557D01*
X019240Y005360D01*
X019154Y005168D01*
X019059Y004979D01*
X018955Y004795D01*
X018842Y004617D01*
X018721Y004444D01*
X018591Y004278D01*
X018453Y004118D01*
X018308Y003965D01*
X018155Y003820D01*
X017995Y003682D01*
X017829Y003552D01*
X017656Y003431D01*
X017478Y003318D01*
X017294Y003214D01*
X017105Y003119D01*
X016913Y003033D01*
X016716Y002957D01*
X016515Y002891D01*
X016312Y002835D01*
X016106Y002789D01*
X015898Y002753D01*
X015688Y002727D01*
X015478Y002711D01*
X015267Y002706D01*
X015056Y002711D01*
X014846Y002727D01*
X014636Y002753D01*
X014428Y002789D01*
X014222Y002835D01*
X014019Y002891D01*
X013818Y002957D01*
X013621Y003033D01*
X013429Y003119D01*
X013240Y003214D01*
X013056Y003318D01*
X012878Y003431D01*
X012705Y003552D01*
X012539Y003682D01*
X012379Y003820D01*
X012226Y003965D01*
X012081Y004118D01*
X011943Y004278D01*
X011813Y004444D01*
X011692Y004617D01*
X011579Y004795D01*
X011475Y004979D01*
X011380Y005168D01*
X011294Y005360D01*
X011218Y005557D01*
X011152Y005758D01*
X011096Y005961D01*
X011050Y006167D01*
X011014Y006375D01*
X010988Y006585D01*
X010972Y006795D01*
X010967Y007006D01*
X013214Y009700D02*
X019119Y009700D01*
X018417Y010956D02*
X018417Y012956D01*
X018423Y013014D01*
X018426Y013072D01*
X018425Y013130D01*
X018419Y013188D01*
X018411Y013246D01*
X018398Y013303D01*
X018381Y013358D01*
X018361Y013413D01*
X018338Y013466D01*
X018311Y013518D01*
X018280Y013567D01*
X018246Y013615D01*
X018210Y013660D01*
X018170Y013703D01*
X018128Y013743D01*
X018083Y013780D01*
X018036Y013814D01*
X017987Y013845D01*
X017935Y013873D01*
X017882Y013897D01*
X017828Y013917D01*
X017772Y013934D01*
X017716Y013948D01*
X017658Y013957D01*
X017600Y013963D01*
X017542Y013965D01*
X017484Y013963D01*
X017426Y013957D01*
X017368Y013948D01*
X017312Y013934D01*
X017256Y013917D01*
X017202Y013897D01*
X017149Y013873D01*
X017097Y013845D01*
X017048Y013814D01*
X017001Y013780D01*
X016956Y013743D01*
X016914Y013703D01*
X016874Y013660D01*
X016838Y013615D01*
X016804Y013567D01*
X016773Y013518D01*
X016746Y013466D01*
X016723Y013413D01*
X016703Y013358D01*
X016686Y013303D01*
X016673Y013246D01*
X016665Y013188D01*
X016659Y013130D01*
X016658Y013072D01*
X016661Y013014D01*
X016667Y012956D01*
X016667Y010956D01*
X016669Y010898D01*
X016675Y010839D01*
X016685Y010782D01*
X016698Y010725D01*
X016715Y010669D01*
X016736Y010614D01*
X016761Y010561D01*
X016789Y010510D01*
X016821Y010461D01*
X016855Y010414D01*
X016893Y010369D01*
X016934Y010327D01*
X016977Y010288D01*
X017023Y010252D01*
X017071Y010218D01*
X017121Y010189D01*
X017174Y010162D01*
X017228Y010139D01*
X017283Y010120D01*
X017339Y010105D01*
X017396Y010093D01*
X017454Y010085D01*
X017513Y010081D01*
X017571Y010081D01*
X017630Y010085D01*
X017688Y010093D01*
X017745Y010105D01*
X017801Y010120D01*
X017856Y010139D01*
X017910Y010162D01*
X017963Y010189D01*
X018013Y010218D01*
X018061Y010252D01*
X018107Y010288D01*
X018150Y010327D01*
X018191Y010369D01*
X018229Y010414D01*
X018263Y010461D01*
X018295Y010510D01*
X018323Y010561D01*
X018348Y010614D01*
X018369Y010669D01*
X018386Y010725D01*
X018399Y010782D01*
X018409Y010839D01*
X018415Y010898D01*
X018417Y010956D01*
X019367Y008256D02*
X020867Y008256D01*
X020867Y005756D01*
X019367Y005756D01*
X019367Y014606D02*
X020867Y014606D01*
X020867Y017106D01*
X019367Y017106D01*
X018560Y017172D02*
X018560Y016621D01*
X018088Y016621D01*
X016982Y016621D02*
X016513Y016621D01*
X016513Y017172D01*
X016513Y018392D02*
X016513Y018668D01*
X016710Y018668D01*
X018361Y018668D02*
X018560Y018668D01*
X018560Y018392D01*
X019119Y015212D02*
X013214Y015212D01*
X010967Y015856D02*
X010972Y016067D01*
X010988Y016277D01*
X011014Y016487D01*
X011050Y016695D01*
X011096Y016901D01*
X011152Y017104D01*
X011218Y017305D01*
X011294Y017502D01*
X011380Y017694D01*
X011475Y017883D01*
X011579Y018067D01*
X011692Y018245D01*
X011813Y018418D01*
X011943Y018584D01*
X012081Y018744D01*
X012226Y018897D01*
X012379Y019042D01*
X012539Y019180D01*
X012705Y019310D01*
X012878Y019431D01*
X013056Y019544D01*
X013240Y019648D01*
X013429Y019743D01*
X013621Y019829D01*
X013818Y019905D01*
X014019Y019971D01*
X014222Y020027D01*
X014428Y020073D01*
X014636Y020109D01*
X014846Y020135D01*
X015056Y020151D01*
X015267Y020156D01*
X015478Y020151D01*
X015688Y020135D01*
X015898Y020109D01*
X016106Y020073D01*
X016312Y020027D01*
X016515Y019971D01*
X016716Y019905D01*
X016913Y019829D01*
X017105Y019743D01*
X017294Y019648D01*
X017478Y019544D01*
X017656Y019431D01*
X017829Y019310D01*
X017995Y019180D01*
X018155Y019042D01*
X018308Y018897D01*
X018453Y018744D01*
X018591Y018584D01*
X018721Y018418D01*
X018842Y018245D01*
X018955Y018067D01*
X019059Y017883D01*
X019154Y017694D01*
X019240Y017502D01*
X019316Y017305D01*
X019382Y017104D01*
X019438Y016901D01*
X019484Y016695D01*
X019520Y016487D01*
X019546Y016277D01*
X019562Y016067D01*
X019567Y015856D01*
X019562Y015645D01*
X019546Y015435D01*
X019520Y015225D01*
X019484Y015017D01*
X019438Y014811D01*
X019382Y014608D01*
X019316Y014407D01*
X019240Y014210D01*
X019154Y014018D01*
X019059Y013829D01*
X018955Y013645D01*
X018842Y013467D01*
X018721Y013294D01*
X018591Y013128D01*
X018453Y012968D01*
X018308Y012815D01*
X018155Y012670D01*
X017995Y012532D01*
X017829Y012402D01*
X017656Y012281D01*
X017478Y012168D01*
X017294Y012064D01*
X017105Y011969D01*
X016913Y011883D01*
X016716Y011807D01*
X016515Y011741D01*
X016312Y011685D01*
X016106Y011639D01*
X015898Y011603D01*
X015688Y011577D01*
X015478Y011561D01*
X015267Y011556D01*
X015056Y011561D01*
X014846Y011577D01*
X014636Y011603D01*
X014428Y011639D01*
X014222Y011685D01*
X014019Y011741D01*
X013818Y011807D01*
X013621Y011883D01*
X013429Y011969D01*
X013240Y012064D01*
X013056Y012168D01*
X012878Y012281D01*
X012705Y012402D01*
X012539Y012532D01*
X012379Y012670D01*
X012226Y012815D01*
X012081Y012968D01*
X011943Y013128D01*
X011813Y013294D01*
X011692Y013467D01*
X011579Y013645D01*
X011475Y013829D01*
X011380Y014018D01*
X011294Y014210D01*
X011218Y014407D01*
X011152Y014608D01*
X011096Y014811D01*
X011050Y015017D01*
X011014Y015225D01*
X010988Y015435D01*
X010972Y015645D01*
X010967Y015856D01*
X011017Y014606D02*
X011017Y017106D01*
X009517Y017106D01*
X009051Y015246D02*
X003145Y015246D01*
X001117Y015856D02*
X001122Y016067D01*
X001138Y016277D01*
X001164Y016487D01*
X001200Y016695D01*
X001246Y016901D01*
X001302Y017104D01*
X001368Y017305D01*
X001444Y017502D01*
X001530Y017694D01*
X001625Y017883D01*
X001729Y018067D01*
X001842Y018245D01*
X001963Y018418D01*
X002093Y018584D01*
X002231Y018744D01*
X002376Y018897D01*
X002529Y019042D01*
X002689Y019180D01*
X002855Y019310D01*
X003028Y019431D01*
X003206Y019544D01*
X003390Y019648D01*
X003579Y019743D01*
X003771Y019829D01*
X003968Y019905D01*
X004169Y019971D01*
X004372Y020027D01*
X004578Y020073D01*
X004786Y020109D01*
X004996Y020135D01*
X005206Y020151D01*
X005417Y020156D01*
X005628Y020151D01*
X005838Y020135D01*
X006048Y020109D01*
X006256Y020073D01*
X006462Y020027D01*
X006665Y019971D01*
X006866Y019905D01*
X007063Y019829D01*
X007255Y019743D01*
X007444Y019648D01*
X007628Y019544D01*
X007806Y019431D01*
X007979Y019310D01*
X008145Y019180D01*
X008305Y019042D01*
X008458Y018897D01*
X008603Y018744D01*
X008741Y018584D01*
X008871Y018418D01*
X008992Y018245D01*
X009105Y018067D01*
X009209Y017883D01*
X009304Y017694D01*
X009390Y017502D01*
X009466Y017305D01*
X009532Y017104D01*
X009588Y016901D01*
X009634Y016695D01*
X009670Y016487D01*
X009696Y016277D01*
X009712Y016067D01*
X009717Y015856D01*
X009712Y015645D01*
X009696Y015435D01*
X009670Y015225D01*
X009634Y015017D01*
X009588Y014811D01*
X009532Y014608D01*
X009466Y014407D01*
X009390Y014210D01*
X009304Y014018D01*
X009209Y013829D01*
X009105Y013645D01*
X008992Y013467D01*
X008871Y013294D01*
X008741Y013128D01*
X008603Y012968D01*
X008458Y012815D01*
X008305Y012670D01*
X008145Y012532D01*
X007979Y012402D01*
X007806Y012281D01*
X007628Y012168D01*
X007444Y012064D01*
X007255Y011969D01*
X007063Y011883D01*
X006866Y011807D01*
X006665Y011741D01*
X006462Y011685D01*
X006256Y011639D01*
X006048Y011603D01*
X005838Y011577D01*
X005628Y011561D01*
X005417Y011556D01*
X005206Y011561D01*
X004996Y011577D01*
X004786Y011603D01*
X004578Y011639D01*
X004372Y011685D01*
X004169Y011741D01*
X003968Y011807D01*
X003771Y011883D01*
X003579Y011969D01*
X003390Y012064D01*
X003206Y012168D01*
X003028Y012281D01*
X002855Y012402D01*
X002689Y012532D01*
X002529Y012670D01*
X002376Y012815D01*
X002231Y012968D01*
X002093Y013128D01*
X001963Y013294D01*
X001842Y013467D01*
X001729Y013645D01*
X001625Y013829D01*
X001530Y014018D01*
X001444Y014210D01*
X001368Y014407D01*
X001302Y014608D01*
X001246Y014811D01*
X001200Y015017D01*
X001164Y015225D01*
X001138Y015435D01*
X001122Y015645D01*
X001117Y015856D01*
X005085Y017822D02*
X005360Y017822D01*
X005085Y017822D02*
X005085Y018019D01*
X006581Y017822D02*
X007132Y017822D01*
X007132Y018291D01*
X007132Y019397D02*
X007132Y019870D01*
X006581Y019870D01*
X005360Y019870D02*
X005085Y019870D01*
X005085Y019671D01*
X009517Y014606D02*
X011017Y014606D01*
D14*
X007557Y015546D02*
X007557Y017546D01*
X018697Y018996D02*
X020697Y018996D01*
D15*
X014241Y017226D03*
X014231Y015936D03*
D16*
X015867Y016791D03*
X011757Y017961D03*
M02*
