%
M48
M72
T01C0.0200
T02C0.0320
T03C0.0354
T04C0.0400
T05C0.0500
%
T01
X3487Y17016
X1807Y13256
X1537Y6976
X6267Y5856
X15967Y5756
X12567Y6006
X11667Y13256
X18507Y16836
X2817Y7856
X7947Y6206
X4877Y4212
X9663Y4232
X3945Y5202
X13767Y5136
X5727Y8196
X9657Y8926
X3427Y8196
X13667Y8106
X15567Y8906
X19717Y8906
X7227Y2496
X17427Y2436
X3763Y11702
X9030Y6269
X9247Y9437
X8966Y6835
X8167Y8056
X3775Y10915
X4337Y7706
X7167Y6756
X17817Y6206
X12617Y7956
X14443Y4632
X19527Y4652
X18857Y6356
X13804Y11669
X19316Y9506
X18857Y6837
X13842Y10881
X17967Y8056
X17017Y6806
X14117Y7556
X14667Y18456
X14967Y15156
X14427Y14796
X19707Y18576
X17067Y18216
T02
X16887Y19566
X17887Y19566
X12727Y18396
X15727Y18396
T03
X1676Y14828
X11567Y14806
T04
X7148Y1545
X6148Y1545
X5148Y1545
X4148Y1545
X3148Y1545
X2148Y1545
X8355Y1550
X8355Y2550
X9355Y1550
X9355Y2550
X10355Y1550
X10355Y2550
X16967Y1568
X15967Y1568
X14967Y1568
X13967Y1568
X12967Y1568
X11967Y1568
X18135Y1596
X18135Y2596
X19135Y1596
X19135Y2596
X20135Y1596
X20135Y2596
T05
X2267Y7006
X10267Y7006
X2267Y15856
X10267Y15856
X12117Y7006
X20117Y7006
X12117Y15856
X20117Y15856
M30
