%
M48
M72
T01C0.0200
T02C0.0320
T03C0.0354
T04C0.0400
T05C0.0500
%
T01
X1807Y14156
X1537Y7876
X6267Y6756
X15967Y6656
X12567Y6906
X11667Y14156
X18507Y17736
X2817Y8756
X7947Y7106
X4877Y5112
X9663Y5132
X3945Y6102
X13767Y6036
X5727Y9096
X9657Y9826
X3427Y9096
X13667Y9006
X15567Y9806
X19717Y9806
X7227Y3396
X17427Y3336
X3763Y12602
X9030Y7169
X9247Y10337
X8966Y7735
X8167Y8956
X3775Y11815
X4337Y8606
X7167Y7656
X17817Y7106
X12617Y8856
X14443Y5532
X19527Y5552
X18857Y7256
X13804Y12568
X19316Y10405
X18857Y7737
X13842Y11781
X17967Y8956
X17017Y7706
X14117Y8456
X14667Y19356
X14967Y16056
X14427Y15696
X19707Y19476
X17067Y19116
T02
X16887Y20466
X17887Y20466
X12727Y19296
X15727Y19296
T03
X1676Y15727
X11567Y15706
T04
X7148Y2444
X6148Y2444
X5148Y2444
X4148Y2444
X3148Y2444
X2148Y2444
X8355Y2450
X8355Y3450
X9355Y2450
X9355Y3450
X10355Y2450
X10355Y3450
X16967Y2467
X15967Y2467
X14967Y2467
X13967Y2467
X12967Y2467
X11967Y2467
X18135Y2496
X18135Y3496
X19135Y2496
X19135Y3496
X20135Y2496
X20135Y3496
T05
X2267Y7906
X10267Y7906
X2267Y16756
X10267Y16756
X12117Y7906
X20117Y7906
X12117Y16756
X20117Y16756
M30
