G75*
G70*
%OFA0B0*%
%FSLAX24Y24*%
%IPPOS*%
%LPD*%
%AMOC8*
5,1,8,0,0,1.08239X$1,22.5*
%
%ADD10C,0.0100*%
%ADD11C,0.0040*%
%ADD12C,0.0600*%
%ADD13OC8,0.0630*%
%ADD14R,0.0600X0.0600*%
%ADD15OC8,0.0600*%
%ADD16C,0.0800*%
%ADD17OC8,0.0520*%
%ADD18C,0.0160*%
%ADD19C,0.0320*%
%ADD20C,0.0120*%
D10*
X001167Y000456D02*
X001167Y020131D01*
X020842Y020131D01*
X020842Y020156D01*
X020842Y020131D02*
X020842Y000456D01*
X001167Y000456D01*
X004148Y001545D02*
X004148Y004999D01*
X003945Y005202D01*
X012567Y006006D02*
X012817Y006256D01*
D11*
X011660Y009736D02*
X011727Y009803D01*
X011527Y009803D01*
X011527Y009736D02*
X011527Y009870D01*
X011367Y009803D02*
X011300Y009736D01*
X011167Y009736D01*
X011267Y009736D02*
X011267Y009870D01*
X011300Y009870D02*
X011167Y009870D01*
X011167Y009957D02*
X011300Y009957D01*
X011233Y009957D02*
X011300Y010024D01*
X011300Y010057D01*
X011300Y010141D02*
X011300Y010241D01*
X011267Y010275D01*
X011167Y010275D01*
X011200Y010362D02*
X011267Y010362D01*
X011300Y010396D01*
X011300Y010462D01*
X011267Y010496D01*
X011233Y010496D01*
X011233Y010362D01*
X011200Y010362D02*
X011167Y010396D01*
X011167Y010462D01*
X011167Y010804D02*
X011367Y010804D01*
X011367Y010938D01*
X011300Y011025D02*
X011167Y011025D01*
X011233Y011025D02*
X011300Y011092D01*
X011300Y011125D01*
X011300Y011243D02*
X011300Y011309D01*
X011267Y011343D01*
X011167Y011343D01*
X011167Y011243D01*
X011200Y011209D01*
X011233Y011243D01*
X011233Y011343D01*
X011167Y011430D02*
X011300Y011430D01*
X011300Y011530D01*
X011267Y011564D01*
X011167Y011564D01*
X011167Y011651D02*
X011367Y011651D01*
X011300Y011751D02*
X011233Y011651D01*
X011167Y011751D01*
X011167Y012056D02*
X011367Y012056D01*
X011300Y012123D01*
X011367Y012190D01*
X011167Y012190D01*
X011200Y012277D02*
X011233Y012311D01*
X011233Y012411D01*
X011267Y012411D02*
X011167Y012411D01*
X011167Y012311D01*
X011200Y012277D01*
X011300Y012311D02*
X011300Y012378D01*
X011267Y012411D01*
X011300Y012498D02*
X011200Y012498D01*
X011167Y012532D01*
X011167Y012632D01*
X011300Y012632D01*
X011267Y012719D02*
X011300Y012753D01*
X011300Y012820D01*
X011267Y012853D01*
X011233Y012853D01*
X011233Y012719D01*
X011200Y012719D02*
X011267Y012719D01*
X011200Y012719D02*
X011167Y012753D01*
X011167Y012820D01*
X011167Y012940D02*
X011300Y012940D01*
X011233Y012940D02*
X011300Y013007D01*
X011300Y013041D01*
X011627Y011932D02*
X011627Y011799D01*
X011727Y011899D01*
X011527Y011899D01*
X011527Y011711D02*
X011527Y011578D01*
X011527Y011644D02*
X011727Y011644D01*
X011660Y011578D01*
X011693Y011490D02*
X011560Y011357D01*
X011527Y011390D01*
X011527Y011457D01*
X011560Y011490D01*
X011693Y011490D01*
X011727Y011457D01*
X011727Y011390D01*
X011693Y011357D01*
X011560Y011357D01*
X011527Y011269D02*
X011527Y011136D01*
X011660Y011269D01*
X011693Y011269D01*
X011727Y011236D01*
X011727Y011169D01*
X011693Y011136D01*
X011660Y010801D02*
X011527Y010801D01*
X011527Y010834D02*
X011527Y010767D01*
X011527Y010680D02*
X011627Y010680D01*
X011660Y010646D01*
X011660Y010546D01*
X011527Y010546D01*
X011527Y010459D02*
X011660Y010459D01*
X011527Y010459D02*
X011527Y010359D01*
X011560Y010325D01*
X011660Y010325D01*
X011660Y010245D02*
X011493Y010245D01*
X011460Y010211D01*
X011460Y010178D01*
X011300Y010141D02*
X011167Y010141D01*
X011300Y009870D02*
X011367Y009803D01*
X011727Y010245D02*
X011760Y010245D01*
X011660Y010767D02*
X011660Y010801D01*
X011727Y010801D02*
X011760Y010801D01*
X011267Y010804D02*
X011267Y010871D01*
X002107Y016603D02*
X001907Y016603D01*
X001907Y016536D02*
X001907Y016670D01*
X001747Y016603D02*
X001680Y016670D01*
X001547Y016670D01*
X001547Y016757D02*
X001680Y016757D01*
X001613Y016757D02*
X001680Y016824D01*
X001680Y016857D01*
X001680Y016941D02*
X001547Y016941D01*
X001680Y016941D02*
X001680Y017041D01*
X001647Y017075D01*
X001547Y017075D01*
X001580Y017162D02*
X001647Y017162D01*
X001680Y017196D01*
X001680Y017262D01*
X001647Y017296D01*
X001613Y017296D01*
X001613Y017162D01*
X001580Y017162D02*
X001547Y017196D01*
X001547Y017262D01*
X001840Y017011D02*
X001873Y017045D01*
X002040Y017045D01*
X002107Y017045D02*
X002140Y017045D01*
X002040Y017125D02*
X001940Y017125D01*
X001907Y017159D01*
X001907Y017259D01*
X002040Y017259D01*
X002040Y017346D02*
X002040Y017446D01*
X002007Y017480D01*
X001907Y017480D01*
X001907Y017567D02*
X001907Y017634D01*
X001907Y017601D02*
X002040Y017601D01*
X002040Y017567D01*
X002107Y017601D02*
X002140Y017601D01*
X002040Y017346D02*
X001907Y017346D01*
X001840Y017011D02*
X001840Y016978D01*
X001647Y016670D02*
X001647Y016536D01*
X001680Y016536D02*
X001747Y016603D01*
X001680Y016536D02*
X001547Y016536D01*
X002040Y016536D02*
X002107Y016603D01*
X001747Y017604D02*
X001547Y017604D01*
X001647Y017604D02*
X001647Y017671D01*
X001747Y017604D02*
X001747Y017738D01*
X001680Y017825D02*
X001547Y017825D01*
X001613Y017825D02*
X001680Y017892D01*
X001680Y017925D01*
X001680Y018043D02*
X001680Y018109D01*
X001647Y018143D01*
X001547Y018143D01*
X001547Y018043D01*
X001580Y018009D01*
X001613Y018043D01*
X001613Y018143D01*
X001547Y018230D02*
X001680Y018230D01*
X001680Y018330D01*
X001647Y018364D01*
X001547Y018364D01*
X001547Y018451D02*
X001747Y018451D01*
X001680Y018551D02*
X001613Y018451D01*
X001547Y018551D01*
X001547Y018856D02*
X001747Y018856D01*
X001680Y018923D01*
X001747Y018990D01*
X001547Y018990D01*
X001580Y019077D02*
X001613Y019111D01*
X001613Y019211D01*
X001647Y019211D02*
X001547Y019211D01*
X001547Y019111D01*
X001580Y019077D01*
X001680Y019111D02*
X001680Y019178D01*
X001647Y019211D01*
X001680Y019298D02*
X001580Y019298D01*
X001547Y019332D01*
X001547Y019432D01*
X001680Y019432D01*
X001647Y019519D02*
X001580Y019519D01*
X001547Y019553D01*
X001547Y019620D01*
X001613Y019653D02*
X001613Y019519D01*
X001647Y019519D02*
X001680Y019553D01*
X001680Y019620D01*
X001647Y019653D01*
X001613Y019653D01*
X001613Y019740D02*
X001680Y019807D01*
X001680Y019841D01*
X001680Y019740D02*
X001547Y019740D01*
X001907Y018699D02*
X002107Y018699D01*
X002007Y018599D01*
X002007Y018732D01*
X001907Y018511D02*
X001907Y018378D01*
X001907Y018444D02*
X002107Y018444D01*
X002040Y018378D01*
X002073Y018290D02*
X001940Y018157D01*
X001907Y018190D01*
X001907Y018257D01*
X001940Y018290D01*
X002073Y018290D01*
X002107Y018257D01*
X002107Y018190D01*
X002073Y018157D01*
X001940Y018157D01*
X001907Y018069D02*
X001907Y017936D01*
X002040Y018069D01*
X002073Y018069D01*
X002107Y018036D01*
X002107Y017969D01*
X002073Y017936D01*
D12*
X002148Y001845D02*
X002148Y001245D01*
X003148Y001245D02*
X003148Y001845D01*
X004148Y001845D02*
X004148Y001245D01*
X005148Y001245D02*
X005148Y001845D01*
X006148Y001845D02*
X006148Y001245D01*
X007148Y001245D02*
X007148Y001845D01*
X011967Y001868D02*
X011967Y001268D01*
X012967Y001268D02*
X012967Y001868D01*
X013967Y001868D02*
X013967Y001268D01*
X014967Y001268D02*
X014967Y001868D01*
X015967Y001868D02*
X015967Y001268D01*
X016967Y001268D02*
X016967Y001868D01*
D13*
X011567Y014806D03*
X001676Y014828D03*
D14*
X008355Y001550D03*
X018135Y001596D03*
D15*
X018135Y002596D03*
X019135Y002596D03*
X019135Y001596D03*
X020135Y001596D03*
X020135Y002596D03*
X010355Y002550D03*
X009355Y002550D03*
X009355Y001550D03*
X010355Y001550D03*
X008355Y002550D03*
D16*
X010267Y007006D03*
X012117Y007006D03*
X020117Y007006D03*
X020117Y015856D03*
X012117Y015856D03*
X010267Y015856D03*
X002267Y015856D03*
X002267Y007006D03*
D17*
X012727Y018396D03*
X015727Y018396D03*
X016887Y019566D03*
X017887Y019566D03*
D18*
X020117Y015856D02*
X020117Y008956D01*
X020067Y008906D01*
X019717Y008906D01*
X020117Y008956D02*
X020117Y007006D01*
X017967Y008056D02*
X015141Y010881D01*
X013842Y010881D01*
X015567Y008906D02*
X014767Y008106D01*
X013667Y008106D01*
X012117Y007006D02*
X012117Y006956D01*
X012817Y006256D01*
X013317Y005756D01*
X015967Y005756D01*
X015447Y002436D02*
X017427Y002436D01*
X015447Y002436D02*
X014967Y001956D01*
X014967Y001568D01*
X012117Y007006D02*
X012117Y013156D01*
X012017Y013256D01*
X011667Y013256D01*
X012117Y013156D02*
X012117Y014316D01*
X012117Y015856D01*
X010267Y015856D02*
X010267Y008936D01*
X010257Y008926D01*
X009657Y008926D01*
X010267Y008936D02*
X010267Y007006D01*
X006267Y005856D02*
X003467Y005856D01*
X002297Y007026D01*
X002297Y013256D01*
X001807Y013256D01*
X002297Y013256D02*
X002297Y015826D01*
X002267Y015856D01*
X003427Y017016D01*
X003487Y017016D01*
X003427Y008196D02*
X005727Y008196D01*
X002267Y007006D02*
X001567Y007006D01*
X001537Y006976D01*
X005547Y002496D02*
X007227Y002496D01*
X005547Y002496D02*
X005148Y002098D01*
X005148Y001545D01*
D19*
X007227Y002496D03*
X009663Y004232D03*
X009030Y006269D03*
X008966Y006835D03*
X007947Y006206D03*
X007167Y006756D03*
X006267Y005856D03*
X004877Y004212D03*
X003945Y005202D03*
X001537Y006976D03*
X002817Y007856D03*
X003427Y008196D03*
X004337Y007706D03*
X005727Y008196D03*
X008167Y008056D03*
X009657Y008926D03*
X009247Y009437D03*
X012617Y007956D03*
X013667Y008106D03*
X014117Y007556D03*
X015567Y008906D03*
X013842Y010881D03*
X013804Y011669D03*
X011667Y013256D03*
X014427Y014796D03*
X014967Y015156D03*
X017067Y018216D03*
X018507Y016836D03*
X019707Y018576D03*
X014667Y018456D03*
X019316Y009506D03*
X019717Y008906D03*
X017967Y008056D03*
X018857Y006837D03*
X018857Y006356D03*
X017817Y006206D03*
X017017Y006806D03*
X015967Y005756D03*
X014443Y004632D03*
X013767Y005136D03*
X012567Y006006D03*
X017427Y002436D03*
X019527Y004652D03*
X003775Y010915D03*
X003763Y011702D03*
X001807Y013256D03*
X003487Y017016D03*
D20*
X003763Y011702D02*
X005521Y011702D01*
X008567Y008656D01*
X008567Y006533D01*
X008966Y006835D02*
X009247Y007117D01*
X009247Y009437D01*
X008167Y008256D02*
X005508Y010915D01*
X003775Y010915D01*
X002817Y007856D02*
X004467Y006206D01*
X007947Y006206D01*
X007167Y006756D02*
X005287Y006756D01*
X004337Y007706D01*
X004877Y004212D02*
X009663Y004232D01*
X008167Y008056D02*
X008167Y008256D01*
X012617Y007956D02*
X014367Y006206D01*
X017817Y006206D01*
X018367Y006846D02*
X018857Y006356D01*
X018857Y006837D02*
X019316Y007237D01*
X019316Y009506D01*
X018367Y008306D02*
X018367Y006846D01*
X017017Y006806D02*
X014867Y006806D01*
X014117Y007556D01*
X013767Y005136D02*
X013767Y001768D01*
X013967Y001568D01*
X014443Y004632D02*
X014463Y004652D01*
X019527Y004652D01*
X018367Y008306D02*
X015004Y011669D01*
X013804Y011669D01*
X012117Y014316D02*
X015987Y014316D01*
X018507Y016836D01*
X019347Y018216D02*
X017067Y018216D01*
X016287Y018966D02*
X016887Y019566D01*
X016287Y018966D02*
X016287Y015816D01*
X015267Y014796D01*
X014427Y014796D01*
X014967Y015156D02*
X014667Y015456D01*
X014667Y018456D01*
X019347Y018216D02*
X019707Y018576D01*
M02*
