G75*
G70*
%OFA0B0*%
%FSLAX24Y24*%
%IPPOS*%
%LPD*%
%AMOC8*
5,1,8,0,0,1.08239X$1,22.5*
%
%ADD10C,0.0040*%
%ADD11C,0.0060*%
%ADD12C,0.0100*%
%ADD13C,0.0050*%
%ADD14C,0.0020*%
%ADD15R,0.0118X0.0827*%
%ADD16R,0.0827X0.0118*%
D10*
X001867Y001589D02*
X001900Y001556D01*
X001967Y001556D01*
X002000Y001589D01*
X002000Y001656D01*
X001933Y001656D01*
X001867Y001723D02*
X001867Y001589D01*
X001867Y001723D02*
X001900Y001756D01*
X001967Y001756D01*
X002000Y001723D01*
X002088Y001756D02*
X002088Y001556D01*
X002221Y001556D02*
X002088Y001756D01*
X002221Y001756D02*
X002221Y001556D01*
X002309Y001556D02*
X002409Y001556D01*
X002442Y001589D01*
X002442Y001723D01*
X002409Y001756D01*
X002309Y001756D01*
X002309Y001556D01*
X003007Y001536D02*
X003007Y001736D01*
X003140Y001536D01*
X003140Y001736D01*
X003228Y001703D02*
X003228Y001569D01*
X003261Y001536D01*
X003328Y001536D01*
X003361Y001569D01*
X003361Y001703D02*
X003328Y001736D01*
X003261Y001736D01*
X003228Y001703D01*
X003867Y001736D02*
X003967Y001736D01*
X004000Y001703D01*
X004000Y001636D01*
X003967Y001603D01*
X003867Y001603D01*
X003867Y001536D02*
X003867Y001736D01*
X004088Y001736D02*
X004088Y001536D01*
X004154Y001603D01*
X004221Y001536D01*
X004221Y001736D01*
X004309Y001736D02*
X004409Y001736D01*
X004442Y001703D01*
X004442Y001636D01*
X004409Y001603D01*
X004309Y001603D01*
X004375Y001603D02*
X004442Y001536D01*
X004309Y001536D02*
X004309Y001736D01*
X004987Y001716D02*
X004987Y001516D01*
X004987Y001583D02*
X005087Y001583D01*
X005120Y001616D01*
X005120Y001683D01*
X005087Y001716D01*
X004987Y001716D01*
X005053Y001583D02*
X005120Y001516D01*
X005208Y001516D02*
X005341Y001716D01*
X005208Y001716D02*
X005341Y001516D01*
X005967Y001716D02*
X006100Y001716D01*
X006033Y001716D02*
X006033Y001516D01*
X006188Y001516D02*
X006321Y001716D01*
X006188Y001716D02*
X006321Y001516D01*
X006847Y001516D02*
X006847Y001716D01*
X006947Y001716D01*
X006980Y001683D01*
X006980Y001616D01*
X006947Y001583D01*
X006847Y001583D01*
X006913Y001583D02*
X006980Y001516D01*
X007134Y001516D02*
X007134Y001716D01*
X007068Y001716D02*
X007201Y001716D01*
X007289Y001683D02*
X007289Y001649D01*
X007322Y001616D01*
X007389Y001616D01*
X007422Y001583D01*
X007422Y001549D01*
X007389Y001516D01*
X007322Y001516D01*
X007289Y001549D01*
X007289Y001683D02*
X007322Y001716D01*
X007389Y001716D01*
X007422Y001683D01*
X008007Y001756D02*
X008073Y001689D01*
X008140Y001756D01*
X008140Y001556D01*
X008228Y001556D02*
X008294Y001556D01*
X008261Y001556D02*
X008261Y001756D01*
X008228Y001756D02*
X008294Y001756D01*
X008375Y001723D02*
X008375Y001689D01*
X008408Y001656D01*
X008475Y001656D01*
X008508Y001623D01*
X008508Y001589D01*
X008475Y001556D01*
X008408Y001556D01*
X008375Y001589D01*
X008375Y001723D02*
X008408Y001756D01*
X008475Y001756D01*
X008508Y001723D01*
X008596Y001723D02*
X008596Y001589D01*
X008629Y001556D01*
X008696Y001556D01*
X008729Y001589D01*
X008729Y001723D01*
X008696Y001756D01*
X008629Y001756D01*
X008596Y001723D01*
X008007Y001756D02*
X008007Y001556D01*
X009087Y001609D02*
X009120Y001576D01*
X009187Y001576D01*
X009220Y001609D01*
X009220Y001643D01*
X009187Y001676D01*
X009120Y001676D01*
X009087Y001709D01*
X009087Y001743D01*
X009120Y001776D01*
X009187Y001776D01*
X009220Y001743D01*
X009308Y001743D02*
X009308Y001609D01*
X009341Y001576D01*
X009408Y001576D01*
X009441Y001609D01*
X009529Y001576D02*
X009529Y001776D01*
X009441Y001743D02*
X009408Y001776D01*
X009341Y001776D01*
X009308Y001743D01*
X009529Y001643D02*
X009662Y001776D01*
X009562Y001676D02*
X009662Y001576D01*
X010067Y001596D02*
X010067Y001796D01*
X010167Y001796D01*
X010200Y001763D01*
X010200Y001696D01*
X010167Y001663D01*
X010067Y001663D01*
X010133Y001663D02*
X010200Y001596D01*
X010288Y001629D02*
X010321Y001596D01*
X010388Y001596D01*
X010421Y001629D01*
X010421Y001663D01*
X010388Y001696D01*
X010321Y001696D01*
X010288Y001729D01*
X010288Y001763D01*
X010321Y001796D01*
X010388Y001796D01*
X010421Y001763D01*
X010509Y001796D02*
X010642Y001796D01*
X010575Y001796D02*
X010575Y001596D01*
X011727Y001589D02*
X011760Y001556D01*
X011827Y001556D01*
X011860Y001589D01*
X011860Y001656D01*
X011793Y001656D01*
X011727Y001723D02*
X011727Y001589D01*
X011727Y001723D02*
X011760Y001756D01*
X011827Y001756D01*
X011860Y001723D01*
X011948Y001756D02*
X012081Y001556D01*
X012081Y001756D01*
X012169Y001756D02*
X012169Y001556D01*
X012269Y001556D01*
X012302Y001589D01*
X012302Y001723D01*
X012269Y001756D01*
X012169Y001756D01*
X011948Y001756D02*
X011948Y001556D01*
X012867Y001536D02*
X012867Y001736D01*
X013000Y001536D01*
X013000Y001736D01*
X013088Y001703D02*
X013088Y001569D01*
X013121Y001536D01*
X013188Y001536D01*
X013221Y001569D01*
X013221Y001703D02*
X013188Y001736D01*
X013121Y001736D01*
X013088Y001703D01*
X013727Y001736D02*
X013827Y001736D01*
X013860Y001703D01*
X013860Y001636D01*
X013827Y001603D01*
X013727Y001603D01*
X013727Y001536D02*
X013727Y001736D01*
X013948Y001736D02*
X013948Y001536D01*
X014014Y001603D01*
X014081Y001536D01*
X014081Y001736D01*
X014169Y001736D02*
X014269Y001736D01*
X014302Y001703D01*
X014302Y001636D01*
X014269Y001603D01*
X014169Y001603D01*
X014235Y001603D02*
X014302Y001536D01*
X014169Y001536D02*
X014169Y001736D01*
X014847Y001716D02*
X014847Y001516D01*
X014847Y001583D02*
X014947Y001583D01*
X014980Y001616D01*
X014980Y001683D01*
X014947Y001716D01*
X014847Y001716D01*
X014913Y001583D02*
X014980Y001516D01*
X015068Y001516D02*
X015201Y001716D01*
X015068Y001716D02*
X015201Y001516D01*
X015827Y001716D02*
X015960Y001716D01*
X015893Y001716D02*
X015893Y001516D01*
X016048Y001516D02*
X016181Y001716D01*
X016048Y001716D02*
X016181Y001516D01*
X016707Y001516D02*
X016707Y001716D01*
X016807Y001716D01*
X016840Y001683D01*
X016840Y001616D01*
X016807Y001583D01*
X016707Y001583D01*
X016773Y001583D02*
X016840Y001516D01*
X016994Y001516D02*
X016994Y001716D01*
X016928Y001716D02*
X017061Y001716D01*
X017149Y001683D02*
X017149Y001649D01*
X017182Y001616D01*
X017249Y001616D01*
X017282Y001583D01*
X017282Y001549D01*
X017249Y001516D01*
X017182Y001516D01*
X017149Y001549D01*
X017149Y001683D02*
X017182Y001716D01*
X017249Y001716D01*
X017282Y001683D01*
X017807Y001636D02*
X017807Y001836D01*
X017873Y001769D01*
X017940Y001836D01*
X017940Y001636D01*
X018028Y001636D02*
X018094Y001636D01*
X018061Y001636D02*
X018061Y001836D01*
X018028Y001836D02*
X018094Y001836D01*
X018175Y001803D02*
X018175Y001769D01*
X018208Y001736D01*
X018275Y001736D01*
X018308Y001703D01*
X018308Y001669D01*
X018275Y001636D01*
X018208Y001636D01*
X018175Y001669D01*
X018175Y001803D02*
X018208Y001836D01*
X018275Y001836D01*
X018308Y001803D01*
X018396Y001803D02*
X018396Y001669D01*
X018429Y001636D01*
X018496Y001636D01*
X018529Y001669D01*
X018529Y001803D01*
X018496Y001836D01*
X018429Y001836D01*
X018396Y001803D01*
X018827Y001783D02*
X018827Y001749D01*
X018860Y001716D01*
X018927Y001716D01*
X018960Y001683D01*
X018960Y001649D01*
X018927Y001616D01*
X018860Y001616D01*
X018827Y001649D01*
X018827Y001783D02*
X018860Y001816D01*
X018927Y001816D01*
X018960Y001783D01*
X019048Y001783D02*
X019048Y001649D01*
X019081Y001616D01*
X019148Y001616D01*
X019181Y001649D01*
X019269Y001616D02*
X019269Y001816D01*
X019181Y001783D02*
X019148Y001816D01*
X019081Y001816D01*
X019048Y001783D01*
X019269Y001683D02*
X019402Y001816D01*
X019302Y001716D02*
X019402Y001616D01*
X019867Y001596D02*
X019867Y001796D01*
X019967Y001796D01*
X020000Y001763D01*
X020000Y001696D01*
X019967Y001663D01*
X019867Y001663D01*
X019933Y001663D02*
X020000Y001596D01*
X020088Y001629D02*
X020121Y001596D01*
X020188Y001596D01*
X020221Y001629D01*
X020221Y001663D01*
X020188Y001696D01*
X020121Y001696D01*
X020088Y001729D01*
X020088Y001763D01*
X020121Y001796D01*
X020188Y001796D01*
X020221Y001763D01*
X020309Y001796D02*
X020442Y001796D01*
X020375Y001796D02*
X020375Y001596D01*
X019536Y004136D02*
X019470Y004136D01*
X019503Y004136D02*
X019503Y004336D01*
X019470Y004336D02*
X019536Y004336D01*
X019382Y004303D02*
X019349Y004336D01*
X019282Y004336D01*
X019249Y004303D01*
X019249Y004269D01*
X019282Y004236D01*
X019349Y004236D01*
X019382Y004203D01*
X019382Y004169D01*
X019349Y004136D01*
X019282Y004136D01*
X019249Y004169D01*
X019161Y004169D02*
X019161Y004303D01*
X019128Y004336D01*
X019061Y004336D01*
X019028Y004303D01*
X019028Y004169D01*
X019061Y004136D01*
X019128Y004136D01*
X019161Y004169D01*
X018940Y004136D02*
X018940Y004336D01*
X018873Y004269D01*
X018807Y004336D01*
X018807Y004136D01*
X018442Y004169D02*
X018442Y004303D01*
X018409Y004336D01*
X018309Y004336D01*
X018309Y004136D01*
X018409Y004136D01*
X018442Y004169D01*
X018221Y004169D02*
X018188Y004136D01*
X018088Y004136D01*
X018088Y004336D01*
X018188Y004336D01*
X018221Y004303D01*
X018221Y004169D01*
X018000Y004203D02*
X017933Y004136D01*
X017867Y004203D01*
X017867Y004336D01*
X018000Y004336D02*
X018000Y004203D01*
X019847Y004189D02*
X019880Y004156D01*
X019947Y004156D01*
X019980Y004189D01*
X019980Y004256D01*
X019913Y004256D01*
X019847Y004323D02*
X019847Y004189D01*
X019847Y004323D02*
X019880Y004356D01*
X019947Y004356D01*
X019980Y004323D01*
X020068Y004356D02*
X020201Y004156D01*
X020201Y004356D01*
X020289Y004356D02*
X020389Y004356D01*
X020422Y004323D01*
X020422Y004189D01*
X020389Y004156D01*
X020289Y004156D01*
X020289Y004356D01*
X020068Y004356D02*
X020068Y004156D01*
X011687Y010636D02*
X011553Y010636D01*
X011486Y010703D01*
X011553Y010769D01*
X011687Y010769D01*
X011687Y010857D02*
X011553Y010857D01*
X011620Y010857D02*
X011553Y010924D01*
X011553Y010957D01*
X011553Y011041D02*
X011553Y011141D01*
X011587Y011174D01*
X011687Y011174D01*
X011653Y011262D02*
X011587Y011262D01*
X011553Y011295D01*
X011553Y011362D01*
X011587Y011395D01*
X011620Y011395D01*
X011620Y011262D01*
X011653Y011262D02*
X011687Y011295D01*
X011687Y011362D01*
X011687Y011704D02*
X011486Y011704D01*
X011486Y011837D01*
X011553Y011925D02*
X011687Y011925D01*
X011620Y011925D02*
X011553Y011992D01*
X011553Y012025D01*
X011553Y012142D02*
X011553Y012209D01*
X011587Y012243D01*
X011687Y012243D01*
X011687Y012142D01*
X011653Y012109D01*
X011620Y012142D01*
X011620Y012243D01*
X011687Y012330D02*
X011553Y012330D01*
X011553Y012430D01*
X011587Y012464D01*
X011687Y012464D01*
X011687Y012551D02*
X011486Y012551D01*
X011553Y012651D02*
X011620Y012551D01*
X011687Y012651D01*
X011687Y012956D02*
X011486Y012956D01*
X011553Y013023D01*
X011486Y013090D01*
X011687Y013090D01*
X011653Y013177D02*
X011620Y013211D01*
X011620Y013311D01*
X011587Y013311D02*
X011687Y013311D01*
X011687Y013211D01*
X011653Y013177D01*
X011553Y013211D02*
X011553Y013277D01*
X011587Y013311D01*
X011553Y013398D02*
X011653Y013398D01*
X011687Y013432D01*
X011687Y013532D01*
X011553Y013532D01*
X011587Y013619D02*
X011553Y013653D01*
X011553Y013719D01*
X011587Y013753D01*
X011620Y013753D01*
X011620Y013619D01*
X011653Y013619D02*
X011587Y013619D01*
X011653Y013619D02*
X011687Y013653D01*
X011687Y013719D01*
X011687Y013840D02*
X011553Y013840D01*
X011553Y013907D02*
X011553Y013940D01*
X011553Y013907D02*
X011620Y013840D01*
X011327Y012798D02*
X011126Y012798D01*
X011227Y012698D01*
X011227Y012832D01*
X011327Y012611D02*
X011327Y012477D01*
X011327Y012544D02*
X011126Y012544D01*
X011193Y012477D01*
X011160Y012390D02*
X011293Y012256D01*
X011327Y012290D01*
X011327Y012357D01*
X011293Y012390D01*
X011160Y012390D01*
X011126Y012357D01*
X011126Y012290D01*
X011160Y012256D01*
X011293Y012256D01*
X011327Y012169D02*
X011327Y012035D01*
X011193Y012169D01*
X011160Y012169D01*
X011126Y012136D01*
X011126Y012069D01*
X011160Y012035D01*
X011193Y011700D02*
X011327Y011700D01*
X011327Y011667D02*
X011327Y011734D01*
X011193Y011700D02*
X011193Y011667D01*
X011126Y011700D02*
X011093Y011700D01*
X011227Y011580D02*
X011327Y011580D01*
X011227Y011580D02*
X011193Y011546D01*
X011193Y011446D01*
X011327Y011446D01*
X011327Y011359D02*
X011193Y011359D01*
X011327Y011359D02*
X011327Y011259D01*
X011293Y011225D01*
X011193Y011225D01*
X011193Y011145D02*
X011360Y011145D01*
X011393Y011111D01*
X011393Y011078D01*
X011553Y011041D02*
X011687Y011041D01*
X011587Y010769D02*
X011587Y010636D01*
X011327Y010636D02*
X011327Y010769D01*
X011327Y010703D02*
X011126Y010703D01*
X011193Y010636D01*
X011126Y011145D02*
X011093Y011145D01*
X011587Y011704D02*
X011587Y011771D01*
X010649Y004336D02*
X010549Y004336D01*
X010549Y004136D01*
X010649Y004136D01*
X010682Y004169D01*
X010682Y004303D01*
X010649Y004336D01*
X010461Y004336D02*
X010461Y004136D01*
X010328Y004336D01*
X010328Y004136D01*
X010240Y004169D02*
X010240Y004236D01*
X010173Y004236D01*
X010107Y004303D02*
X010107Y004169D01*
X010140Y004136D01*
X010207Y004136D01*
X010240Y004169D01*
X010240Y004303D02*
X010207Y004336D01*
X010140Y004336D01*
X010107Y004303D01*
X009736Y004336D02*
X009670Y004336D01*
X009703Y004336D02*
X009703Y004136D01*
X009670Y004136D02*
X009736Y004136D01*
X009582Y004169D02*
X009549Y004136D01*
X009482Y004136D01*
X009449Y004169D01*
X009482Y004236D02*
X009549Y004236D01*
X009582Y004203D01*
X009582Y004169D01*
X009482Y004236D02*
X009449Y004269D01*
X009449Y004303D01*
X009482Y004336D01*
X009549Y004336D01*
X009582Y004303D01*
X009361Y004303D02*
X009328Y004336D01*
X009261Y004336D01*
X009228Y004303D01*
X009228Y004169D01*
X009261Y004136D01*
X009328Y004136D01*
X009361Y004169D01*
X009361Y004303D01*
X009140Y004336D02*
X009140Y004136D01*
X009007Y004136D02*
X009007Y004336D01*
X009073Y004269D01*
X009140Y004336D01*
X008622Y004283D02*
X008589Y004316D01*
X008489Y004316D01*
X008489Y004116D01*
X008589Y004116D01*
X008622Y004149D01*
X008622Y004283D01*
X008401Y004283D02*
X008368Y004316D01*
X008268Y004316D01*
X008268Y004116D01*
X008368Y004116D01*
X008401Y004149D01*
X008401Y004283D01*
X008180Y004316D02*
X008180Y004183D01*
X008113Y004116D01*
X008047Y004183D01*
X008047Y004316D01*
X002067Y017436D02*
X001933Y017436D01*
X001866Y017503D01*
X001933Y017569D01*
X002067Y017569D01*
X002067Y017657D02*
X001933Y017657D01*
X001933Y017724D02*
X001933Y017757D01*
X001933Y017724D02*
X002000Y017657D01*
X001967Y017569D02*
X001967Y017436D01*
X001707Y017436D02*
X001707Y017569D01*
X001707Y017503D02*
X001506Y017503D01*
X001573Y017436D01*
X001773Y017878D02*
X001773Y017911D01*
X001740Y017945D01*
X001573Y017945D01*
X001506Y017945D02*
X001473Y017945D01*
X001573Y018025D02*
X001673Y018025D01*
X001707Y018059D01*
X001707Y018159D01*
X001573Y018159D01*
X001573Y018246D02*
X001573Y018346D01*
X001607Y018380D01*
X001707Y018380D01*
X001707Y018467D02*
X001707Y018534D01*
X001707Y018500D02*
X001573Y018500D01*
X001573Y018467D01*
X001506Y018500D02*
X001473Y018500D01*
X001573Y018246D02*
X001707Y018246D01*
X001933Y018162D02*
X001967Y018195D01*
X002000Y018195D01*
X002000Y018062D01*
X002033Y018062D02*
X001967Y018062D01*
X001933Y018095D01*
X001933Y018162D01*
X002067Y018162D02*
X002067Y018095D01*
X002033Y018062D01*
X002067Y017974D02*
X001967Y017974D01*
X001933Y017941D01*
X001933Y017841D01*
X002067Y017841D01*
X002067Y018504D02*
X001866Y018504D01*
X001866Y018637D01*
X001933Y018725D02*
X002067Y018725D01*
X002000Y018725D02*
X001933Y018792D01*
X001933Y018825D01*
X001933Y018942D02*
X001933Y019009D01*
X001967Y019043D01*
X002067Y019043D01*
X002067Y018942D01*
X002033Y018909D01*
X002000Y018942D01*
X002000Y019043D01*
X002067Y019130D02*
X001933Y019130D01*
X001933Y019230D01*
X001967Y019264D01*
X002067Y019264D01*
X002067Y019351D02*
X001866Y019351D01*
X001933Y019451D02*
X002000Y019351D01*
X002067Y019451D01*
X002067Y019756D02*
X001866Y019756D01*
X001933Y019823D01*
X001866Y019890D01*
X002067Y019890D01*
X002033Y019977D02*
X002000Y020011D01*
X002000Y020111D01*
X001967Y020111D02*
X002067Y020111D01*
X002067Y020011D01*
X002033Y019977D01*
X001933Y020011D02*
X001933Y020077D01*
X001967Y020111D01*
X001933Y020198D02*
X002033Y020198D01*
X002067Y020232D01*
X002067Y020332D01*
X001933Y020332D01*
X001967Y020419D02*
X001933Y020453D01*
X001933Y020519D01*
X001967Y020553D01*
X002000Y020553D01*
X002000Y020419D01*
X002033Y020419D02*
X001967Y020419D01*
X002033Y020419D02*
X002067Y020453D01*
X002067Y020519D01*
X002067Y020640D02*
X001933Y020640D01*
X002000Y020640D02*
X001933Y020707D01*
X001933Y020740D01*
X001607Y019632D02*
X001607Y019498D01*
X001506Y019598D01*
X001707Y019598D01*
X001707Y019411D02*
X001707Y019277D01*
X001707Y019344D02*
X001506Y019344D01*
X001573Y019277D01*
X001540Y019190D02*
X001673Y019056D01*
X001707Y019090D01*
X001707Y019157D01*
X001673Y019190D01*
X001540Y019190D01*
X001506Y019157D01*
X001506Y019090D01*
X001540Y019056D01*
X001673Y019056D01*
X001707Y018969D02*
X001707Y018835D01*
X001573Y018969D01*
X001540Y018969D01*
X001506Y018936D01*
X001506Y018869D01*
X001540Y018835D01*
X001967Y018571D02*
X001967Y018504D01*
D11*
X003575Y015860D02*
X003461Y015746D01*
X003461Y015519D01*
X003461Y015689D02*
X003688Y015689D01*
X003688Y015746D02*
X003688Y015519D01*
X003830Y015519D02*
X003830Y015746D01*
X004000Y015746D01*
X004057Y015689D01*
X004057Y015519D01*
X004255Y015576D02*
X004255Y015803D01*
X004311Y015746D02*
X004198Y015746D01*
X004255Y015576D02*
X004311Y015519D01*
X004444Y015519D02*
X004500Y015519D01*
X004500Y015576D01*
X004444Y015576D01*
X004444Y015519D01*
X004430Y015110D02*
X004316Y015110D01*
X004259Y015053D01*
X004259Y014826D01*
X004316Y014769D01*
X004430Y014769D01*
X004486Y014826D01*
X004486Y015053D02*
X004430Y015110D01*
X004118Y015053D02*
X004061Y015110D01*
X003948Y015110D01*
X003891Y015053D01*
X003891Y014826D01*
X003948Y014769D01*
X004061Y014769D01*
X004118Y014826D01*
X003750Y014883D02*
X003750Y015110D01*
X003523Y015110D02*
X003523Y014883D01*
X003636Y014769D01*
X003750Y014883D01*
X003693Y014360D02*
X003580Y014360D01*
X003523Y014303D01*
X003523Y014076D01*
X003580Y014019D01*
X003693Y014019D01*
X003750Y014076D01*
X003750Y014189D01*
X003636Y014189D01*
X003750Y014303D02*
X003693Y014360D01*
X003891Y014360D02*
X003891Y014019D01*
X004118Y014019D02*
X003891Y014360D01*
X004118Y014360D02*
X004118Y014019D01*
X004259Y014019D02*
X004259Y014360D01*
X004430Y014360D01*
X004486Y014303D01*
X004486Y014076D01*
X004430Y014019D01*
X004259Y014019D01*
X003688Y015746D02*
X003575Y015860D01*
X006227Y016446D02*
X007627Y016446D01*
X007644Y016448D01*
X007661Y016452D01*
X007677Y016459D01*
X007691Y016469D01*
X007704Y016482D01*
X007714Y016496D01*
X007721Y016512D01*
X007725Y016529D01*
X007727Y016546D01*
X007727Y016896D02*
X007727Y016996D01*
X007727Y017396D02*
X007727Y017496D01*
X007727Y017896D02*
X007727Y017996D01*
X007727Y018346D02*
X007725Y018363D01*
X007721Y018380D01*
X007714Y018396D01*
X007704Y018410D01*
X007691Y018423D01*
X007677Y018433D01*
X007661Y018440D01*
X007644Y018444D01*
X007627Y018446D01*
X006227Y018446D01*
X006210Y018444D01*
X006193Y018440D01*
X006177Y018433D01*
X006163Y018423D01*
X006150Y018410D01*
X006140Y018396D01*
X006133Y018380D01*
X006129Y018363D01*
X006127Y018346D01*
X006127Y017996D02*
X006127Y017896D01*
X006127Y017496D02*
X006127Y017396D01*
X006127Y016996D02*
X006127Y016896D01*
X006127Y016546D02*
X006129Y016529D01*
X006133Y016512D01*
X006140Y016496D01*
X006150Y016482D01*
X006163Y016469D01*
X006177Y016459D01*
X006193Y016452D01*
X006210Y016448D01*
X006227Y016446D01*
X007177Y016746D02*
X007179Y016770D01*
X007185Y016794D01*
X007194Y016816D01*
X007207Y016836D01*
X007223Y016854D01*
X007242Y016869D01*
X007263Y016882D01*
X007285Y016890D01*
X007309Y016895D01*
X007333Y016896D01*
X007357Y016893D01*
X007380Y016886D01*
X007402Y016876D01*
X007422Y016862D01*
X007439Y016845D01*
X007454Y016826D01*
X007465Y016805D01*
X007473Y016782D01*
X007477Y016758D01*
X007477Y016734D01*
X007473Y016710D01*
X007465Y016687D01*
X007454Y016666D01*
X007439Y016647D01*
X007422Y016630D01*
X007402Y016616D01*
X007380Y016606D01*
X007357Y016599D01*
X007333Y016596D01*
X007309Y016597D01*
X007285Y016602D01*
X007263Y016610D01*
X007242Y016623D01*
X007223Y016638D01*
X007207Y016656D01*
X007194Y016676D01*
X007185Y016698D01*
X007179Y016722D01*
X007177Y016746D01*
X008647Y018576D02*
X010847Y018576D01*
X010847Y019496D01*
X008647Y019496D01*
X008647Y018576D01*
X008647Y019916D02*
X010847Y019916D01*
X010847Y020836D01*
X008647Y020836D01*
X008647Y019916D01*
X011177Y019956D02*
X013377Y019956D01*
X013377Y020876D01*
X011177Y020876D01*
X011177Y019956D01*
X013027Y019296D02*
X013227Y019296D01*
X013227Y018796D01*
X015227Y018796D01*
X015227Y019296D01*
X015227Y019796D01*
X013227Y019796D01*
X013227Y019296D01*
X014057Y019946D02*
X016257Y019946D01*
X016257Y020866D01*
X014057Y020866D01*
X014057Y019946D01*
X015227Y019296D02*
X015427Y019296D01*
X018697Y019966D02*
X018697Y018566D01*
X018699Y018549D01*
X018703Y018532D01*
X018710Y018516D01*
X018720Y018502D01*
X018733Y018489D01*
X018747Y018479D01*
X018763Y018472D01*
X018780Y018468D01*
X018797Y018466D01*
X019147Y018466D02*
X019247Y018466D01*
X019647Y018466D02*
X019747Y018466D01*
X020147Y018466D02*
X020247Y018466D01*
X020597Y018466D02*
X020614Y018468D01*
X020631Y018472D01*
X020647Y018479D01*
X020661Y018489D01*
X020674Y018502D01*
X020684Y018516D01*
X020691Y018532D01*
X020695Y018549D01*
X020697Y018566D01*
X020697Y019966D01*
X020695Y019983D01*
X020691Y020000D01*
X020684Y020016D01*
X020674Y020030D01*
X020661Y020043D01*
X020647Y020053D01*
X020631Y020060D01*
X020614Y020064D01*
X020597Y020066D01*
X020247Y020066D02*
X020147Y020066D01*
X019747Y020066D02*
X019647Y020066D01*
X019247Y020066D02*
X019147Y020066D01*
X018797Y020066D02*
X018780Y020064D01*
X018763Y020060D01*
X018747Y020053D01*
X018733Y020043D01*
X018720Y020030D01*
X018710Y020016D01*
X018703Y020000D01*
X018699Y019983D01*
X018697Y019966D01*
X020247Y019666D02*
X020249Y019690D01*
X020255Y019714D01*
X020264Y019736D01*
X020277Y019756D01*
X020293Y019774D01*
X020312Y019789D01*
X020333Y019802D01*
X020355Y019810D01*
X020379Y019815D01*
X020403Y019816D01*
X020427Y019813D01*
X020450Y019806D01*
X020472Y019796D01*
X020492Y019782D01*
X020509Y019765D01*
X020524Y019746D01*
X020535Y019725D01*
X020543Y019702D01*
X020547Y019678D01*
X020547Y019654D01*
X020543Y019630D01*
X020535Y019607D01*
X020524Y019586D01*
X020509Y019567D01*
X020492Y019550D01*
X020472Y019536D01*
X020450Y019526D01*
X020427Y019519D01*
X020403Y019516D01*
X020379Y019517D01*
X020355Y019522D01*
X020333Y019530D01*
X020312Y019543D01*
X020293Y019558D01*
X020277Y019576D01*
X020264Y019596D01*
X020255Y019618D01*
X020249Y019642D01*
X020247Y019666D01*
X020293Y016136D02*
X020407Y016136D01*
X020463Y016080D01*
X020463Y015909D01*
X020577Y015909D02*
X020236Y015909D01*
X020236Y016080D01*
X020293Y016136D01*
X020463Y016023D02*
X020577Y016136D01*
X020577Y015768D02*
X020577Y015541D01*
X020236Y015541D01*
X020236Y015768D01*
X020407Y015654D02*
X020407Y015541D01*
X020520Y015400D02*
X020293Y015400D01*
X020236Y015343D01*
X020236Y015173D01*
X020577Y015173D01*
X020577Y015343D01*
X020520Y015400D01*
X020577Y015031D02*
X020236Y015031D01*
X020236Y014804D02*
X020577Y015031D01*
X020577Y014804D02*
X020236Y014804D01*
X020236Y014663D02*
X020236Y014436D01*
X020577Y014436D01*
X020577Y014663D01*
X020407Y014550D02*
X020407Y014436D01*
X020293Y014295D02*
X020520Y014068D01*
X020577Y014068D01*
X020577Y014295D01*
X020293Y014295D02*
X020236Y014295D01*
X020236Y014068D01*
X020236Y013558D02*
X020577Y013558D01*
X020236Y013331D01*
X020577Y013331D01*
X020520Y013190D02*
X020293Y013190D01*
X020236Y013133D01*
X020236Y013020D01*
X020293Y012963D01*
X020520Y012963D01*
X020577Y013020D01*
X020577Y013133D01*
X020520Y013190D01*
X020520Y012821D02*
X020293Y012821D01*
X020236Y012765D01*
X020236Y012651D01*
X020293Y012595D01*
X020520Y012595D01*
X020577Y012651D01*
X020577Y012765D01*
X020520Y012821D01*
X020236Y012453D02*
X020236Y012226D01*
X020577Y012226D01*
X020577Y012085D02*
X020577Y011858D01*
X020236Y011858D01*
X020236Y012085D01*
X020407Y011971D02*
X020407Y011858D01*
X020577Y011716D02*
X020577Y011490D01*
X020236Y011490D01*
X020236Y011348D02*
X020236Y011121D01*
X020577Y011121D01*
X020577Y011348D01*
X020407Y011235D02*
X020407Y011121D01*
X020236Y010980D02*
X020236Y010753D01*
X020236Y010866D02*
X020577Y010866D01*
X020407Y010243D02*
X020407Y010016D01*
X020407Y009507D02*
X020407Y009280D01*
X020350Y009280D02*
X020236Y009393D01*
X020350Y009507D01*
X020577Y009507D01*
X020577Y009280D02*
X020350Y009280D01*
X020293Y009138D02*
X020236Y009082D01*
X020236Y008968D01*
X020293Y008911D01*
X020350Y008911D01*
X020407Y008968D01*
X020407Y009082D01*
X020463Y009138D01*
X020520Y009138D01*
X020577Y009082D01*
X020577Y008968D01*
X020520Y008911D01*
X020577Y008779D02*
X020577Y008666D01*
X020577Y008723D02*
X020236Y008723D01*
X020236Y008779D02*
X020236Y008666D01*
X018053Y008014D02*
X018053Y005254D01*
X015433Y005254D01*
X015293Y005394D01*
X015293Y008014D01*
X018053Y008014D01*
X015452Y005554D02*
X015454Y005577D01*
X015460Y005600D01*
X015469Y005621D01*
X015482Y005641D01*
X015498Y005658D01*
X015516Y005672D01*
X015536Y005683D01*
X015558Y005691D01*
X015581Y005695D01*
X015605Y005695D01*
X015628Y005691D01*
X015650Y005683D01*
X015670Y005672D01*
X015688Y005658D01*
X015704Y005641D01*
X015717Y005621D01*
X015726Y005600D01*
X015732Y005577D01*
X015734Y005554D01*
X015732Y005531D01*
X015726Y005508D01*
X015717Y005487D01*
X015704Y005467D01*
X015688Y005450D01*
X015670Y005436D01*
X015650Y005425D01*
X015628Y005417D01*
X015605Y005413D01*
X015581Y005413D01*
X015558Y005417D01*
X015536Y005425D01*
X015516Y005436D01*
X015498Y005450D01*
X015482Y005467D01*
X015469Y005487D01*
X015460Y005508D01*
X015454Y005531D01*
X015452Y005554D01*
X015217Y002967D02*
X014717Y002967D01*
X014467Y002717D01*
X014217Y002967D01*
X013717Y002967D01*
X013467Y002717D01*
X013217Y002967D01*
X012717Y002967D01*
X012467Y002717D01*
X012217Y002967D01*
X011717Y002967D01*
X011467Y002717D01*
X011467Y002217D01*
X011717Y001967D01*
X012217Y001967D01*
X012467Y002217D01*
X012717Y001967D01*
X013217Y001967D01*
X013467Y002217D01*
X013717Y001967D01*
X014217Y001967D01*
X014467Y002217D01*
X014717Y001967D01*
X015217Y001967D01*
X015467Y002217D01*
X015717Y001967D01*
X016217Y001967D01*
X016467Y002217D01*
X016717Y001967D01*
X017217Y001967D01*
X017467Y002217D01*
X017467Y002717D01*
X017217Y002967D01*
X016717Y002967D01*
X016467Y002717D01*
X016217Y002967D01*
X015717Y002967D01*
X015467Y002717D01*
X015217Y002967D01*
X010577Y008846D02*
X010577Y008959D01*
X010577Y008903D02*
X010236Y008903D01*
X010236Y008959D02*
X010236Y008846D01*
X010293Y009091D02*
X010350Y009091D01*
X010407Y009148D01*
X010407Y009262D01*
X010463Y009318D01*
X010520Y009318D01*
X010577Y009262D01*
X010577Y009148D01*
X010520Y009091D01*
X010293Y009091D02*
X010236Y009148D01*
X010236Y009262D01*
X010293Y009318D01*
X010350Y009460D02*
X010236Y009573D01*
X010350Y009687D01*
X010577Y009687D01*
X010407Y009687D02*
X010407Y009460D01*
X010350Y009460D02*
X010577Y009460D01*
X010407Y010196D02*
X010407Y010423D01*
X010236Y010933D02*
X010577Y010933D01*
X010577Y011103D01*
X010520Y011160D01*
X010293Y011160D01*
X010236Y011103D01*
X010236Y010933D01*
X010236Y011301D02*
X010577Y011301D01*
X010577Y011528D01*
X010520Y011670D02*
X010236Y011670D01*
X010236Y011528D02*
X010236Y011301D01*
X010407Y011301D02*
X010407Y011415D01*
X010520Y011670D02*
X010577Y011726D01*
X010577Y011840D01*
X010520Y011896D01*
X010236Y011896D01*
X010236Y012038D02*
X010236Y012208D01*
X010293Y012265D01*
X010407Y012265D01*
X010463Y012208D01*
X010463Y012038D01*
X010463Y012151D02*
X010577Y012265D01*
X010577Y012406D02*
X010577Y012576D01*
X010520Y012633D01*
X010463Y012633D01*
X010407Y012576D01*
X010407Y012406D01*
X010577Y012406D02*
X010236Y012406D01*
X010236Y012576D01*
X010293Y012633D01*
X010350Y012633D01*
X010407Y012576D01*
X010407Y012775D02*
X010407Y012888D01*
X010577Y012775D02*
X010577Y013001D01*
X010577Y013143D02*
X010236Y013143D01*
X010236Y013001D02*
X010236Y012775D01*
X010577Y012775D01*
X010577Y013143D02*
X010577Y013370D01*
X010577Y013879D02*
X010577Y014106D01*
X010577Y014248D02*
X010236Y014248D01*
X010236Y014475D01*
X010236Y014616D02*
X010577Y014843D01*
X010236Y014843D01*
X010236Y014984D02*
X010236Y015155D01*
X010293Y015211D01*
X010520Y015211D01*
X010577Y015155D01*
X010577Y014984D01*
X010236Y014984D01*
X010236Y014616D02*
X010577Y014616D01*
X010577Y014475D02*
X010577Y014248D01*
X010407Y014248D02*
X010407Y014361D01*
X010293Y014106D02*
X010520Y013879D01*
X010577Y013879D01*
X010236Y013879D02*
X010236Y014106D01*
X010293Y014106D01*
X010236Y015353D02*
X010577Y015353D01*
X010577Y015580D01*
X010577Y015721D02*
X010236Y015721D01*
X010236Y015891D01*
X010293Y015948D01*
X010407Y015948D01*
X010463Y015891D01*
X010463Y015721D01*
X010463Y015834D02*
X010577Y015948D01*
X010236Y015580D02*
X010236Y015353D01*
X010407Y015353D02*
X010407Y015466D01*
X013530Y015486D02*
X013530Y015713D01*
X013644Y015826D01*
X013757Y015713D01*
X013757Y015486D01*
X013899Y015486D02*
X013899Y015713D01*
X014069Y015713D01*
X014126Y015656D01*
X014126Y015486D01*
X014324Y015543D02*
X014324Y015769D01*
X014267Y015713D02*
X014380Y015713D01*
X014324Y015543D02*
X014380Y015486D01*
X014513Y015486D02*
X014569Y015486D01*
X014569Y015543D01*
X014513Y015543D01*
X014513Y015486D01*
X014498Y015076D02*
X014385Y015076D01*
X014328Y015019D01*
X014328Y014793D01*
X014385Y014736D01*
X014498Y014736D01*
X014555Y014793D01*
X014555Y015019D02*
X014498Y015076D01*
X014187Y015019D02*
X014130Y015076D01*
X014017Y015076D01*
X013960Y015019D01*
X013960Y014793D01*
X014017Y014736D01*
X014130Y014736D01*
X014187Y014793D01*
X013819Y014849D02*
X013819Y015076D01*
X013819Y014849D02*
X013705Y014736D01*
X013592Y014849D01*
X013592Y015076D01*
X013530Y015656D02*
X013757Y015656D01*
X013762Y014326D02*
X013648Y014326D01*
X013592Y014269D01*
X013592Y014043D01*
X013648Y013986D01*
X013762Y013986D01*
X013819Y014043D01*
X013819Y014156D01*
X013705Y014156D01*
X013819Y014269D02*
X013762Y014326D01*
X013960Y014326D02*
X013960Y013986D01*
X014187Y013986D02*
X013960Y014326D01*
X014187Y014326D02*
X014187Y013986D01*
X014328Y013986D02*
X014498Y013986D01*
X014555Y014043D01*
X014555Y014269D01*
X014498Y014326D01*
X014328Y014326D01*
X014328Y013986D01*
X010577Y012038D02*
X010236Y012038D01*
X008153Y008014D02*
X008153Y005254D01*
X005533Y005254D01*
X005393Y005394D01*
X005393Y008014D01*
X008153Y008014D01*
X005552Y005554D02*
X005554Y005577D01*
X005560Y005600D01*
X005569Y005621D01*
X005582Y005641D01*
X005598Y005658D01*
X005616Y005672D01*
X005636Y005683D01*
X005658Y005691D01*
X005681Y005695D01*
X005705Y005695D01*
X005728Y005691D01*
X005750Y005683D01*
X005770Y005672D01*
X005788Y005658D01*
X005804Y005641D01*
X005817Y005621D01*
X005826Y005600D01*
X005832Y005577D01*
X005834Y005554D01*
X005832Y005531D01*
X005826Y005508D01*
X005817Y005487D01*
X005804Y005467D01*
X005788Y005450D01*
X005770Y005436D01*
X005750Y005425D01*
X005728Y005417D01*
X005705Y005413D01*
X005681Y005413D01*
X005658Y005417D01*
X005636Y005425D01*
X005616Y005436D01*
X005598Y005450D01*
X005582Y005467D01*
X005569Y005487D01*
X005560Y005508D01*
X005554Y005531D01*
X005552Y005554D01*
X005398Y002944D02*
X004898Y002944D01*
X004648Y002694D01*
X004398Y002944D01*
X003898Y002944D01*
X003648Y002694D01*
X003398Y002944D01*
X002898Y002944D01*
X002648Y002694D01*
X002398Y002944D01*
X001898Y002944D01*
X001648Y002694D01*
X001648Y002194D01*
X001898Y001944D01*
X002398Y001944D01*
X002648Y002194D01*
X002898Y001944D01*
X003398Y001944D01*
X003648Y002194D01*
X003898Y001944D01*
X004398Y001944D01*
X004648Y002194D01*
X004898Y001944D01*
X005398Y001944D01*
X005648Y002194D01*
X005898Y001944D01*
X006398Y001944D01*
X006648Y002194D01*
X006898Y001944D01*
X007398Y001944D01*
X007648Y002194D01*
X007648Y002694D01*
X007398Y002944D01*
X006898Y002944D01*
X006648Y002694D01*
X006398Y002944D01*
X005898Y002944D01*
X005648Y002694D01*
X005398Y002944D01*
X020407Y012226D02*
X020407Y012340D01*
D12*
X016241Y017100D02*
X015493Y017100D01*
X015867Y017671D01*
X016241Y017100D01*
X014212Y016836D02*
X013641Y017210D01*
X013641Y016462D01*
X014212Y016836D01*
X013651Y017752D02*
X013651Y018500D01*
X014222Y018126D01*
X013651Y017752D01*
X012131Y018270D02*
X011383Y018270D01*
X011757Y018841D01*
X012131Y018270D01*
X011047Y021026D02*
X011047Y001356D01*
X010855Y001950D02*
X007855Y001950D01*
X007855Y003950D01*
X010855Y003950D01*
X010855Y001950D01*
X017635Y001996D02*
X017635Y003996D01*
X020635Y003996D01*
X020635Y001996D01*
X017635Y001996D01*
X017587Y020166D02*
X017587Y020466D01*
X017587Y020766D01*
X017687Y020766D01*
X017587Y020466D02*
X017087Y020766D01*
X017587Y020466D02*
X017087Y020166D01*
X017487Y020166D02*
X017587Y020166D01*
D13*
X018361Y019568D02*
X018560Y019568D01*
X018560Y019292D01*
X018560Y018072D02*
X018560Y017520D01*
X018088Y017520D01*
X016982Y017520D02*
X016513Y017520D01*
X016513Y018072D01*
X016513Y019292D02*
X016513Y019568D01*
X016710Y019568D01*
X019119Y016112D02*
X013214Y016112D01*
X016667Y013856D02*
X016667Y011856D01*
X016669Y011798D01*
X016675Y011739D01*
X016685Y011682D01*
X016698Y011625D01*
X016715Y011569D01*
X016736Y011514D01*
X016761Y011461D01*
X016789Y011410D01*
X016821Y011361D01*
X016855Y011314D01*
X016893Y011269D01*
X016934Y011227D01*
X016977Y011188D01*
X017023Y011152D01*
X017071Y011118D01*
X017121Y011089D01*
X017174Y011062D01*
X017228Y011039D01*
X017283Y011020D01*
X017339Y011005D01*
X017396Y010993D01*
X017454Y010985D01*
X017513Y010981D01*
X017571Y010981D01*
X017630Y010985D01*
X017688Y010993D01*
X017745Y011005D01*
X017801Y011020D01*
X017856Y011039D01*
X017910Y011062D01*
X017963Y011089D01*
X018013Y011118D01*
X018061Y011152D01*
X018107Y011188D01*
X018150Y011227D01*
X018191Y011269D01*
X018229Y011314D01*
X018263Y011361D01*
X018295Y011410D01*
X018323Y011461D01*
X018348Y011514D01*
X018369Y011569D01*
X018386Y011625D01*
X018399Y011682D01*
X018409Y011739D01*
X018415Y011798D01*
X018417Y011856D01*
X018417Y013856D01*
X018423Y013914D01*
X018426Y013972D01*
X018425Y014030D01*
X018419Y014088D01*
X018411Y014146D01*
X018398Y014203D01*
X018381Y014258D01*
X018361Y014313D01*
X018338Y014366D01*
X018311Y014418D01*
X018280Y014467D01*
X018246Y014515D01*
X018210Y014560D01*
X018170Y014603D01*
X018128Y014643D01*
X018083Y014680D01*
X018036Y014714D01*
X017987Y014745D01*
X017935Y014773D01*
X017882Y014797D01*
X017828Y014817D01*
X017772Y014834D01*
X017716Y014848D01*
X017658Y014857D01*
X017600Y014863D01*
X017542Y014865D01*
X017484Y014863D01*
X017426Y014857D01*
X017368Y014848D01*
X017312Y014834D01*
X017256Y014817D01*
X017202Y014797D01*
X017149Y014773D01*
X017097Y014745D01*
X017048Y014714D01*
X017001Y014680D01*
X016956Y014643D01*
X016914Y014603D01*
X016874Y014560D01*
X016838Y014515D01*
X016804Y014467D01*
X016773Y014418D01*
X016746Y014366D01*
X016723Y014313D01*
X016703Y014258D01*
X016686Y014203D01*
X016673Y014146D01*
X016665Y014088D01*
X016659Y014030D01*
X016658Y013972D01*
X016661Y013914D01*
X016667Y013856D01*
X019119Y010600D02*
X013214Y010600D01*
X013861Y007740D02*
X014373Y007740D01*
X014373Y007071D01*
X013861Y007071D01*
X013861Y007740D01*
X013880Y007288D02*
X014353Y007288D01*
X014353Y007248D02*
X013880Y007248D01*
X013880Y007288D01*
X012656Y006739D02*
X012656Y004573D01*
X012655Y004573D02*
X012654Y004556D01*
X012649Y004539D01*
X012642Y004524D01*
X012632Y004510D01*
X012620Y004498D01*
X012606Y004488D01*
X012591Y004481D01*
X012574Y004476D01*
X012557Y004475D01*
X012400Y004475D01*
X012262Y005065D02*
X011671Y005065D01*
X011671Y006246D01*
X012262Y006246D01*
X012262Y005065D01*
X011534Y004475D02*
X011376Y004475D01*
X011356Y004480D01*
X011337Y004489D01*
X011320Y004500D01*
X011305Y004515D01*
X011293Y004532D01*
X011284Y004551D01*
X011278Y004571D01*
X011276Y004592D01*
X011278Y004613D01*
X011278Y006739D01*
X011279Y006756D01*
X011284Y006773D01*
X011291Y006788D01*
X011301Y006802D01*
X011313Y006814D01*
X011327Y006824D01*
X011342Y006831D01*
X011359Y006836D01*
X011376Y006837D01*
X011534Y006837D01*
X012400Y006837D02*
X012557Y006837D01*
X012574Y006836D01*
X012591Y006831D01*
X012606Y006824D01*
X012620Y006814D01*
X012632Y006802D01*
X012642Y006788D01*
X012649Y006773D01*
X012654Y006756D01*
X012655Y006739D01*
X009051Y010633D02*
X003145Y010633D01*
X004001Y007710D02*
X004513Y007710D01*
X004513Y007041D01*
X004001Y007041D01*
X004001Y007710D01*
X004020Y007258D02*
X004493Y007258D01*
X004493Y007218D02*
X004020Y007218D01*
X004020Y007258D01*
X002786Y006739D02*
X002786Y004573D01*
X002785Y004573D02*
X002784Y004556D01*
X002779Y004539D01*
X002772Y004524D01*
X002762Y004510D01*
X002750Y004498D01*
X002736Y004488D01*
X002721Y004481D01*
X002704Y004476D01*
X002687Y004475D01*
X002530Y004475D01*
X002392Y005065D02*
X001801Y005065D01*
X001801Y006246D01*
X002392Y006246D01*
X002392Y005065D01*
X001664Y004475D02*
X001506Y004475D01*
X001486Y004480D01*
X001467Y004489D01*
X001450Y004500D01*
X001435Y004515D01*
X001423Y004532D01*
X001414Y004551D01*
X001408Y004571D01*
X001406Y004592D01*
X001408Y004613D01*
X001408Y006739D01*
X001409Y006756D01*
X001414Y006773D01*
X001421Y006788D01*
X001431Y006802D01*
X001443Y006814D01*
X001457Y006824D01*
X001472Y006831D01*
X001489Y006836D01*
X001506Y006837D01*
X001664Y006837D01*
X002530Y006837D02*
X002687Y006837D01*
X002704Y006836D01*
X002721Y006831D01*
X002736Y006824D01*
X002750Y006814D01*
X002762Y006802D01*
X002772Y006788D01*
X002779Y006773D01*
X002784Y006756D01*
X002785Y006739D01*
X006598Y011889D02*
X006598Y013889D01*
X006592Y013947D01*
X006589Y014005D01*
X006590Y014063D01*
X006596Y014121D01*
X006604Y014179D01*
X006617Y014236D01*
X006634Y014291D01*
X006654Y014346D01*
X006677Y014399D01*
X006704Y014451D01*
X006735Y014500D01*
X006769Y014548D01*
X006805Y014593D01*
X006845Y014636D01*
X006887Y014676D01*
X006932Y014713D01*
X006979Y014747D01*
X007028Y014778D01*
X007080Y014806D01*
X007133Y014830D01*
X007187Y014850D01*
X007243Y014867D01*
X007299Y014881D01*
X007357Y014890D01*
X007415Y014896D01*
X007473Y014898D01*
X007531Y014896D01*
X007589Y014890D01*
X007647Y014881D01*
X007703Y014867D01*
X007759Y014850D01*
X007813Y014830D01*
X007866Y014806D01*
X007918Y014778D01*
X007967Y014747D01*
X008014Y014713D01*
X008059Y014676D01*
X008101Y014636D01*
X008141Y014593D01*
X008177Y014548D01*
X008211Y014500D01*
X008242Y014451D01*
X008269Y014399D01*
X008292Y014346D01*
X008312Y014291D01*
X008329Y014236D01*
X008342Y014179D01*
X008350Y014121D01*
X008356Y014063D01*
X008357Y014005D01*
X008354Y013947D01*
X008348Y013889D01*
X008348Y011889D01*
X008346Y011831D01*
X008340Y011772D01*
X008330Y011715D01*
X008317Y011658D01*
X008300Y011602D01*
X008279Y011547D01*
X008254Y011494D01*
X008226Y011443D01*
X008194Y011394D01*
X008160Y011347D01*
X008122Y011302D01*
X008081Y011260D01*
X008038Y011221D01*
X007992Y011185D01*
X007944Y011151D01*
X007894Y011122D01*
X007841Y011095D01*
X007787Y011072D01*
X007732Y011053D01*
X007676Y011038D01*
X007619Y011026D01*
X007561Y011018D01*
X007502Y011014D01*
X007444Y011014D01*
X007385Y011018D01*
X007327Y011026D01*
X007270Y011038D01*
X007214Y011053D01*
X007159Y011072D01*
X007105Y011095D01*
X007052Y011122D01*
X007002Y011151D01*
X006954Y011185D01*
X006908Y011221D01*
X006865Y011260D01*
X006824Y011302D01*
X006786Y011347D01*
X006752Y011394D01*
X006720Y011443D01*
X006692Y011494D01*
X006667Y011547D01*
X006646Y011602D01*
X006629Y011658D01*
X006616Y011715D01*
X006606Y011772D01*
X006600Y011831D01*
X006598Y011889D01*
X009051Y016145D02*
X003145Y016145D01*
X005085Y018722D02*
X005360Y018722D01*
X005085Y018722D02*
X005085Y018919D01*
X006581Y018722D02*
X007132Y018722D01*
X007132Y019191D01*
X007132Y020297D02*
X007132Y020769D01*
X006581Y020769D01*
X005360Y020769D02*
X005085Y020769D01*
X005085Y020570D01*
D14*
X007557Y018446D02*
X007557Y016446D01*
X018697Y019896D02*
X020697Y019896D01*
D15*
X014241Y018126D03*
X014231Y016836D03*
D16*
X015867Y017690D03*
X011757Y018860D03*
M02*
