G75*
G70*
%OFA0B0*%
%FSLAX24Y24*%
%IPPOS*%
%LPD*%
%AMOC8*
5,1,8,0,0,1.08239X$1,22.5*
%
%ADD10C,0.0100*%
%ADD11C,0.0640*%
%ADD12R,0.0631X0.0552*%
%ADD13OC8,0.0670*%
%ADD14R,0.0640X0.0640*%
%ADD15OC8,0.0640*%
%ADD16R,0.1040X0.0540*%
%ADD17R,0.0260X0.0540*%
%ADD18R,0.0540X0.0260*%
%ADD19R,0.0840X0.0300*%
%ADD20R,0.0552X0.0631*%
%ADD21R,0.0591X0.0434*%
%ADD22R,0.0355X0.0434*%
%ADD23C,0.0840*%
%ADD24R,0.0670X0.0946*%
%ADD25R,0.0552X0.0552*%
%ADD26R,0.0827X0.0592*%
%ADD27R,0.2040X0.0760*%
%ADD28R,0.0300X0.0840*%
%ADD29R,0.0592X0.0827*%
%ADD30OC8,0.0560*%
%ADD31R,0.0749X0.0709*%
%ADD32R,0.0709X0.0749*%
D10*
X001167Y001356D02*
X001167Y021031D01*
X020842Y021031D01*
X020842Y021056D01*
X020842Y021031D02*
X020842Y001356D01*
X001167Y001356D01*
D11*
X002148Y002144D02*
X002148Y002744D01*
X003148Y002744D02*
X003148Y002144D01*
X004148Y002144D02*
X004148Y002744D01*
X005148Y002744D02*
X005148Y002144D01*
X006148Y002144D02*
X006148Y002744D01*
X007148Y002744D02*
X007148Y002144D01*
X011967Y002167D02*
X011967Y002767D01*
X012967Y002767D02*
X012967Y002167D01*
X013967Y002167D02*
X013967Y002767D01*
X014967Y002767D02*
X014967Y002167D01*
X015967Y002167D02*
X015967Y002767D01*
X016967Y002767D02*
X016967Y002167D01*
D12*
X013317Y006921D03*
X013317Y007590D03*
X019167Y016591D03*
X019167Y017260D03*
X008117Y019741D03*
X008117Y020410D03*
X003401Y007629D03*
X003401Y006960D03*
D13*
X001676Y015727D03*
X011567Y015706D03*
D14*
X008355Y002450D03*
X018135Y002496D03*
D15*
X018135Y003496D03*
X019135Y003496D03*
X020135Y003496D03*
X020135Y002496D03*
X019135Y002496D03*
X010355Y002450D03*
X010355Y003450D03*
X009355Y003450D03*
X009355Y002450D03*
X008355Y003450D03*
D16*
X009247Y011027D03*
X009247Y011815D03*
X009247Y012602D03*
X009247Y013389D03*
X009247Y014177D03*
X009247Y014964D03*
X009247Y015752D03*
X013017Y015718D03*
X013017Y014931D03*
X013017Y014143D03*
X013017Y013356D03*
X013017Y012568D03*
X013017Y011781D03*
X013017Y010994D03*
X019316Y010994D03*
X019316Y011781D03*
X019316Y012568D03*
X019316Y013356D03*
X019316Y014143D03*
X019316Y014931D03*
X019316Y015718D03*
X002948Y015752D03*
X002948Y014964D03*
X002948Y014177D03*
X002948Y013389D03*
X002948Y012602D03*
X002948Y011815D03*
X002948Y011027D03*
D17*
X005670Y008324D03*
X005985Y008324D03*
X006300Y008324D03*
X006615Y008324D03*
X006930Y008324D03*
X007245Y008324D03*
X007560Y008324D03*
X007875Y008324D03*
X007875Y004944D03*
X007560Y004944D03*
X007245Y004944D03*
X006930Y004944D03*
X006615Y004944D03*
X006300Y004944D03*
X005985Y004944D03*
X005670Y004944D03*
X015570Y004944D03*
X015885Y004944D03*
X016200Y004944D03*
X016515Y004944D03*
X016830Y004944D03*
X017145Y004944D03*
X017460Y004944D03*
X017775Y004944D03*
X017775Y008324D03*
X017460Y008324D03*
X017145Y008324D03*
X016830Y008324D03*
X016515Y008324D03*
X016200Y008324D03*
X015885Y008324D03*
X015570Y008324D03*
D18*
X014983Y007737D03*
X014983Y007422D03*
X014983Y007107D03*
X014983Y006792D03*
X014983Y006477D03*
X014983Y006162D03*
X014983Y005847D03*
X014983Y005532D03*
X018363Y005532D03*
X018363Y005847D03*
X018363Y006162D03*
X018363Y006477D03*
X018363Y006792D03*
X018363Y007107D03*
X018363Y007422D03*
X018363Y007737D03*
X008463Y007737D03*
X008463Y007422D03*
X008463Y007107D03*
X008463Y006792D03*
X008463Y006477D03*
X008463Y006162D03*
X008463Y005847D03*
X008463Y005532D03*
X005083Y005532D03*
X005083Y005847D03*
X005083Y006162D03*
X005083Y006477D03*
X005083Y006792D03*
X005083Y007107D03*
X005083Y007422D03*
X005083Y007737D03*
D19*
X005717Y016696D03*
X005717Y017196D03*
X005717Y017696D03*
X005717Y018196D03*
X008137Y018196D03*
X008137Y017696D03*
X008137Y017196D03*
X008137Y016696D03*
D20*
X004811Y016696D03*
X004142Y016696D03*
X002551Y009876D03*
X001882Y009876D03*
X006752Y009186D03*
X007421Y009186D03*
X011832Y009836D03*
X012501Y009836D03*
X016632Y009306D03*
X017301Y009306D03*
X017221Y003966D03*
X016552Y003966D03*
X012351Y003506D03*
X011682Y003506D03*
X007321Y003966D03*
X006652Y003966D03*
X002491Y003506D03*
X001822Y003506D03*
X016972Y016606D03*
X017641Y016606D03*
D21*
X014200Y010220D03*
X014200Y009472D03*
X013334Y009846D03*
X004260Y010220D03*
X004260Y009472D03*
X003394Y009846D03*
D22*
X004257Y007770D03*
X004257Y006982D03*
X014117Y007012D03*
X014117Y007800D03*
D23*
X012117Y007906D03*
X010267Y007906D03*
X002267Y007906D03*
X002267Y016756D03*
X010267Y016756D03*
X012117Y016756D03*
X020117Y016756D03*
X020117Y007906D03*
D24*
X011967Y006896D03*
X011967Y004416D03*
X002097Y004416D03*
X002097Y006896D03*
D25*
X004967Y019293D03*
X004967Y020199D03*
X017084Y019686D03*
X017989Y019686D03*
D26*
X007242Y019746D03*
D27*
X009747Y020376D03*
X009747Y019036D03*
X012277Y020416D03*
X015157Y020406D03*
D28*
X018947Y020476D03*
X019447Y020476D03*
X019947Y020476D03*
X020447Y020476D03*
X020447Y018056D03*
X019947Y018056D03*
X019447Y018056D03*
X018947Y018056D03*
D29*
X017537Y017411D03*
D30*
X015727Y019296D03*
X016887Y020466D03*
X017887Y020466D03*
X012727Y019296D03*
D31*
X013100Y018126D03*
X013090Y016836D03*
X014704Y016836D03*
X014714Y018126D03*
D32*
X015867Y018163D03*
X015867Y016549D03*
X011757Y017719D03*
X011757Y019333D03*
M02*
