G75*
G70*
%OFA0B0*%
%FSLAX24Y24*%
%IPPOS*%
%LPD*%
%AMOC8*
5,1,8,0,0,1.08239X$1,22.5*
%
%ADD10C,0.0100*%
%ADD11C,0.0640*%
%ADD12OC8,0.0670*%
%ADD13R,0.0640X0.0640*%
%ADD14OC8,0.0640*%
%ADD15C,0.0840*%
%ADD16OC8,0.0560*%
D10*
X001167Y001356D02*
X001167Y021031D01*
X020842Y021031D01*
X020842Y021056D01*
X020842Y021031D02*
X020842Y001356D01*
X001167Y001356D01*
D11*
X002148Y002144D02*
X002148Y002744D01*
X003148Y002744D02*
X003148Y002144D01*
X004148Y002144D02*
X004148Y002744D01*
X005148Y002744D02*
X005148Y002144D01*
X006148Y002144D02*
X006148Y002744D01*
X007148Y002744D02*
X007148Y002144D01*
X011967Y002167D02*
X011967Y002767D01*
X012967Y002767D02*
X012967Y002167D01*
X013967Y002167D02*
X013967Y002767D01*
X014967Y002767D02*
X014967Y002167D01*
X015967Y002167D02*
X015967Y002767D01*
X016967Y002767D02*
X016967Y002167D01*
D12*
X011567Y015706D03*
X001676Y015727D03*
D13*
X008355Y002450D03*
X018135Y002496D03*
D14*
X018135Y003496D03*
X019135Y003496D03*
X020135Y003496D03*
X020135Y002496D03*
X019135Y002496D03*
X010355Y002450D03*
X010355Y003450D03*
X009355Y003450D03*
X009355Y002450D03*
X008355Y003450D03*
D15*
X010267Y007906D03*
X012117Y007906D03*
X020117Y007906D03*
X020117Y016756D03*
X012117Y016756D03*
X010267Y016756D03*
X002267Y016756D03*
X002267Y007906D03*
D16*
X012727Y019296D03*
X015727Y019296D03*
X016887Y020466D03*
X017887Y020466D03*
M02*
