G75*
G70*
%OFA0B0*%
%FSLAX24Y24*%
%IPPOS*%
%LPD*%
%AMOC8*
5,1,8,0,0,1.08239X$1,22.5*
%
%ADD10C,0.0100*%
%ADD11C,0.0050*%
D10*
X001167Y001356D02*
X001167Y021031D01*
X020842Y021031D01*
X020842Y021056D01*
X020842Y021031D02*
X020842Y001356D01*
X001167Y001356D01*
D11*
X001117Y007906D02*
X001122Y008117D01*
X001138Y008327D01*
X001164Y008537D01*
X001200Y008745D01*
X001246Y008951D01*
X001302Y009154D01*
X001368Y009355D01*
X001444Y009552D01*
X001530Y009744D01*
X001625Y009933D01*
X001729Y010117D01*
X001842Y010295D01*
X001963Y010468D01*
X002093Y010634D01*
X002231Y010794D01*
X002376Y010947D01*
X002529Y011092D01*
X002689Y011230D01*
X002855Y011360D01*
X003028Y011481D01*
X003206Y011594D01*
X003390Y011698D01*
X003579Y011793D01*
X003771Y011879D01*
X003968Y011955D01*
X004169Y012021D01*
X004372Y012077D01*
X004578Y012123D01*
X004786Y012159D01*
X004996Y012185D01*
X005206Y012201D01*
X005417Y012206D01*
X005628Y012201D01*
X005838Y012185D01*
X006048Y012159D01*
X006256Y012123D01*
X006462Y012077D01*
X006665Y012021D01*
X006866Y011955D01*
X007063Y011879D01*
X007255Y011793D01*
X007444Y011698D01*
X007628Y011594D01*
X007806Y011481D01*
X007979Y011360D01*
X008145Y011230D01*
X008305Y011092D01*
X008458Y010947D01*
X008603Y010794D01*
X008741Y010634D01*
X008871Y010468D01*
X008992Y010295D01*
X009105Y010117D01*
X009209Y009933D01*
X009304Y009744D01*
X009390Y009552D01*
X009466Y009355D01*
X009532Y009154D01*
X009588Y008951D01*
X009634Y008745D01*
X009670Y008537D01*
X009696Y008327D01*
X009712Y008117D01*
X009717Y007906D01*
X009712Y007695D01*
X009696Y007485D01*
X009670Y007275D01*
X009634Y007067D01*
X009588Y006861D01*
X009532Y006658D01*
X009466Y006457D01*
X009390Y006260D01*
X009304Y006068D01*
X009209Y005879D01*
X009105Y005695D01*
X008992Y005517D01*
X008871Y005344D01*
X008741Y005178D01*
X008603Y005018D01*
X008458Y004865D01*
X008305Y004720D01*
X008145Y004582D01*
X007979Y004452D01*
X007806Y004331D01*
X007628Y004218D01*
X007444Y004114D01*
X007255Y004019D01*
X007063Y003933D01*
X006866Y003857D01*
X006665Y003791D01*
X006462Y003735D01*
X006256Y003689D01*
X006048Y003653D01*
X005838Y003627D01*
X005628Y003611D01*
X005417Y003606D01*
X005206Y003611D01*
X004996Y003627D01*
X004786Y003653D01*
X004578Y003689D01*
X004372Y003735D01*
X004169Y003791D01*
X003968Y003857D01*
X003771Y003933D01*
X003579Y004019D01*
X003390Y004114D01*
X003206Y004218D01*
X003028Y004331D01*
X002855Y004452D01*
X002689Y004582D01*
X002529Y004720D01*
X002376Y004865D01*
X002231Y005018D01*
X002093Y005178D01*
X001963Y005344D01*
X001842Y005517D01*
X001729Y005695D01*
X001625Y005879D01*
X001530Y006068D01*
X001444Y006260D01*
X001368Y006457D01*
X001302Y006658D01*
X001246Y006861D01*
X001200Y007067D01*
X001164Y007275D01*
X001138Y007485D01*
X001122Y007695D01*
X001117Y007906D01*
X000742Y008287D02*
X000742Y008512D01*
X000667Y008588D01*
X000592Y008588D01*
X000517Y008512D01*
X000517Y008287D01*
X000292Y008287D02*
X000742Y008287D01*
X000517Y008512D02*
X000442Y008588D01*
X000367Y008588D01*
X000292Y008512D01*
X000292Y008287D01*
X000292Y008748D02*
X000592Y008748D01*
X000742Y008898D01*
X000592Y009048D01*
X000292Y009048D01*
X000517Y009048D02*
X000517Y008748D01*
X000742Y009208D02*
X000742Y009508D01*
X000742Y009358D02*
X000292Y009358D01*
X000742Y009668D02*
X000742Y009969D01*
X000742Y009819D02*
X000292Y009819D01*
X000292Y010129D02*
X000292Y010429D01*
X000292Y010589D02*
X000742Y010589D01*
X000742Y010814D01*
X000667Y010890D01*
X000517Y010890D01*
X000442Y010814D01*
X000442Y010589D01*
X000442Y010739D02*
X000292Y010890D01*
X000517Y011200D02*
X000667Y011050D01*
X000742Y011050D01*
X000517Y011200D02*
X000292Y011200D01*
X000517Y011200D02*
X000667Y011350D01*
X000742Y011350D01*
X000592Y011970D02*
X000742Y012121D01*
X000292Y012121D01*
X000292Y012271D02*
X000292Y011970D01*
X000217Y011810D02*
X000217Y011510D01*
X000742Y010429D02*
X000742Y010129D01*
X000292Y010129D01*
X000517Y010129D02*
X000517Y010279D01*
X001117Y016756D02*
X001122Y016967D01*
X001138Y017177D01*
X001164Y017387D01*
X001200Y017595D01*
X001246Y017801D01*
X001302Y018004D01*
X001368Y018205D01*
X001444Y018402D01*
X001530Y018594D01*
X001625Y018783D01*
X001729Y018967D01*
X001842Y019145D01*
X001963Y019318D01*
X002093Y019484D01*
X002231Y019644D01*
X002376Y019797D01*
X002529Y019942D01*
X002689Y020080D01*
X002855Y020210D01*
X003028Y020331D01*
X003206Y020444D01*
X003390Y020548D01*
X003579Y020643D01*
X003771Y020729D01*
X003968Y020805D01*
X004169Y020871D01*
X004372Y020927D01*
X004578Y020973D01*
X004786Y021009D01*
X004996Y021035D01*
X005206Y021051D01*
X005417Y021056D01*
X005628Y021051D01*
X005838Y021035D01*
X006048Y021009D01*
X006256Y020973D01*
X006462Y020927D01*
X006665Y020871D01*
X006866Y020805D01*
X007063Y020729D01*
X007255Y020643D01*
X007444Y020548D01*
X007628Y020444D01*
X007806Y020331D01*
X007979Y020210D01*
X008145Y020080D01*
X008305Y019942D01*
X008458Y019797D01*
X008603Y019644D01*
X008741Y019484D01*
X008871Y019318D01*
X008992Y019145D01*
X009105Y018967D01*
X009209Y018783D01*
X009304Y018594D01*
X009390Y018402D01*
X009466Y018205D01*
X009532Y018004D01*
X009588Y017801D01*
X009634Y017595D01*
X009670Y017387D01*
X009696Y017177D01*
X009712Y016967D01*
X009717Y016756D01*
X009712Y016545D01*
X009696Y016335D01*
X009670Y016125D01*
X009634Y015917D01*
X009588Y015711D01*
X009532Y015508D01*
X009466Y015307D01*
X009390Y015110D01*
X009304Y014918D01*
X009209Y014729D01*
X009105Y014545D01*
X008992Y014367D01*
X008871Y014194D01*
X008741Y014028D01*
X008603Y013868D01*
X008458Y013715D01*
X008305Y013570D01*
X008145Y013432D01*
X007979Y013302D01*
X007806Y013181D01*
X007628Y013068D01*
X007444Y012964D01*
X007255Y012869D01*
X007063Y012783D01*
X006866Y012707D01*
X006665Y012641D01*
X006462Y012585D01*
X006256Y012539D01*
X006048Y012503D01*
X005838Y012477D01*
X005628Y012461D01*
X005417Y012456D01*
X005206Y012461D01*
X004996Y012477D01*
X004786Y012503D01*
X004578Y012539D01*
X004372Y012585D01*
X004169Y012641D01*
X003968Y012707D01*
X003771Y012783D01*
X003579Y012869D01*
X003390Y012964D01*
X003206Y013068D01*
X003028Y013181D01*
X002855Y013302D01*
X002689Y013432D01*
X002529Y013570D01*
X002376Y013715D01*
X002231Y013868D01*
X002093Y014028D01*
X001963Y014194D01*
X001842Y014367D01*
X001729Y014545D01*
X001625Y014729D01*
X001530Y014918D01*
X001444Y015110D01*
X001368Y015307D01*
X001302Y015508D01*
X001246Y015711D01*
X001200Y015917D01*
X001164Y016125D01*
X001138Y016335D01*
X001122Y016545D01*
X001117Y016756D01*
X000742Y017137D02*
X000742Y017362D01*
X000667Y017438D01*
X000592Y017438D01*
X000517Y017362D01*
X000517Y017137D01*
X000292Y017137D02*
X000742Y017137D01*
X000517Y017362D02*
X000442Y017438D01*
X000367Y017438D01*
X000292Y017362D01*
X000292Y017137D01*
X000292Y017598D02*
X000592Y017598D01*
X000742Y017748D01*
X000592Y017898D01*
X000292Y017898D01*
X000517Y017898D02*
X000517Y017598D01*
X000742Y018058D02*
X000742Y018358D01*
X000742Y018208D02*
X000292Y018208D01*
X000292Y018669D02*
X000742Y018669D01*
X000742Y018819D02*
X000742Y018518D01*
X000742Y018979D02*
X000292Y018979D01*
X000292Y019279D01*
X000292Y019439D02*
X000742Y019439D01*
X000742Y019664D01*
X000667Y019740D01*
X000517Y019740D01*
X000442Y019664D01*
X000442Y019439D01*
X000442Y019589D02*
X000292Y019740D01*
X000517Y020050D02*
X000667Y019900D01*
X000742Y019900D01*
X000517Y020050D02*
X000292Y020050D01*
X000517Y020050D02*
X000667Y020200D01*
X000742Y020200D01*
X000217Y020360D02*
X000217Y020660D01*
X000292Y020820D02*
X000592Y021121D01*
X000667Y021121D01*
X000742Y021046D01*
X000742Y020896D01*
X000667Y020820D01*
X000292Y020820D02*
X000292Y021121D01*
X000742Y019279D02*
X000742Y018979D01*
X000517Y018979D02*
X000517Y019129D01*
X009517Y018006D02*
X011017Y018006D01*
X011017Y015506D01*
X009517Y015506D01*
X010142Y017137D02*
X010142Y017362D01*
X010217Y017438D01*
X010292Y017438D01*
X010367Y017362D01*
X010367Y017137D01*
X010592Y017137D02*
X010592Y017362D01*
X010517Y017438D01*
X010442Y017438D01*
X010367Y017362D01*
X010367Y017598D02*
X010367Y017898D01*
X010442Y017898D02*
X010142Y017898D01*
X010442Y017898D02*
X010592Y017748D01*
X010442Y017598D01*
X010142Y017598D01*
X010142Y017137D02*
X010592Y017137D01*
X010592Y018058D02*
X010592Y018358D01*
X010592Y018208D02*
X010142Y018208D01*
X010142Y018669D02*
X010592Y018669D01*
X010592Y018819D02*
X010592Y018518D01*
X010592Y018979D02*
X010142Y018979D01*
X010142Y019279D01*
X010142Y019439D02*
X010592Y019439D01*
X010592Y019664D01*
X010517Y019740D01*
X010367Y019740D01*
X010292Y019664D01*
X010292Y019439D01*
X010292Y019589D02*
X010142Y019740D01*
X010142Y020050D02*
X010367Y020050D01*
X010517Y020200D01*
X010592Y020200D01*
X010367Y020050D02*
X010517Y019900D01*
X010592Y019900D01*
X010067Y020360D02*
X010067Y020660D01*
X010367Y020820D02*
X010367Y021121D01*
X010592Y021046D02*
X010367Y020820D01*
X010142Y021046D02*
X010592Y021046D01*
X010592Y019279D02*
X010592Y018979D01*
X010367Y018979D02*
X010367Y019129D01*
X010967Y016756D02*
X010972Y016967D01*
X010988Y017177D01*
X011014Y017387D01*
X011050Y017595D01*
X011096Y017801D01*
X011152Y018004D01*
X011218Y018205D01*
X011294Y018402D01*
X011380Y018594D01*
X011475Y018783D01*
X011579Y018967D01*
X011692Y019145D01*
X011813Y019318D01*
X011943Y019484D01*
X012081Y019644D01*
X012226Y019797D01*
X012379Y019942D01*
X012539Y020080D01*
X012705Y020210D01*
X012878Y020331D01*
X013056Y020444D01*
X013240Y020548D01*
X013429Y020643D01*
X013621Y020729D01*
X013818Y020805D01*
X014019Y020871D01*
X014222Y020927D01*
X014428Y020973D01*
X014636Y021009D01*
X014846Y021035D01*
X015056Y021051D01*
X015267Y021056D01*
X015478Y021051D01*
X015688Y021035D01*
X015898Y021009D01*
X016106Y020973D01*
X016312Y020927D01*
X016515Y020871D01*
X016716Y020805D01*
X016913Y020729D01*
X017105Y020643D01*
X017294Y020548D01*
X017478Y020444D01*
X017656Y020331D01*
X017829Y020210D01*
X017995Y020080D01*
X018155Y019942D01*
X018308Y019797D01*
X018453Y019644D01*
X018591Y019484D01*
X018721Y019318D01*
X018842Y019145D01*
X018955Y018967D01*
X019059Y018783D01*
X019154Y018594D01*
X019240Y018402D01*
X019316Y018205D01*
X019382Y018004D01*
X019438Y017801D01*
X019484Y017595D01*
X019520Y017387D01*
X019546Y017177D01*
X019562Y016967D01*
X019567Y016756D01*
X019562Y016545D01*
X019546Y016335D01*
X019520Y016125D01*
X019484Y015917D01*
X019438Y015711D01*
X019382Y015508D01*
X019316Y015307D01*
X019240Y015110D01*
X019154Y014918D01*
X019059Y014729D01*
X018955Y014545D01*
X018842Y014367D01*
X018721Y014194D01*
X018591Y014028D01*
X018453Y013868D01*
X018308Y013715D01*
X018155Y013570D01*
X017995Y013432D01*
X017829Y013302D01*
X017656Y013181D01*
X017478Y013068D01*
X017294Y012964D01*
X017105Y012869D01*
X016913Y012783D01*
X016716Y012707D01*
X016515Y012641D01*
X016312Y012585D01*
X016106Y012539D01*
X015898Y012503D01*
X015688Y012477D01*
X015478Y012461D01*
X015267Y012456D01*
X015056Y012461D01*
X014846Y012477D01*
X014636Y012503D01*
X014428Y012539D01*
X014222Y012585D01*
X014019Y012641D01*
X013818Y012707D01*
X013621Y012783D01*
X013429Y012869D01*
X013240Y012964D01*
X013056Y013068D01*
X012878Y013181D01*
X012705Y013302D01*
X012539Y013432D01*
X012379Y013570D01*
X012226Y013715D01*
X012081Y013868D01*
X011943Y014028D01*
X011813Y014194D01*
X011692Y014367D01*
X011579Y014545D01*
X011475Y014729D01*
X011380Y014918D01*
X011294Y015110D01*
X011218Y015307D01*
X011152Y015508D01*
X011096Y015711D01*
X011050Y015917D01*
X011014Y016125D01*
X010988Y016335D01*
X010972Y016545D01*
X010967Y016756D01*
X010517Y012271D02*
X010442Y012271D01*
X010367Y012196D01*
X010292Y012271D01*
X010217Y012271D01*
X010142Y012196D01*
X010142Y012046D01*
X010217Y011970D01*
X010367Y012121D02*
X010367Y012196D01*
X010517Y012271D02*
X010592Y012196D01*
X010592Y012046D01*
X010517Y011970D01*
X010067Y011810D02*
X010067Y011510D01*
X010142Y011200D02*
X010367Y011200D01*
X010517Y011350D01*
X010592Y011350D01*
X010367Y011200D02*
X010517Y011050D01*
X010592Y011050D01*
X010517Y010890D02*
X010367Y010890D01*
X010292Y010814D01*
X010292Y010589D01*
X010142Y010589D02*
X010592Y010589D01*
X010592Y010814D01*
X010517Y010890D01*
X010292Y010739D02*
X010142Y010890D01*
X010142Y010429D02*
X010142Y010129D01*
X010592Y010129D01*
X010592Y010429D01*
X010367Y010279D02*
X010367Y010129D01*
X010592Y009969D02*
X010592Y009668D01*
X010592Y009819D02*
X010142Y009819D01*
X010592Y009508D02*
X010592Y009208D01*
X010592Y009358D02*
X010142Y009358D01*
X010142Y009048D02*
X010442Y009048D01*
X010592Y008898D01*
X010442Y008748D01*
X010142Y008748D01*
X010217Y008588D02*
X010142Y008512D01*
X010142Y008287D01*
X010592Y008287D01*
X010592Y008512D01*
X010517Y008588D01*
X010442Y008588D01*
X010367Y008512D01*
X010367Y008287D01*
X010367Y008512D02*
X010292Y008588D01*
X010217Y008588D01*
X010367Y008748D02*
X010367Y009048D01*
X011017Y009156D02*
X011017Y006656D01*
X009517Y006656D01*
X009517Y009156D02*
X011017Y009156D01*
X010967Y007906D02*
X010972Y008117D01*
X010988Y008327D01*
X011014Y008537D01*
X011050Y008745D01*
X011096Y008951D01*
X011152Y009154D01*
X011218Y009355D01*
X011294Y009552D01*
X011380Y009744D01*
X011475Y009933D01*
X011579Y010117D01*
X011692Y010295D01*
X011813Y010468D01*
X011943Y010634D01*
X012081Y010794D01*
X012226Y010947D01*
X012379Y011092D01*
X012539Y011230D01*
X012705Y011360D01*
X012878Y011481D01*
X013056Y011594D01*
X013240Y011698D01*
X013429Y011793D01*
X013621Y011879D01*
X013818Y011955D01*
X014019Y012021D01*
X014222Y012077D01*
X014428Y012123D01*
X014636Y012159D01*
X014846Y012185D01*
X015056Y012201D01*
X015267Y012206D01*
X015478Y012201D01*
X015688Y012185D01*
X015898Y012159D01*
X016106Y012123D01*
X016312Y012077D01*
X016515Y012021D01*
X016716Y011955D01*
X016913Y011879D01*
X017105Y011793D01*
X017294Y011698D01*
X017478Y011594D01*
X017656Y011481D01*
X017829Y011360D01*
X017995Y011230D01*
X018155Y011092D01*
X018308Y010947D01*
X018453Y010794D01*
X018591Y010634D01*
X018721Y010468D01*
X018842Y010295D01*
X018955Y010117D01*
X019059Y009933D01*
X019154Y009744D01*
X019240Y009552D01*
X019316Y009355D01*
X019382Y009154D01*
X019438Y008951D01*
X019484Y008745D01*
X019520Y008537D01*
X019546Y008327D01*
X019562Y008117D01*
X019567Y007906D01*
X019562Y007695D01*
X019546Y007485D01*
X019520Y007275D01*
X019484Y007067D01*
X019438Y006861D01*
X019382Y006658D01*
X019316Y006457D01*
X019240Y006260D01*
X019154Y006068D01*
X019059Y005879D01*
X018955Y005695D01*
X018842Y005517D01*
X018721Y005344D01*
X018591Y005178D01*
X018453Y005018D01*
X018308Y004865D01*
X018155Y004720D01*
X017995Y004582D01*
X017829Y004452D01*
X017656Y004331D01*
X017478Y004218D01*
X017294Y004114D01*
X017105Y004019D01*
X016913Y003933D01*
X016716Y003857D01*
X016515Y003791D01*
X016312Y003735D01*
X016106Y003689D01*
X015898Y003653D01*
X015688Y003627D01*
X015478Y003611D01*
X015267Y003606D01*
X015056Y003611D01*
X014846Y003627D01*
X014636Y003653D01*
X014428Y003689D01*
X014222Y003735D01*
X014019Y003791D01*
X013818Y003857D01*
X013621Y003933D01*
X013429Y004019D01*
X013240Y004114D01*
X013056Y004218D01*
X012878Y004331D01*
X012705Y004452D01*
X012539Y004582D01*
X012379Y004720D01*
X012226Y004865D01*
X012081Y005018D01*
X011943Y005178D01*
X011813Y005344D01*
X011692Y005517D01*
X011579Y005695D01*
X011475Y005879D01*
X011380Y006068D01*
X011294Y006260D01*
X011218Y006457D01*
X011152Y006658D01*
X011096Y006861D01*
X011050Y007067D01*
X011014Y007275D01*
X010988Y007485D01*
X010972Y007695D01*
X010967Y007906D01*
X019367Y009156D02*
X020867Y009156D01*
X020867Y006656D01*
X019367Y006656D01*
X019367Y015506D02*
X020867Y015506D01*
X020867Y018006D01*
X019367Y018006D01*
M02*
