G75*
G70*
%OFA0B0*%
%FSLAX24Y24*%
%IPPOS*%
%LPD*%
%AMOC8*
5,1,8,0,0,1.08239X$1,22.5*
%
%ADD10C,0.0100*%
%ADD11R,0.0591X0.0512*%
%ADD12R,0.1000X0.0500*%
%ADD13R,0.0220X0.0500*%
%ADD14R,0.0500X0.0220*%
%ADD15R,0.0800X0.0260*%
%ADD16R,0.0512X0.0591*%
%ADD17R,0.0551X0.0394*%
%ADD18R,0.0315X0.0394*%
%ADD19R,0.0630X0.0906*%
%ADD20R,0.0512X0.0512*%
%ADD21R,0.0787X0.0552*%
%ADD22R,0.2000X0.0720*%
%ADD23R,0.0260X0.0800*%
%ADD24R,0.0552X0.0787*%
%ADD25R,0.0709X0.0669*%
%ADD26R,0.0669X0.0709*%
D10*
X001167Y000456D02*
X001167Y020131D01*
X020842Y020131D01*
X020842Y020156D01*
X020842Y020131D02*
X020842Y000456D01*
X001167Y000456D01*
D11*
X003401Y006060D03*
X003401Y006729D03*
X013317Y006691D03*
X013317Y006021D03*
X019167Y015691D03*
X019167Y016361D03*
X008117Y018841D03*
X008117Y019511D03*
D12*
X009247Y014852D03*
X009247Y014064D03*
X009247Y013277D03*
X009247Y012490D03*
X009247Y011702D03*
X009247Y010915D03*
X009247Y010127D03*
X013017Y010094D03*
X013017Y010881D03*
X013017Y011669D03*
X013017Y012456D03*
X013017Y013244D03*
X013017Y014031D03*
X013017Y014818D03*
X019316Y014818D03*
X019316Y014031D03*
X019316Y013244D03*
X019316Y012456D03*
X019316Y011669D03*
X019316Y010881D03*
X019316Y010094D03*
X002948Y010127D03*
X002948Y010915D03*
X002948Y011702D03*
X002948Y012490D03*
X002948Y013277D03*
X002948Y014064D03*
X002948Y014852D03*
D13*
X005670Y007425D03*
X005985Y007425D03*
X006300Y007425D03*
X006615Y007425D03*
X006930Y007425D03*
X007245Y007425D03*
X007560Y007425D03*
X007875Y007425D03*
X007875Y004045D03*
X007560Y004045D03*
X007245Y004045D03*
X006930Y004045D03*
X006615Y004045D03*
X006300Y004045D03*
X005985Y004045D03*
X005670Y004045D03*
X015570Y004045D03*
X015885Y004045D03*
X016200Y004045D03*
X016515Y004045D03*
X016830Y004045D03*
X017145Y004045D03*
X017460Y004045D03*
X017775Y004045D03*
X017775Y007425D03*
X017460Y007425D03*
X017145Y007425D03*
X016830Y007425D03*
X016515Y007425D03*
X016200Y007425D03*
X015885Y007425D03*
X015570Y007425D03*
D14*
X014983Y006837D03*
X014983Y006522D03*
X014983Y006207D03*
X014983Y005892D03*
X014983Y005577D03*
X014983Y005262D03*
X014983Y004947D03*
X014983Y004632D03*
X018363Y004632D03*
X018363Y004947D03*
X018363Y005262D03*
X018363Y005577D03*
X018363Y005892D03*
X018363Y006207D03*
X018363Y006522D03*
X018363Y006837D03*
X008463Y006837D03*
X008463Y006522D03*
X008463Y006207D03*
X008463Y005892D03*
X008463Y005577D03*
X008463Y005262D03*
X008463Y004947D03*
X008463Y004632D03*
X005083Y004632D03*
X005083Y004947D03*
X005083Y005262D03*
X005083Y005577D03*
X005083Y005892D03*
X005083Y006207D03*
X005083Y006522D03*
X005083Y006837D03*
D15*
X005717Y015796D03*
X005717Y016296D03*
X005717Y016796D03*
X005717Y017296D03*
X008137Y017296D03*
X008137Y016796D03*
X008137Y016296D03*
X008137Y015796D03*
D16*
X004811Y015796D03*
X004142Y015796D03*
X002551Y008976D03*
X001882Y008976D03*
X006752Y008286D03*
X007421Y008286D03*
X011832Y008936D03*
X012501Y008936D03*
X016632Y008406D03*
X017301Y008406D03*
X017221Y003066D03*
X016552Y003066D03*
X012351Y002606D03*
X011682Y002606D03*
X007321Y003066D03*
X006652Y003066D03*
X002491Y002606D03*
X001822Y002606D03*
X016972Y015706D03*
X017641Y015706D03*
D17*
X014200Y009320D03*
X014200Y008572D03*
X013334Y008946D03*
X004260Y008572D03*
X004260Y009320D03*
X003394Y008946D03*
D18*
X004257Y006870D03*
X004257Y006082D03*
X014117Y006112D03*
X014117Y006900D03*
D19*
X011967Y005996D03*
X011967Y003516D03*
X002097Y003516D03*
X002097Y005996D03*
D20*
X004967Y018393D03*
X004967Y019299D03*
X017084Y018786D03*
X017989Y018786D03*
D21*
X007242Y018846D03*
D22*
X009747Y019476D03*
X009747Y018136D03*
X012277Y019516D03*
X014657Y019506D03*
D23*
X018947Y019576D03*
X019447Y019576D03*
X019947Y019576D03*
X020447Y019576D03*
X020447Y017156D03*
X019947Y017156D03*
X019447Y017156D03*
X018947Y017156D03*
D24*
X017537Y016511D03*
D25*
X014704Y015936D03*
X014714Y017226D03*
X013100Y017226D03*
X013090Y015936D03*
D26*
X011757Y016819D03*
X011757Y018433D03*
X015867Y017263D03*
X015867Y015649D03*
M02*
