G75*
G70*
%OFA0B0*%
%FSLAX24Y24*%
%IPPOS*%
%LPD*%
%AMOC8*
5,1,8,0,0,1.08239X$1,22.5*
%
%ADD10C,0.0100*%
%ADD11R,0.0591X0.0512*%
%ADD12R,0.1000X0.0500*%
%ADD13R,0.0220X0.0500*%
%ADD14R,0.0500X0.0220*%
%ADD15R,0.0800X0.0260*%
%ADD16R,0.0512X0.0591*%
%ADD17R,0.0551X0.0394*%
%ADD18R,0.0315X0.0394*%
%ADD19R,0.0630X0.0906*%
%ADD20R,0.0512X0.0512*%
%ADD21R,0.0787X0.0552*%
%ADD22R,0.2000X0.0720*%
%ADD23R,0.0260X0.0800*%
%ADD24R,0.0552X0.0787*%
%ADD25R,0.0709X0.0669*%
%ADD26R,0.0669X0.0709*%
D10*
X001167Y001356D02*
X001167Y021031D01*
X020842Y021031D01*
X020842Y021056D01*
X020842Y021031D02*
X020842Y001356D01*
X001167Y001356D01*
D11*
X003401Y006960D03*
X003401Y007629D03*
X013317Y007590D03*
X013317Y006921D03*
X019167Y016591D03*
X019167Y017260D03*
X008117Y019741D03*
X008117Y020410D03*
D12*
X009247Y015752D03*
X009247Y014964D03*
X009247Y014177D03*
X009247Y013389D03*
X009247Y012602D03*
X009247Y011815D03*
X009247Y011027D03*
X013017Y010994D03*
X013017Y011781D03*
X013017Y012568D03*
X013017Y013356D03*
X013017Y014143D03*
X013017Y014931D03*
X013017Y015718D03*
X019316Y015718D03*
X019316Y014931D03*
X019316Y014143D03*
X019316Y013356D03*
X019316Y012568D03*
X019316Y011781D03*
X019316Y010994D03*
X002948Y011027D03*
X002948Y011815D03*
X002948Y012602D03*
X002948Y013389D03*
X002948Y014177D03*
X002948Y014964D03*
X002948Y015752D03*
D13*
X005670Y008324D03*
X005985Y008324D03*
X006300Y008324D03*
X006615Y008324D03*
X006930Y008324D03*
X007245Y008324D03*
X007560Y008324D03*
X007875Y008324D03*
X007875Y004944D03*
X007560Y004944D03*
X007245Y004944D03*
X006930Y004944D03*
X006615Y004944D03*
X006300Y004944D03*
X005985Y004944D03*
X005670Y004944D03*
X015570Y004944D03*
X015885Y004944D03*
X016200Y004944D03*
X016515Y004944D03*
X016830Y004944D03*
X017145Y004944D03*
X017460Y004944D03*
X017775Y004944D03*
X017775Y008324D03*
X017460Y008324D03*
X017145Y008324D03*
X016830Y008324D03*
X016515Y008324D03*
X016200Y008324D03*
X015885Y008324D03*
X015570Y008324D03*
D14*
X014983Y007737D03*
X014983Y007422D03*
X014983Y007107D03*
X014983Y006792D03*
X014983Y006477D03*
X014983Y006162D03*
X014983Y005847D03*
X014983Y005532D03*
X018363Y005532D03*
X018363Y005847D03*
X018363Y006162D03*
X018363Y006477D03*
X018363Y006792D03*
X018363Y007107D03*
X018363Y007422D03*
X018363Y007737D03*
X008463Y007737D03*
X008463Y007422D03*
X008463Y007107D03*
X008463Y006792D03*
X008463Y006477D03*
X008463Y006162D03*
X008463Y005847D03*
X008463Y005532D03*
X005083Y005532D03*
X005083Y005847D03*
X005083Y006162D03*
X005083Y006477D03*
X005083Y006792D03*
X005083Y007107D03*
X005083Y007422D03*
X005083Y007737D03*
D15*
X005717Y016696D03*
X005717Y017196D03*
X005717Y017696D03*
X005717Y018196D03*
X008137Y018196D03*
X008137Y017696D03*
X008137Y017196D03*
X008137Y016696D03*
D16*
X004811Y016696D03*
X004142Y016696D03*
X002551Y009876D03*
X001882Y009876D03*
X006752Y009186D03*
X007421Y009186D03*
X011832Y009836D03*
X012501Y009836D03*
X016632Y009306D03*
X017301Y009306D03*
X017221Y003966D03*
X016552Y003966D03*
X012351Y003506D03*
X011682Y003506D03*
X007321Y003966D03*
X006652Y003966D03*
X002491Y003506D03*
X001822Y003506D03*
X016972Y016606D03*
X017641Y016606D03*
D17*
X014200Y010220D03*
X014200Y009472D03*
X013334Y009846D03*
X004260Y010220D03*
X004260Y009472D03*
X003394Y009846D03*
D18*
X004257Y007770D03*
X004257Y006982D03*
X014117Y007012D03*
X014117Y007800D03*
D19*
X011967Y006896D03*
X011967Y004416D03*
X002097Y004416D03*
X002097Y006896D03*
D20*
X004967Y019293D03*
X004967Y020199D03*
X017084Y019686D03*
X017989Y019686D03*
D21*
X007242Y019746D03*
D22*
X009747Y020376D03*
X009747Y019036D03*
X012277Y020416D03*
X015157Y020406D03*
D23*
X018947Y020476D03*
X019447Y020476D03*
X019947Y020476D03*
X020447Y020476D03*
X020447Y018056D03*
X019947Y018056D03*
X019447Y018056D03*
X018947Y018056D03*
D24*
X017537Y017411D03*
D25*
X014704Y016836D03*
X014714Y018126D03*
X013100Y018126D03*
X013090Y016836D03*
D26*
X011757Y017719D03*
X011757Y019333D03*
X015867Y018163D03*
X015867Y016549D03*
M02*
